<?xml version="1.0" encoding="utf-8"?>
<!-- Generator: Adobe Illustrator 26.0.1, SVG Export Plug-In . SVG Version: 6.00 Build 0)  -->
<svg version="1.1" id="Layer_1" xmlns="http://www.w3.org/2000/svg" xmlns:xlink="http://www.w3.org/1999/xlink" x="0px" y="0px"
	 viewBox="0 0 3710 3710" style="enable-background:new 0 0 3710 3710;" xml:space="preserve">
<style type="text/css">
	.st0{fill:#F4F7FA;}
	.st1{fill:#BFC8D6;}
	.st2{fill:#EAEDF3;}
	.st3{fill:url(#SVGID_1_);}
	.st4{fill:url(#SVGID_00000139972245312102509170000010360819162896909754_);}
	.st5{fill:#D8DEE8;}
	.st6{fill:url(#SVGID_00000169531952524115362310000015720245515891007672_);}
	.st7{fill:#FFFFFF;}
	.st8{fill:url(#SVGID_00000083072706593779616060000000542158367865258900_);}
	.st9{fill:url(#SVGID_00000105392873979466384370000016785718593579371922_);}
	.st10{opacity:0.3;fill:url(#SVGID_00000000922079658323977760000005422311314560042911_);enable-background:new    ;}
	.st11{fill:url(#SVGID_00000006693868691670208670000001697345315172003980_);}
	.st12{fill:url(#SVGID_00000091712723855541636430000000335362256337688224_);}
	.st13{fill:url(#SVGID_00000023250102018491226040000015528681336756687530_);}
	.st14{fill:url(#SVGID_00000114051535271861070350000013775174529880500354_);}
	.st15{fill:url(#SVGID_00000014611177836596166670000000631507797478596496_);}
	.st16{fill:url(#SVGID_00000036937974841518092450000005583347983497438118_);}
	.st17{fill:url(#SVGID_00000001659653417459935780000009750301981441078956_);}
	.st18{fill:url(#SVGID_00000031180242575598594460000011190767989792207005_);}
	.st19{fill:url(#SVGID_00000046319030326488679960000006159684030057204364_);}
	.st20{fill:url(#SVGID_00000129178616203818229770000012402024290570833308_);}
	.st21{fill:url(#SVGID_00000012465861003069257220000018116563822255428265_);}
	.st22{opacity:0.3;fill:url(#SVGID_00000125604068045395977810000016064229277900508346_);enable-background:new    ;}
	.st23{fill:url(#SVGID_00000162340540318544003000000006283044554837334159_);}
	.st24{opacity:0.3;fill:url(#SVGID_00000037660970157592535680000010488117450699084215_);enable-background:new    ;}
	.st25{fill:url(#SVGID_00000008852532056866916450000000874786561156674737_);}
	.st26{fill:url(#SVGID_00000119085896698850244150000016971535667074701747_);}
	.st27{fill:url(#SVGID_00000083062019553994945400000011543188298315938970_);}
	.st28{fill:url(#SVGID_00000056391708617824931330000004395285777348994180_);}
	.st29{fill:url(#SVGID_00000178183573064197789430000004222951564718662530_);}
	.st30{fill:url(#SVGID_00000011719234134792389230000016433056309362091942_);}
	.st31{opacity:0.8;}
	.st32{fill:url(#SVGID_00000098216467705754486840000004671630659717965730_);}
	.st33{fill:url(#SVGID_00000000909774952476969740000004871881487924311216_);}
	.st34{fill:url(#SVGID_00000103229322445635474040000000465917536617499069_);}
	.st35{fill:url(#SVGID_00000013168940629996888270000006526369710254741173_);}
	.st36{fill:url(#SVGID_00000055694651660302687520000008600475440497276808_);}
	.st37{fill:url(#SVGID_00000047751561948316524980000014311238339707275412_);}
	.st38{fill:url(#SVGID_00000165224056477713997540000015891820038401370255_);}
	.st39{fill:url(#SVGID_00000178887716002839409270000017784222303737406393_);}
	.st40{fill:url(#SVGID_00000005980172476917315900000004731214723396458154_);}
	.st41{fill:url(#SVGID_00000015315464914676373020000018021405097328198292_);}
	.st42{fill:url(#SVGID_00000178193516775601889050000012083359364417675180_);}
	.st43{fill:url(#SVGID_00000093859352401203137540000004742637010532601993_);}
	.st44{fill:url(#SVGID_00000033327901365931014330000004956227426294904482_);}
	.st45{opacity:0.3;fill:url(#SVGID_00000010301773638539143140000004790857500412016055_);enable-background:new    ;}
	.st46{fill:url(#SVGID_00000120531114937320387970000008109083241499688075_);}
	.st47{fill:url(#SVGID_00000101100066870208492260000015770944270140277691_);}
	.st48{fill:url(#SVGID_00000145738849783905715790000009481744002265229735_);}
	.st49{fill:url(#SVGID_00000111908602662808740380000013842430354888894880_);}
	.st50{fill:url(#SVGID_00000129193447868479130170000012293422606219117483_);}
	.st51{fill:url(#SVGID_00000019638467407643738540000015532438341310839938_);}
	.st52{opacity:0.3;fill:url(#SVGID_00000119832313361844976130000015202636622652664245_);enable-background:new    ;}
	.st53{fill:url(#SVGID_00000025433621707424520210000011557597639116794546_);}
	.st54{fill:url(#SVGID_00000076579656454652239610000003142560103817344179_);}
</style>
<g id="Illustration">
	<g>
		<path class="st0" d="M3221.4,1651C3145.1,1151.4,2832.2,537.7,2214,473.5c0,0-469.4-57.1-932,29.4
			c-274.6,51.4-515.4,204.2-667.7,423.9c-152.4,219.7-203.3,487.6-141.5,743c40.1,165.9,67.2,337.6,59.8,508
			c-9.4,215-27,441,68,641.5c139.2,293.7,479,380.2,775.5,407.8c109.2,10.2,218.9,14.3,328.2,22.9c209.8,16.6,445-10.3,647.2-64.9
			C3381.7,2907,3297.8,2150.5,3221.4,1651z"/>
		<g>
			<g>
				<path class="st1" d="M1561.2,1338.7v50.4c0,19,14.9,34.5,33.3,34.7l71.4,0.9c6.1,45.1,18.2,88.3,35.6,129l-64,36.2
					c-16.1,9.1-21.6,30-12.3,46.8l24.7,44.8c9.3,16.9,30,23.3,46.3,14.4l66.2-36.6c26.9,36,58.5,68.5,94,96.6l-39.7,67.6
					c-9.6,16.3-3.9,38.1,12.7,48.6l44.5,28.2c16.8,10.7,38.4,6,48.1-10.4l40.9-68.7c40.9,18.8,84.9,32.7,131.2,40.6v83.4
					c0,19.9,16.3,37,36.6,38.2l54.1,3.2c20.5,1.2,37.1-14.1,37.1-34.2V1868c47.6-3.4,93.7-13.1,137.2-28.4l44,75.7
					c10.6,18.2,34.2,25.6,52.7,16.4l49.5-24.7c18.7-9.3,25.1-31.8,14.3-50.2l-44.4-75.3c39.7-26.6,75.5-58.6,106.3-95l77,44.7
					c19.2,11.1,43.8,5.9,55-11.9l29.8-47.3c11.2-17.8,4.6-41.3-14.9-52.3l-76.2-43.2c20.4-43.3,34.8-89.9,42.1-138.9l86.3,1.1
					c22.6,0.3,41-16.6,41-37.7v-56.1c0-21.1-18.4-38.3-41-38.3l-84.1-0.1c-5.7-50.2-18.8-98.1-38.3-142.9l70.1-38.8
					c19.4-10.7,26.1-34.1,14.9-52.1l-29.8-47.7c-11.2-17.9-35.8-23.5-55-12.6l-67.7,38.3c-31-39.3-67.7-74-108.6-103l37.4-63
					c10.8-18.2,4.4-40.8-14.3-50.4l-49.5-25.4c-18.5-9.5-42.1-2.5-52.7,15.6l-36.1,61.6c-45.8-17.6-94.5-28.9-145.1-33.2v-68.1
					c0-20.1-16.7-35.6-37.1-34.7l-54.1,2.5c-20.2,0.9-36.6,17.8-36.6,37.6v67.4c-49,7.8-95.5,22.2-138.5,42.2L1922,843
					c-9.8-16.6-31.3-21.5-48.1-11.1l-44.5,27.6c-16.6,10.3-22.3,32-12.7,48.5l33.4,57.4c-36.5,29.4-68.8,63.5-95.8,101.4l-58.1-33
					c-16.2-9.2-36.9-3.1-46.3,13.7l-24.7,44.4c-9.3,16.7-3.8,37.7,12.3,47l58.8,34.1c-16.4,41.4-27.5,85.5-32.3,131.5l-69.6-0.1
					C1576,1304.3,1561.2,1319.7,1561.2,1338.7z M1802.5,1357.7c0-192.5,156.3-352.3,355.1-357.2c205.8-5,378.1,156.9,378.1,361.9
					s-172.2,364.7-378.1,357C1958.8,1712.1,1802.5,1550.2,1802.5,1357.7z"/>
				<polygon class="st1" points="2387.9,806.1 2437.4,804.4 2454.5,848.9 				"/>
				<polygon class="st1" points="1896.7,826.6 1839.5,827.2 1839.5,869.4 				"/>
				<polygon class="st1" points="1678.9,1029.9 1622,1032.2 1636.2,1064.1 				"/>
				<polygon class="st1" points="1589.5,1305 1532,1309.5 1550.8,1337.4 				"/>
				<polygon class="st1" points="1685.2,1699.6 1629.4,1707.6 1622.6,1662 				"/>
				<polygon class="st1" points="1898.7,1905.2 1848.6,1914.3 1844.6,1877.3 				"/>
				<polygon class="st1" points="2149.3,1994 2194.3,1986 2155.6,1928.5 				"/>
				<polygon class="st1" points="2393,1945.6 2445.4,1934.8 2405,1885.8 				"/>
				<polygon class="st1" points="2687.4,1007.2 2632.8,1008.9 2654.4,1048.7 				"/>
				<polygon class="st1" points="2796.2,1435.9 2746.1,1443.3 2750.1,1402.3 				"/>
				<polygon class="st1" points="2688.6,1736 2639.6,1744 2635.6,1711.6 				"/>
			</g>
			<path class="st2" d="M1504.7,1343.4v50.8c0,19.1,15,34.8,33.6,35l72,0.9c6.2,45.4,18.4,89.1,35.9,130l-64.5,36.5
				c-16.2,9.2-21.7,30.3-12.4,47.2l24.9,45.2c9.4,17,30.3,23.5,46.6,14.5l66.7-36.9c27.1,36.2,59,69,94.8,97.4l-40,68.1
				c-9.7,16.5-3.9,38.4,12.8,49l44.8,28.4c16.9,10.8,38.7,6.1,48.5-10.5l41.2-69.3c41.3,19,85.6,32.9,132.2,40.9v84.1
				c0,20,16.5,37.3,36.9,38.5l54.6,3.3c20.7,1.2,37.5-14.2,37.5-34.4v-85c48-3.4,94.4-13.2,138.3-28.7l44.4,76.3
				c10.7,18.4,34.5,25.8,53.1,16.5l49.9-24.9c18.9-9.4,25.4-32.1,14.4-50.6l-44.8-76c40.1-26.8,76.1-59.1,107.2-95.8l77.7,45
				c19.4,11.2,44.2,5.9,55.5-12l30-47.6c11.3-18,4.6-41.6-15-52.7l-76.8-43.6c20.6-43.6,35.1-90.7,42.5-140l87,1.1
				c22.8,0.3,41.4-16.7,41.4-38v-56.6c0-21.3-18.6-38.6-41.4-38.6l-84.8-0.1c-5.8-50.6-19-98.9-38.6-144l70.7-39.1
				c19.6-10.8,26.3-34.4,15-52.5l-30-48.1c-11.2-18-36.1-23.7-55.5-12.7l-68.3,38.6c-31.3-39.6-68.2-74.6-109.5-103.8l37.8-63.5
				c10.9-18.4,4.4-41.1-14.4-50.8l-49.9-25.6c-18.7-9.6-42.4-2.5-53.1,15.7l-36.4,62.1c-46.2-17.7-95.3-29.2-146.3-33.4V785
				c0-20.3-16.8-35.9-37.5-35l-54.6,2.5c-20.4,0.9-36.9,17.9-36.9,38v67.9c-49.4,7.8-96.3,22.4-139.7,42.6l-33.8-57.3
				c-9.8-16.7-31.6-21.7-48.5-11.2l-44.8,27.8c-16.8,10.4-22.5,32.2-12.8,48.8l33.7,57.9c-36.8,29.6-69.4,64-96.6,102.2l-58.6-33.2
				c-16.4-9.3-37.2-3.1-46.6,13.8l-24.9,44.8c-9.3,16.8-3.8,38,12.4,47.4l59.3,34.4c-16.6,41.8-27.7,86.2-32.5,132.6l-70.1-0.1
				C1519.7,1308.9,1504.7,1324.3,1504.7,1343.4z M1748,1362.7c0-194.1,157.6-355.2,358.1-360.1c207.5-5,381.2,158.2,381.2,364.8
				s-173.7,367.6-381.2,359.9C1905.6,1719.9,1748,1556.7,1748,1362.7z"/>
		</g>
		<g>
			<g>
				
					<linearGradient id="SVGID_1_" gradientUnits="userSpaceOnUse" x1="1130.847" y1="1868.3704" x2="700.6404" y2="1821.4388" gradientTransform="matrix(1 0 0 -1 312.7122 3710)">
					<stop  offset="0" style="stop-color:#444B8C"/>
					<stop  offset="0.9964" style="stop-color:#26264F"/>
				</linearGradient>
				<path class="st3" d="M1957.2,757.7l262.1,2178.4c3.9,32.7-18.6,61.9-50.1,65.1l-1091.6,119.8c-66.9,4.2-103.5-30-107.6-64.7
					l-275.2-2316c-4.1-34.5,28.7-65.8,95.9-65.8l1101.6,23.2C1924.1,698.2,1953.3,725.2,1957.2,757.7z"/>
				
					<linearGradient id="SVGID_00000139286482104702432740000008660520150503349180_" gradientUnits="userSpaceOnUse" x1="1509.9" y1="2952.7922" x2="446.1235" y2="-668.7502" gradientTransform="matrix(1 0 0 -1 312.7122 3710)">
					<stop  offset="0" style="stop-color:#444B8C"/>
					<stop  offset="0.9964" style="stop-color:#26264F"/>
				</linearGradient>
				<path style="fill:url(#SVGID_00000139286482104702432740000008660520150503349180_);" d="M2006.4,754l263.5,2189.3
					c4,32.8-18.6,62.3-50.3,65.4l-1131.7,112.7c-35.5,3.5-68-22.1-72.1-57L739,736.4c-4.1-34.7,21.9-62.6,57.8-62l1144.3,19.3
					C1973.1,694.2,2002.4,721.3,2006.4,754z"/>
				<path class="st5" d="M1984.9,874.8l244.3,2029.9c3.7,30.7-17.5,58.1-47.1,61l-1064.3,103.5c-33,3.2-63.2-20.8-67.1-53.2
					L794.9,865.4c-3.8-32.3,20.3-58.5,53.7-58.1l1075.3,11.5C1953.8,819,1981.2,844.2,1984.9,874.8z"/>
				
					<linearGradient id="SVGID_00000106114356873900645090000000154280702279649159_" gradientUnits="userSpaceOnUse" x1="1111.2773" y1="3041.9941" x2="-138.9493" y2="-344.0357" gradientTransform="matrix(1 0 0 -1 312.7122 3710)">
					<stop  offset="0" style="stop-color:#FFC444"/>
					<stop  offset="0.9964" style="stop-color:#F36F56"/>
				</linearGradient>
				<path style="fill:url(#SVGID_00000106114356873900645090000000154280702279649159_);" d="M1414.1,752.5c1.4,11.7-7,21-18.7,20.8
					c-11.7-0.1-22.4-9.7-23.8-21.4c-1.4-11.7,7-21,18.7-20.8C1402.1,731.2,1412.8,740.8,1414.1,752.5z"/>
				<g>
					<path class="st7" d="M1800.9,2237.4c-217.9-402.9-543.4-523.4-641.4-938.6c-53-224.4-16.9-439.2,43.9-617.6l-406.6-6.9
						c-35.9-0.6-61.9,27.3-57.8,62l276.7,2328c4.1,34.9,36.7,60.6,72.1,57l889.6-88.6C1984.1,2671.9,1898,2417,1800.9,2237.4z"/>
				</g>
			</g>
			<g>
				<path class="st1" d="M1198.5,1173.6c8.8,77.2-39.7,141.4-108.7,143.2c-69.4,1.9-133.1-60-141.7-138
					c-8.7-78,40.9-141.9,110.2-142.8C1127.2,1035,1189.7,1096.5,1198.5,1173.6z"/>
				<path class="st1" d="M1950.3,1158c9.1,74.4-35.2,136.2-99.3,138c-64.5,1.8-124.4-57.9-133.4-133.1
					c-9-75.1,36.3-136.7,100.7-137.6C1882.4,1024.3,1941.3,1083.7,1950.3,1158z"/>
				<path class="st1" d="M1510.5,1026.1l-131.7,1.8c-25.9,0.4-44.2,24.6-40.8,54.1l17.9,154.9c3.4,29.6,27.3,53.1,53.3,52.4
					l131.9-3.5c25.6-0.7,43.5-25,40-54.3l-18-153.2C1559.5,1049.1,1536.1,1025.7,1510.5,1026.1z"/>
				<path class="st1" d="M1634.5,1617c9,76.5-37.4,141.3-104,144.6c-67.1,3.3-129-56.8-137.9-134.2
					c-8.9-77.3,38.5-141.8,105.4-144.2C1564.6,1480.8,1625.5,1540.7,1634.5,1617z"/>
				<path class="st1" d="M2004.4,1601.2c9.2,75.1-35.2,138.7-99.4,141.8c-64.6,3.2-124.7-55.9-133.8-131.9
					c-9.1-75.9,36.2-139.2,100.8-141.5C1936.1,1467.4,1995.2,1526.2,2004.4,1601.2z"/>
				<path class="st1" d="M1178,1491.1l-137,4.9c-27,1-46.2,26.4-42.8,56.8l17.7,159.4c3.4,30.5,28.1,54.2,55.1,52.9l137.2-6.7
					c26.6-1.3,45.3-26.8,41.9-57l-17.9-157.6C1228.8,1513.7,1204.6,1490.2,1178,1491.1z"/>
				<path class="st1" d="M1303.6,2097.9c9,78.7-39.6,146.7-109,151.7c-69.8,5-133.9-55.6-142.7-135.3
					c-8.8-79.6,40.8-147.3,110.5-151.3C1231.7,1959,1294.7,2019.3,1303.6,2097.9z"/>
				<path class="st1" d="M1616.9,1933l-132.3,7.7c-26.1,1.5-44.4,27.1-40.9,57.3l18.2,158c3.5,30.2,27.5,53.3,53.6,51.4l132.5-9.4
					c25.7-1.8,43.6-27.6,40.1-57.5l-18.4-156.3C1666.2,1954.4,1642.6,1931.5,1616.9,1933z"/>
				<path class="st1" d="M1989.3,1911.4l-127.6,7.4c-25.1,1.5-42.7,26.6-39.1,56.2l18.5,155.1c3.5,29.7,26.9,52.3,52,50.5l127.7-9.1
					c24.8-1.8,41.9-27,38.3-56.4l-18.7-153.4C2037,1932.4,2014.1,1909.9,1989.3,1911.4z"/>
				<path class="st1" d="M1742.5,2533.3c9.2,78-37.3,146.5-104.2,152.9c-67.4,6.4-129.7-52.5-138.8-131.5
					c-9.1-78.9,38.4-147.1,105.7-152.5C1672,2396.7,1733.3,2455.4,1742.5,2533.3z"/>
				<path class="st1" d="M1283.5,2424.4l-137.7,11.1c-27.1,2.2-46.4,29.1-42.9,60.1l18.1,162.7c3.5,31.1,28.3,54.3,55.5,51.8
					l137.9-12.9c26.7-2.5,45.5-29.5,42-60.3l-18.3-160.9C1334.7,2445.4,1310.2,2422.3,1283.5,2424.4z"/>
				<path class="st1" d="M2044.1,2363.1l-127.9,10.3c-25.2,2-42.7,27.9-39.2,57.7l18.7,156.6c3.6,30,27,52.4,52.2,50l128-12
					c24.8-2.3,42-28.3,38.4-57.9l-18.9-154.9C2091.9,2383.4,2068.9,2361.1,2044.1,2363.1z"/>
			</g>
		</g>
		<g>
			
				<linearGradient id="SVGID_00000042011373963214856170000004879102452634719133_" gradientUnits="userSpaceOnUse" x1="1374.7557" y1="1880.1919" x2="2345.033" y2="2908.3284" gradientTransform="matrix(1 0 0 -1 0 3710)">
				<stop  offset="0" style="stop-color:#444B8C"/>
				<stop  offset="0.9964" style="stop-color:#26264F"/>
			</linearGradient>
			<path style="fill:url(#SVGID_00000042011373963214856170000004879102452634719133_);" d="M1887.6,1101.8h-694.9
				c-13.3,0-26.2,2.3-38.4,5c-0.4,0.1-0.7,0.6-1.1,0.7c0.1-0.8,0.2-1.3,0.3-2.1c-78.6,17.4-131.3,87.6-122.7,171.3l0.2,2.1l73,707.7
				l0.2,2.1c10,96.5,98.3,170.3,196.3,164.8l689.6-38.6c30.3-1.7,57.8-11.7,80.5-27.6c44.8-31.4,71.3-86.1,65.1-146.7l-67.9-672
				C2058.7,1176.9,1978.4,1101.8,1887.6,1101.8z"/>
			<g>
				
					<linearGradient id="SVGID_00000104701206948836154670000016035389313103839899_" gradientUnits="userSpaceOnUse" x1="1903.6094" y1="2960.3113" x2="1189.3304" y2="715.4315" gradientTransform="matrix(1 0 0 -1 0 3710)">
					<stop  offset="3.600000e-03" style="stop-color:#E38DDD"/>
					<stop  offset="1" style="stop-color:#9571F6"/>
				</linearGradient>
				<path style="fill:url(#SVGID_00000104701206948836154670000016035389313103839899_);" d="M2112.1,1268.1l67.7,669.9
					c6.1,60.5-19,115.2-63.6,146.5c-22.6,15.9-48.7,25.9-78.9,27.6l-685.9,38.4c-97.5,5.5-188-67.9-198-164.2l-72.9-707.9
					c-8.6-83.5,45.8-154.3,123.9-171.6c12.1-2.7,26.3-5,39.5-5h691.2C2025.3,1101.8,2102.9,1176.7,2112.1,1268.1z"/>
				<g>
					<g>
						<path class="st7" d="M1515.6,2000.8c-13.8,0.7-26.7-1.8-38.3-7.5c-42.7-20.6-63.3-80.5-57.9-168.5
							c5.2-84,33.1-184.8,78.6-283.4c81.5-176.7,197-299.5,281-300.2c13.3-0.1,25.8,2.9,37,8.8c40.9,21.7,60.6,80.6,55.6,166
							c-4.8,81.8-31.4,180-75,276.9C1717,1869.4,1601.5,1996.6,1515.6,2000.8z M1781.3,1263.8c-34.9,0.3-80,28.1-126.9,78.4
							c-49.1,52.6-97.1,127.2-135.2,210c-44.2,96.2-71.5,194.1-76.5,275.4c-4.7,76.5,11.3,129.5,43.9,145.3
							c7.9,3.8,16.9,5.5,26.6,5.1c35.9-1.7,81.8-31.5,129.2-83.8c48.9-54,96.3-129.2,133.5-211.6c42.7-94.7,68.7-190.3,73.4-269.6
							c4.4-74.4-11-126.5-42.3-143.1C1799.4,1265.7,1790.8,1263.7,1781.3,1263.8z"/>
					</g>
					<g>
						<path class="st7" d="M1653.7,1780.2c-108.4,4-212.9-7.7-293.7-33.2c-85.5-26.9-135.8-66.9-141-112.3
							c-5.3-46.4,37-90.6,118.5-124.3c77.3-31.9,181.4-51.3,292.6-54.7c4.4-0.1,8.8-0.2,13.1-0.3c107.1-2,208.1,11.2,284.7,37.1
							c79.7,26.9,126,65.6,130.8,109c5,44.3-33.6,86.9-109.2,120.1c-72.9,32-173.1,52.7-282.7,58
							C1662.5,1779.9,1658.1,1780.1,1653.7,1780.2z M1645.5,1478.1c-4.3,0.1-8.6,0.2-12.9,0.3c-108.5,3.5-209.8,22.4-284.6,53.4
							c-70.9,29.4-109.4,66.6-105.4,102c4,34.6,49,68,123.2,91.4c78.2,24.7,179.8,36.1,285.6,32.4c4.3-0.2,8.6-0.3,12.9-0.5
							c107-5,204.6-25,275.3-55.9c65.9-28.9,101.3-64.8,97.5-98.7c-3.7-33.2-45.4-65.5-114.6-88.8
							C1848.3,1488.6,1750.1,1476,1645.5,1478.1z"/>
					</g>
					<g>
						<path class="st7" d="M1854.1,1978.8C1854.1,1978.8,1854.1,1978.8,1854.1,1978.8c-83.5,3.4-223-108.6-339.9-279.6
							c-65.3-95.4-113.6-192.7-135.9-276.1c-23.4-87.3-15.1-147.4,23.2-170.4c10.4-6.2,22.8-9.1,36.6-9.2
							c86.4-0.7,227.3,119.8,342.3,291.1c63.1,93.9,109.4,190.2,130.7,271.1c22.2,84.4,14.4,141.2-21.8,165
							C1879.4,1977.3,1867.4,1978.8,1854.1,1978.8z M1440.5,1266.8c-9.8,0.1-18.4,2.3-25.5,6.5c-29.2,17.6-34.3,71.3-14,147.2
							c21.6,80.7,68.7,176.6,132.3,269.7c54.8,80.2,117.7,151.5,177.1,201c56.8,47.3,107.2,72.4,141.9,70.7c0,0,0,0,0,0
							c9.4-0.4,17.6-2.9,24.4-7.3c27.7-18.2,32.5-70.8,13.1-144.4c-20.7-78.5-65.9-172.1-127.6-263.9
							c-53.7-79.9-116.2-152.2-175.9-203.3C1528.4,1293.6,1476.6,1266.4,1440.5,1266.8z"/>
					</g>
					<g>
						<path class="st7" d="M1718.9,1615.8c4,38.9-24.3,71.5-63.3,72.7c-39.1,1.2-74.2-29.5-78.2-68.7c-4-39.2,24.6-71.8,63.8-72.7
							C1680.2,1546.1,1715,1576.9,1718.9,1615.8z"/>
					</g>
				</g>
				
					<linearGradient id="SVGID_00000172439938345710200490000013312512550746280334_" gradientUnits="userSpaceOnUse" x1="1079.428" y1="2083.644" x2="2116.1189" y2="2083.644" gradientTransform="matrix(1 0 0 -1 0 3710)">
					<stop  offset="3.600000e-03" style="stop-color:#E38DDD"/>
					<stop  offset="1" style="stop-color:#9571F6"/>
				</linearGradient>
				
					<path style="opacity:0.3;fill:url(#SVGID_00000172439938345710200490000013312512550746280334_);enable-background:new    ;" d="
					M2116.1,2081.9c-22.6,15.9-50,25-80.2,26.7l-686,38.3c-97.5,5.4-186.8-66.2-196.7-162.5l-72.9-708
					c-8.6-83.5,45.2-153.5,123.3-170.8c-1,7.1-1.3,12.5-1.5,15.2c-4,56.5,6.1,116.1,36.8,168.1c59.8,101.4,168.4,126.3,268.3,162.6
					c106.9,38.8,221,125.7,258.6,234.9c16.4,47.6,17,98.1,28.9,146.4c35.8,145.1,134.7,263.8,289.9,252.8
					C2094.9,2084.9,2105.4,2083.4,2116.1,2081.9z"/>
			</g>
		</g>
		<g>
			
				<linearGradient id="SVGID_00000062189413926417794490000011126555940916317586_" gradientUnits="userSpaceOnUse" x1="8348.6611" y1="-4769.9429" x2="8429.4492" y2="-4769.9429" gradientTransform="matrix(-0.4319 -0.9019 0.9019 -0.4319 8550.376 8601.168)">
				<stop  offset="0" style="stop-color:#444B8C"/>
				<stop  offset="0.9964" style="stop-color:#26264F"/>
			</linearGradient>
			<path style="fill:url(#SVGID_00000062189413926417794490000011126555940916317586_);" d="M627.4,3056.7
				c-5.1-2.6-13.6,0.3-19.2,2.2c-2.5,0.8-3.7,1.3-4.5,1.9c-5.3,4.7-0.6,16.9,5.8,36.5c10.1,31,11.7,40.8,17.1,41.2
				c5.1,0.3,9.5-7.9,10-8.8c2.6-5,2.3-9.5,1.5-18.2c-1.6-16-3.3-26.6-3.8-29.8C631.2,3061.8,630.7,3058.4,627.4,3056.7z"/>
			
				<linearGradient id="SVGID_00000067952512191104851350000011428600564515011760_" gradientUnits="userSpaceOnUse" x1="9115.457" y1="-4156.3135" x2="9150.8975" y2="-4082.9583" gradientTransform="matrix(-0.5146 -0.8575 0.8575 -0.5146 8877.5996 8767.4502)">
				<stop  offset="0" style="stop-color:#FFC444"/>
				<stop  offset="0.9964" style="stop-color:#F36F56"/>
			</linearGradient>
			<path style="fill:url(#SVGID_00000067952512191104851350000011428600564515011760_);" d="M662.3,3062.3l-32.5,18
				c-2-0.1-11.4-8-10.7-17.8l29.8-22.4L662.3,3062.3z"/>
			
				<linearGradient id="SVGID_00000009551644801771206470000004428568961190445956_" gradientUnits="userSpaceOnUse" x1="-2615.0137" y1="888.0498" x2="-2893.4968" y2="950.3677" gradientTransform="matrix(1 0 0 -1 3736.165 3710)">
				<stop  offset="0" style="stop-color:#444B8C"/>
				<stop  offset="0.9964" style="stop-color:#26264F"/>
			</linearGradient>
			<path style="fill:url(#SVGID_00000009551644801771206470000004428568961190445956_);" d="M997.7,2436.5
				c11.3,42.6,24.1,103.8,28.2,178.2c3.4,61.6,0.6,129.7-6.8,166.7c-37.2,185.4-330.8,282.8-365.4,293.9
				c-7.3-9.8-14.5-19.5-21.8-29.3c36.6-27.2,215.2-164.1,217-316.6c0.3-24.5-3.7-77.6-14-134.2c-11-60.6-26.5-109.7-38.8-143.8
				C863.3,2446.4,930.5,2441.4,997.7,2436.5z"/>
			
				<linearGradient id="SVGID_00000070089669695967219470000008193197214763855518_" gradientUnits="userSpaceOnUse" x1="-2768.4333" y1="1606.4059" x2="-2698.2749" y2="1682.1028" gradientTransform="matrix(1 0 0 -1 3736.165 3710)">
				<stop  offset="0" style="stop-color:#FFC444"/>
				<stop  offset="0.9964" style="stop-color:#F36F56"/>
			</linearGradient>
			<path style="fill:url(#SVGID_00000070089669695967219470000008193197214763855518_);" d="M960.5,1905.8l26.2,5.2
				c0,0,137.5,175.4,117.8,242.2c-19.6,66.8-117.8,15.7-117.8,15.7L960.5,1905.8z"/>
			
				<linearGradient id="SVGID_00000148627213337478009050000004825886340634153383_" gradientUnits="userSpaceOnUse" x1="6921.0923" y1="680.882" x2="7001.877" y2="680.882" gradientTransform="matrix(-0.9996 2.890000e-02 -2.890000e-02 -0.9996 7800.6978 3651.9373)">
				<stop  offset="0" style="stop-color:#444B8C"/>
				<stop  offset="0.9964" style="stop-color:#26264F"/>
			</linearGradient>
			<path style="fill:url(#SVGID_00000148627213337478009050000004825886340634153383_);" d="M788,3154.8c-4.4,3.6-5.2,12.6-5.8,18.4
				c-0.2,2.6-0.4,3.9-0.1,4.9c2.1,6.7,15.2,7.5,35.7,9.6c32.4,3.3,42.1,5.9,44.6,1c2.4-4.5-3.4-11.9-4-12.7c-3.5-4.4-7.8-6-16-8.7
				c-15.3-5-25.6-7.8-28.8-8.6C794.2,3153.4,790.9,3152.5,788,3154.8z"/>
			
				<linearGradient id="SVGID_00000055686849801837132100000005268290704445461382_" gradientUnits="userSpaceOnUse" x1="7184.1353" y1="1135.8022" x2="7219.5771" y2="1209.1592" gradientTransform="matrix(-0.9925 0.1225 -0.1225 -0.9925 8085.7788 3419.7183)">
				<stop  offset="0" style="stop-color:#FFC444"/>
				<stop  offset="0.9964" style="stop-color:#F36F56"/>
			</linearGradient>
			<path style="fill:url(#SVGID_00000055686849801837132100000005268290704445461382_);" d="M807.3,3125.2l3.2,36.9
				c-0.9,1.8-11.9,7.1-20.6,2.5l-8.3-36.3L807.3,3125.2z"/>
			
				<linearGradient id="SVGID_00000062158529005589710810000009115235976130681003_" gradientUnits="userSpaceOnUse" x1="-3003.9641" y1="1253.3291" x2="-3232.8826" y2="1769.3658" gradientTransform="matrix(0.9925 -0.1225 -0.1225 -0.9925 4119.27 3909.7991)">
				<stop  offset="0" style="stop-color:#444B8C"/>
				<stop  offset="0.9964" style="stop-color:#26264F"/>
			</linearGradient>
			<path style="fill:url(#SVGID_00000062158529005589710810000009115235976130681003_);" d="M846.9,2349.9
				c-8.1,147.4-14.8,297.6-19.8,450.4c-3.8,114.7-6.6,227.9-8.4,339.7c-13.5,1.7-27,3.3-40.5,5c-13.1-24.3-30.4-61.5-42.3-109.1
				c-14.4-57.9-11.1-92.2-17.4-152.2c-7.1-67.3-17.4-81.9-35.7-166.8c-37.1-172.2-55.6-258.3-14.3-311.8
				C681.9,2387.7,724,2344.1,846.9,2349.9z"/>
			
				<linearGradient id="SVGID_00000175316451321311426520000017021018815078124942_" gradientUnits="userSpaceOnUse" x1="-3072.873" y1="1304.8967" x2="-2807.5569" y2="1591.1584" gradientTransform="matrix(1 0 0 -1 3736.165 3710)">
				<stop  offset="0" style="stop-color:#FFC444"/>
				<stop  offset="0.9964" style="stop-color:#F36F56"/>
			</linearGradient>
			<path style="fill:url(#SVGID_00000175316451321311426520000017021018815078124942_);" d="M659.7,1910.3
				c35-9.8,86.2-21.3,148.9-24.9c92.5-5.2,138.8-7.5,165.9,13.7c84.2,66,4.4,301.7,34.4,425.6c25.3,104.2,26.2,106,26.2,106
				c6,11.7,15.6,27.8,11.8,47.1c-3,15.2-14.5,32.6-30.1,38c-32.4,11.2-51-40.7-104.7-56.3c-56.2-16.3-119,16.1-198.5,57.1
				c-50.6,26.1-67.8,42.8-85.6,34.5c-34.1-15.9-24.8-103.1-20.9-138.8C622.2,2270.9,639.3,2105.2,659.7,1910.3z"/>
			
				<linearGradient id="SVGID_00000068639989942099494390000001720826002664967103_" gradientUnits="userSpaceOnUse" x1="-2847.3262" y1="1560.0778" x2="-2744.4731" y2="1560.0778" gradientTransform="matrix(1 0 0 -1 3736.165 3710)">
				<stop  offset="0" style="stop-color:#FFC444"/>
				<stop  offset="0.9964" style="stop-color:#F36F56"/>
			</linearGradient>
			<path style="fill:url(#SVGID_00000068639989942099494390000001720826002664967103_);" d="M891.8,2150.6
				c-2.4-0.5-6.8-16.8,3.9-21.6c48.4-21.6,85.9,21.2,90.9,34.3c5,13.2,5,13.2,5,13.2s-24.1,1.9-39-3.1
				C937.8,2168.3,911.7,2155,891.8,2150.6z"/>
			<g>
				<g>
					
						<linearGradient id="SVGID_00000062912631331963747130000015431098643300213133_" gradientUnits="userSpaceOnUse" x1="1291.158" y1="-3523.2139" x2="1262.8611" y2="-3483.0322" gradientTransform="matrix(0.2291 -0.9734 0.9734 0.2291 4114.8374 4192.3481)">
						<stop  offset="0" style="stop-color:#444B8C"/>
						<stop  offset="0.9964" style="stop-color:#26264F"/>
					</linearGradient>
					<path style="fill:url(#SVGID_00000062912631331963747130000015431098643300213133_);" d="M1024.2,2211.9l-85.2,4.3
						c-3.3,0.2-7.2-3.9-6.4-6.6l39.8-128.8c0.6-2.1,2.8-3.6,5.2-3.4l81.7,1.8c2.7,0.2,4.1,5.4,3.4,8l-33.9,121.1
						C1028.3,2210.2,1026.3,2211.7,1024.2,2211.9z"/>
					
						<linearGradient id="SVGID_00000114774120579992100710000013283985382580651147_" gradientUnits="userSpaceOnUse" x1="1236.4293" y1="-3596.6252" x2="1303.8101" y2="-3459.7581" gradientTransform="matrix(0.2291 -0.9734 0.9734 0.2291 4114.8374 4192.3481)">
						<stop  offset="0" style="stop-color:#311944"/>
						<stop  offset="1" style="stop-color:#893976"/>
					</linearGradient>
					<path style="fill:url(#SVGID_00000114774120579992100710000013283985382580651147_);" d="M1022.6,2209.1l-85.7,4
						c-3.3,0.2-5.5-2.2-4.7-4.9l38.3-131c0.6-2.1,2.8-3.6,5.3-3.4l81.8,4.8c2.7,0.2,4.5,2.7,3.8,5.3l-34,121.6
						C1026.8,2207.4,1024.8,2209,1022.6,2209.1z"/>
				</g>
				
					<linearGradient id="SVGID_00000173126806280023012580000013753649318933860014_" gradientUnits="userSpaceOnUse" x1="1198.2821" y1="-3506.3933" x2="1345.2358" y2="-3506.3933" gradientTransform="matrix(0.2291 -0.9734 0.9734 0.2291 4114.8374 4192.3481)">
					<stop  offset="0" style="stop-color:#311944"/>
					<stop  offset="1" style="stop-color:#893976"/>
				</linearGradient>
				
					<path style="opacity:0.3;fill:url(#SVGID_00000173126806280023012580000013753649318933860014_);enable-background:new    ;" d="
					M979.4,2131c2.5,11.9,13.3,9.4,22,23.8c11.1,18.3,0.5,34.5,10.6,41.2c3.1,2,8.4,3.3,17.8,0.8l-2.4,8.7c-0.6,2-2.6,3.6-4.7,3.7
					l-85.7,4c-3.3,0.2-5.5-2.2-4.7-4.9l38.3-131c0.6-2.1,2.8-3.6,5.3-3.4l12.3,0.7c1.4,4.5,2.5,9.7,2.4,15.5
					C990,2109.6,976.4,2117,979.4,2131z"/>
			</g>
			
				<linearGradient id="SVGID_00000027570440457616794510000005546014247040182945_" gradientUnits="userSpaceOnUse" x1="-2729.8384" y1="1614.5319" x2="-2652.6543" y2="1516.6927" gradientTransform="matrix(1 0 0 -1 3736.165 3710)">
				<stop  offset="0" style="stop-color:#FFC444"/>
				<stop  offset="0.9964" style="stop-color:#F36F56"/>
			</linearGradient>
			<path style="fill:url(#SVGID_00000027570440457616794510000005546014247040182945_);" d="M1061.7,2121.4c0.5-2.1-0.5-4.2-2.1-4.3
				c-6.2-0.4-20.7-0.6-28.7,6.3c-10.4,9-23.8,25.4-12.5,33.7l10.5,7.7c0.5,0.4,1,0.5,1.5,0.3c3.7-1.2,19.5-6.1,21.2-7.3
				C1053.3,2156.6,1059.3,2131.3,1061.7,2121.4z"/>
			
				<linearGradient id="SVGID_00000065036152822901903950000002542771800199185030_" gradientUnits="userSpaceOnUse" x1="-3055.2861" y1="1288.5968" x2="-2789.9697" y2="1574.8588" gradientTransform="matrix(1 0 0 -1 3736.165 3710)">
				<stop  offset="0" style="stop-color:#FFC444"/>
				<stop  offset="0.9964" style="stop-color:#F36F56"/>
			</linearGradient>
			<path style="opacity:0.3;fill:url(#SVGID_00000065036152822901903950000002542771800199185030_);enable-background:new    ;" d="
				M990.7,2466.1c-9.1-15.8-8.8-39.8-28.8-51.1c-11.7-6.6-20.8-3.5-36.7-3.9c-47.3-1.3-56.3-31-89-32.7
				c-50.6-2.7-75,66.2-103.4,56.3c-18.6-6.5-30.5-43.6-20.9-72c13.4-39.6,59.2-34.1,119.1-87.7c25.7-22.9,62.5-64.3,52.4-82.5
				c-10.6-19.1-61,8.9-98.2-19.6c-21.7-16.7-18.9-37.3-36.7-74.6c-9.6-20.2-44.8-72.9-97.1-108.3c-16.8,160.9-31.3,300.7-44.3,422.5
				c-3.8,35.6-13.2,122.9,20.9,138.8c17.7,8.3,35-8.4,85.6-34.5c79.5-41,142.3-73.5,198.5-57.1c53.7,15.6,72.3,67.4,104.7,56.3
				c10.1-3.5,18.5-12.1,23.9-21.8C1011.9,2488.9,997.5,2478,990.7,2466.1z"/>
			<g>
				
					<linearGradient id="SVGID_00000043446741247925927560000004338208541017000855_" gradientUnits="userSpaceOnUse" x1="-2664.9558" y1="-92.1799" x2="-2655.6338" y2="156.1282" gradientTransform="matrix(0.917 0.3988 0.3988 -0.917 3254.9285 2969.3945)">
					<stop  offset="0" style="stop-color:#FFC444"/>
					<stop  offset="0.9964" style="stop-color:#F36F56"/>
				</linearGradient>
				<path style="fill:url(#SVGID_00000043446741247925927560000004338208541017000855_);" d="M823,1817.4c0.1,7,7.6,39.2-16,56.3
					c-23.8,17.2-45.9,17-54.8,19.2c-20.7,5.1-23.3,5-23.8,7c-2.2,10,54.2,44.1,112.5,35.9c35.7-5,68.1-25.4,66.1-36.1
					c-2-10.8-37.6-5-48.3-24.4c-7.4-13.5,0.9-32.7,10.7-48.7C859.9,1808.9,832.5,1835.2,823,1817.4z"/>
				<g>
					
						<linearGradient id="SVGID_00000031888274488750055390000016353520946647490970_" gradientUnits="userSpaceOnUse" x1="5471.7163" y1="2234.698" x2="5404.2397" y2="2406.0764" gradientTransform="matrix(-0.9999 1.480000e-02 -1.480000e-02 -0.9999 6295.3315 4084.7114)">
						<stop  offset="0" style="stop-color:#311944"/>
						<stop  offset="1" style="stop-color:#6B3976"/>
					</linearGradient>
					<path style="fill:url(#SVGID_00000031888274488750055390000016353520946647490970_);" d="M888.9,1805.8
						c8.3-11.3,8.6-30.8-1.2-43c-8.5-10.5-21.6-11.9-29.5-12.7c-22.8-2.4-51.5,7.5-61.2,28.5c-5.8,12.5,7.3,38.2,9.4,42.8
						c2.3,5.2,6.5,7,10.3,10.9c5.3,5.4,13.7,14.1,27.4,28.6c1-4.3,2.5-9.7,5-15.5c1-2.2,4.8-11,10.6-18.3
						C871.4,1812.4,881,1816.4,888.9,1805.8z"/>
					
						<linearGradient id="SVGID_00000110438415452463913840000018180463217319088572_" gradientUnits="userSpaceOnUse" x1="-2109.165" y1="2594.0295" x2="-2112.2678" y2="2344.0442" gradientTransform="matrix(0.9972 -7.600000e-02 -7.600000e-02 -0.9972 3148.8303 4233.1841)">
						<stop  offset="0" style="stop-color:#FFC444"/>
						<stop  offset="0.9964" style="stop-color:#F36F56"/>
					</linearGradient>
					<path style="fill:url(#SVGID_00000110438415452463913840000018180463217319088572_);" d="M824.6,1848.7
						c0,0,15.3,24.4,45.1,22.1c26.7-2,29.9-62,12.7-74.5c-5.7-4.2-17.2-5.8-26.4-3.1c-5.5,1.6-7.3,3.9-16.2,6.3
						c-8.3,2.2-10.6,1.4-13.1,3.5c-3.1,2.7-5.3,9.2,0.1,26.6c-5.2-5.1-11.3-7-15.6-4.9c-0.7,0.3-2.5,1.6-3.5,3.5
						C804,1835.2,810.4,1843.8,824.6,1848.7z"/>
					
						<linearGradient id="SVGID_00000097489596116197018910000011742522051190459830_" gradientUnits="userSpaceOnUse" x1="5451.103" y1="2226.4915" x2="5383.5576" y2="2398.0442" gradientTransform="matrix(-0.9999 1.480000e-02 -1.480000e-02 -0.9999 6295.3315 4084.7114)">
						<stop  offset="0" style="stop-color:#311944"/>
						<stop  offset="1" style="stop-color:#6B3976"/>
					</linearGradient>
					<path style="fill:url(#SVGID_00000097489596116197018910000011742522051190459830_);" d="M825.4,1799.5
						c1.3,0.9-2.6,5.8-2.8,12.6c-0.4,13.2,13.1,28.9,26.8,30.1c8.1,0.7,10.2-4.2,23.5-5.7c8.2-1,15.1,0,19.4,0.9
						c4.3,14.4,0.6,28.9-9,35.7c-10.3,7.3-23.7,3.1-29.3,1.3c-3.7-1.2-15.7-4.9-22.1-15.8c-6.6-11.3-0.3-18.3-7.9-25.9
						c-3.8-3.8-8.8-5.5-13.6-12.9c-1.3-2-2.2-3.8-2.8-5C814.5,1807.4,823.6,1798.2,825.4,1799.5z"/>
				</g>
			</g>
			
				<linearGradient id="SVGID_00000159456189137677462130000014992350471963277246_" gradientUnits="userSpaceOnUse" x1="-3033.9995" y1="1453.8102" x2="-2995.5984" y2="1781.9644" gradientTransform="matrix(1 0 0 -1 3736.165 3710)">
				<stop  offset="0" style="stop-color:#FFC444"/>
				<stop  offset="0.9964" style="stop-color:#F36F56"/>
			</linearGradient>
			<path style="fill:url(#SVGID_00000159456189137677462130000014992350471963277246_);" d="M731.5,1950.3
				c-14.1-21.4-42.2-42.4-68.1-40.6c-75.5,5.4-168.5,208.8-104.7,289.3c48.7,61.5,199.1,64.5,336.4-41.9c0-11.8,0-23.6,0-35.3
				c-67.6,11.8-123.6,19.7-164.9,24.9c-25.8,3.2-51.5,6.2-56.3-3.9c-7.2-15.3,44.4-37.2,64.1-94.3
				C740.7,2040.6,758,1990.6,731.5,1950.3z"/>
		</g>
		<g>
			<g>
				
					<linearGradient id="SVGID_00000134245895471479610660000003976463302086040963_" gradientUnits="userSpaceOnUse" x1="1918.543" y1="924.0497" x2="2269.6453" y2="924.0497" gradientTransform="matrix(1 0 0 -1 0 3710)">
					<stop  offset="0" style="stop-color:#FF9085"/>
					<stop  offset="1" style="stop-color:#FB6FBB"/>
				</linearGradient>
				<path style="fill:url(#SVGID_00000134245895471479610660000003976463302086040963_);" d="M2108.1,3111.8c-0.2,0-0.5,0.1-0.7,0.1
					c-39.7,6.3-89.4,1.9-121.5-24.5c-16.9-13.9-28.4-32.3-31.9-54c-2.1-12.9-3.2-26.5-1.2-39.5c2.1-13.6,7.4-26.7,14.1-38.6
					c3.8-6.6,8.1-13.1,12.6-19.2c13.1-17.6,44-42.2,29.7-67.1c-8.7-15-28.6-24.3-41.8-34.9c-28.2-22.6-48.5-55.1-48.7-92.2
					c-0.2-29.2,18.1-58.1,38.7-77.7c84-79.8,22.1-217.1,141-206.3c118.9,10.8,144.7,129.5,100.2,240.3
					c-14.9,37.1-33.1,75-43.2,113.8c-8,30.5,3.3,51.6,28.2,69.7c13.4,9.7,32.9,16.3,44.5,27.8c26,25.5,46.7,61.3,40.5,98.8
					c-6.1,37.2-37.8,64.5-71.2,78.6C2168.5,3099.2,2139,3106.9,2108.1,3111.8z"/>
				<g class="st31">
					<path class="st7" d="M2094.1,3079.9c-0.3,0-0.6,0-0.8-0.1c-1.3-0.5-1.9-1.9-1.5-3.1c0.5-1.4,49.8-139,6.6-249.2
						c-43.9-112.1,5.2-232.1,5.7-233.3c0.5-1.2,1.9-1.8,3.2-1.3c1.2,0.5,1.8,2,1.3,3.2c-0.5,1.2-48.8,119.4-5.7,229.6
						c43.8,112-6.1,251.3-6.6,252.7C2096,3079.3,2095.1,3079.9,2094.1,3079.9z"/>
				</g>
			</g>
			<g>
				
					<linearGradient id="SVGID_00000119820137395777837410000000398639870285735825_" gradientUnits="userSpaceOnUse" x1="1608.5212" y1="1012.1959" x2="2168.2231" y2="1012.1959" gradientTransform="matrix(1 0 0 -1 0 3710)">
					<stop  offset="0" style="stop-color:#FFC444"/>
					<stop  offset="0.9964" style="stop-color:#F36F56"/>
				</linearGradient>
				<path style="fill:url(#SVGID_00000119820137395777837410000000398639870285735825_);" d="M2133.2,2905.1
					c-10-15.8-21.4-30.6-33.2-44c-40.2-45.3-68.4-93.4-86.4-151.5c-14.2-45.7-13.9-98-22.7-145.2c-6.4-34.2-18-67.3-30-99.9
					c-25.6-69.3-64.1-149.8-128.6-191.4c-29.9-19.3-74.2-21.2-107.2-7.4c-42.7,17.9-80.5,52.8-83.2,101.2
					c-3.8,66.7,54.5,141.4,6.3,202.7c-73.7,93.9-39.3,198.1,62.1,249.2c33,16.6,71.7,32,99.3,57.6c27.7,25.6,11.2,69.3,8.1,101.8
					c-2.9,30.5-6.1,65.8,13.3,91.9c32.7,43.9,111.8,63.1,163.2,67.4c49.7,4.2,106.2-1.3,141.1-41.1
					C2187.6,3036.5,2170.5,2964.2,2133.2,2905.1z"/>
				<g class="st31">
					<path class="st7" d="M2052.3,3096.2c-1,0-1.9-0.6-2.3-1.6c-1.6-4.3-162.4-428.6-254.2-599.6c-0.6-1.2-0.2-2.7,1-3.3
						c1.2-0.6,2.7-0.2,3.3,1c91.9,171.3,252.8,595.9,254.4,600.2c0.5,1.3-0.2,2.7-1.4,3.2
						C2052.8,3096.2,2052.5,3096.2,2052.3,3096.2z"/>
				</g>
			</g>
			<g>
				
					<linearGradient id="SVGID_00000116945355683163695760000013864832403433954476_" gradientUnits="userSpaceOnUse" x1="1529.9005" y1="718.894" x2="2091.3652" y2="718.894" gradientTransform="matrix(1 0 0 -1 0 3710)">
					<stop  offset="0" style="stop-color:#FF9085"/>
					<stop  offset="1" style="stop-color:#FB6FBB"/>
				</linearGradient>
				<path style="fill:url(#SVGID_00000116945355683163695760000013864832403433954476_);" d="M1982.8,3156.2c10.7-1.5,21.4-3.3,32-5
					c29.7-4.8,66.5-14,75.8-47.1c2.7-9.4-1.9-26.3-3-36.1c-1.1-10-2.5-20-4.9-29.8c-3.2-13.5-8.4-26.2-15-38.4
					c-11.6-21.1-24.8-37-49.4-41.7c-17.9-3.5-37.8-4.3-56.1-3.7c-99.4,3.3-111.6-32.6-166.2-109.2s-413.9,47.3-197.2,183.3
					c0,0,32.6,21.2,151.6,7.3c21.8-2.5,49.3-4.2,67.7,9.9c32.5,24.8-0.2,77.4,32.7,98.1c19.2,12,49.9,15.6,72,16.4
					C1942.8,3161,1962.8,3159.1,1982.8,3156.2z"/>
				<g class="st31">
					<path class="st7" d="M2049.1,3115.2c-0.8,0-1.5-0.4-2-1c-0.6-0.9-63.6-86.4-152.8-106.6c-34.9-7.9-65.1-25.6-94.3-42.7
						c-49.2-28.8-95.7-56.1-164.3-42.1c-1.3,0.3-2.6-0.6-2.9-1.9c-0.3-1.3,0.6-2.6,1.9-2.9c70.5-14.4,119.9,14.6,167.8,42.6
						c28.9,16.9,58.7,34.4,92.9,42.1c91.1,20.6,155.1,107.6,155.7,108.5c0.8,1.1,0.5,2.6-0.5,3.4
						C2050.1,3115.1,2049.6,3115.2,2049.1,3115.2z"/>
				</g>
			</g>
		</g>
		<g>
			
				<linearGradient id="SVGID_00000103985790373780402420000011926199271217444779_" gradientUnits="userSpaceOnUse" x1="4352.4639" y1="1848.0039" x2="2860.6743" y2="1213.4369" gradientTransform="matrix(1 2.190000e-02 0 -1 0 3675.9702)">
				<stop  offset="3.600000e-03" style="stop-color:#E38DDD"/>
				<stop  offset="1" style="stop-color:#9571F6"/>
			</linearGradient>
			<polygon style="fill:url(#SVGID_00000103985790373780402420000011926199271217444779_);" points="2577.4,3193.7 2020.2,3158.1 
				2020.2,2310.1 2577.4,2326.1 			"/>
			
				<linearGradient id="SVGID_00000065759034629238886540000000929452110831864457_" gradientUnits="userSpaceOnUse" x1="2776.3638" y1="1056.504" x2="3236.7148" y2="298.6475" gradientTransform="matrix(1 2.190000e-02 0 -1 0 3675.9702)">
				<stop  offset="3.600000e-03" style="stop-color:#E38DDD"/>
				<stop  offset="1" style="stop-color:#9571F6"/>
			</linearGradient>
			<polygon style="fill:url(#SVGID_00000065759034629238886540000000929452110831864457_);" points="3064.7,3152.2 2577.4,3193.7 
				2577.4,2326.1 3064.7,2316 			"/>
			
				<linearGradient id="SVGID_00000121980910112923105010000003645964964149203352_" gradientUnits="userSpaceOnUse" x1="2330.416" y1="1750.7069" x2="2590.5862" y2="1316.701" gradientTransform="matrix(1 0 0 -1 0 3710)">
				<stop  offset="3.600000e-03" style="stop-color:#E38DDD"/>
				<stop  offset="1" style="stop-color:#AC79EF"/>
				<stop  offset="1" style="stop-color:#9571F6"/>
			</linearGradient>
			<polygon style="fill:url(#SVGID_00000121980910112923105010000003645964964149203352_);" points="2020.2,2310.1 2550.1,2287.1 
				3064.7,2316 2571.6,2334.2 			"/>
		</g>
		<g>
			<g>
				<g>
					
						<linearGradient id="SVGID_00000109015604075589929770000006774980684526776491_" gradientUnits="userSpaceOnUse" x1="-3037.855" y1="2072.3362" x2="-2348.3374" y2="1603.985" gradientTransform="matrix(1 0 0 -1 5641.0796 3710)">
						<stop  offset="0" style="stop-color:#311944"/>
						<stop  offset="1" style="stop-color:#6B3976"/>
					</linearGradient>
					<path style="fill:url(#SVGID_00000109015604075589929770000006774980684526776491_);" d="M2641.1,1886.8
						c-13-8.4-1.2-32.9-0.5-85.4c0.9-64.4-16.2-76.4-2.5-101.7c16.8-30.9,59.1-43.7,87.1-44.3c6.2-0.1,7.6-3.5,59.4,9.9
						c93.3,24.2,116.6-1.7,158.4,24.1c40.3,25,22.7,52.4,61.9,81.7c63.5,47.5,130.3-3.9,175.7,35.9c42.9,37.6,43.9,133.3-1.2,185.6
						c-51.2,59.2-143.5,41.4-205.4,29.7c-13-2.5-78.8-16.3-147.2-66.8c-37.9-28-63.9-57.8-80.4-79.8c-3.9-4.4-9.9-9.7-17.9-10.5
						c-9.6-1-17.3,4.8-21,7.4C2687.8,1886.1,2653.8,1895,2641.1,1886.8z"/>
					
						<linearGradient id="SVGID_00000057124381584482228860000006846459756261630395_" gradientUnits="userSpaceOnUse" x1="5124.9858" y1="1841.9968" x2="5142.7764" y2="1556.0845" gradientTransform="matrix(-1 0 0 -1 7661.3652 3710)">
						<stop  offset="0" style="stop-color:#FF9085"/>
						<stop  offset="1" style="stop-color:#FB6FBB"/>
					</linearGradient>
					<path style="fill:url(#SVGID_00000057124381584482228860000006846459756261630395_);" d="M2685.1,1811.9
						c-16.7-15.2-76.2,14.1-115.6,53c-46.3,45.7-42.8,82.7-83.2,139.4c-20.1,28.2-54.6,66.2-115.6,99.4c4.3,10.8,8.6,21.6,13,32.4
						c29.5,1.8,87.5,0.7,141.6-34.6c37.6-24.5,56.9-57,94-121C2656.4,1916.3,2705.9,1830.9,2685.1,1811.9z"/>
					
						<linearGradient id="SVGID_00000149382669600041591930000004865504179755575197_" gradientUnits="userSpaceOnUse" x1="-3350.9412" y1="1029.5133" x2="-3258.0796" y2="1029.5133" gradientTransform="matrix(1 0 0 -1 5641.0796 3710)">
						<stop  offset="0" style="stop-color:#311944"/>
						<stop  offset="1" style="stop-color:#6B3976"/>
					</linearGradient>
					<path style="fill:url(#SVGID_00000149382669600041591930000004865504179755575197_);" d="M2309.2,2680.5l46.5-27.9h21
						c0,0,7.1,26.6,6.3,27.9c-9.3,15.3-52.8,27-80,27.9c-4.5,0.2-10.8,0.2-12.4-3.1C2287.8,2699.8,2300.1,2688.2,2309.2,2680.5z"/>
					
						<linearGradient id="SVGID_00000181054048895368399270000010331702101442004388_" gradientUnits="userSpaceOnUse" x1="-3307.1475" y1="992.9171" x2="-3168.6062" y2="1408.5419" gradientTransform="matrix(1 0 0 -1 5641.0796 3710)">
						<stop  offset="0" style="stop-color:#FFC444"/>
						<stop  offset="0.9964" style="stop-color:#F36F56"/>
					</linearGradient>
					<path style="fill:url(#SVGID_00000181054048895368399270000010331702101442004388_);" d="M2356.5,2622.1
						c3,17.3-0.8,26.3-4.9,31.3c-2.9,3.6-5.4,4.6-22.4,19.3c-5.6,4.9-8.5,7.5-7.8,8.8c0.7,1.6,5.7,0.7,16.4-1.9
						c23.4-5.6,35.1-8.5,38-14.2c2.6-5.1,0.3-7.4,0.5-21.3c0.1-9.1,2-16.5,3.4-21.1C2371.9,2622.8,2364.2,2622.4,2356.5,2622.1z"/>
					
						<linearGradient id="SVGID_00000094582322556045980350000017706399188460511145_" gradientUnits="userSpaceOnUse" x1="-3336.1604" y1="1200.0199" x2="-3279.3684" y2="1200.0199" gradientTransform="matrix(1 0 0 -1 5641.0796 3710)">
						<stop  offset="0" style="stop-color:#311944"/>
						<stop  offset="1" style="stop-color:#6B3976"/>
					</linearGradient>
					<path style="fill:url(#SVGID_00000094582322556045980350000017706399188460511145_);" d="M2322.9,2485.1c0,0-21,25-17.6,52.5
						c3.4,27.5,40.2-12.7,45.3-26.3c5.1-13.6,11.1-32.9,11.1-32.9S2335.9,2462.4,2322.9,2485.1z"/>
					
						<linearGradient id="SVGID_00000030481829189421788840000006072625910467908747_" gradientUnits="userSpaceOnUse" x1="-3369.0757" y1="1044.0817" x2="-3276.3416" y2="1322.2848" gradientTransform="matrix(1 0 0 -1 5641.0796 3710)">
						<stop  offset="0" style="stop-color:#FFC444"/>
						<stop  offset="0.9964" style="stop-color:#F36F56"/>
					</linearGradient>
					<path style="fill:url(#SVGID_00000030481829189421788840000006072625910467908747_);" d="M2330.9,2445.9c0,0,5.7,29.2-5.2,44.6
						c-5.4,7.7-12.7,14.2-10.6,20.4c1.4,4.2,6.9,7.2,11.5,6.7c8.9-0.9,13.8-14.5,17.2-24.1c5.1-14.1,8-44.4,8-44.4L2330.9,2445.9z"
						/>
					
						<linearGradient id="SVGID_00000047022372180126316900000006500595392818843556_" gradientUnits="userSpaceOnUse" x1="-3254.8096" y1="1512.7869" x2="-3185.6418" y2="1112.9104" gradientTransform="matrix(1 0 0 -1 5641.0796 3710)">
						<stop  offset="0" style="stop-color:#AB316D"/>
						<stop  offset="1" style="stop-color:#792D3D"/>
					</linearGradient>
					<path style="fill:url(#SVGID_00000047022372180126316900000006500595392818843556_);" d="M2347.6,2470.5
						c-6.5-2.4-12.9-4.7-19.4-7.1c-10.1-23-22.4-60.8-18.3-106.7c10.6-118.1,119.8-180.7,131.9-187.4c29.8,14.9,59.9,36,61,62.6
						c1.4,33.3-44,51-86.7,99.7C2390.5,2360.9,2363.2,2404.5,2347.6,2470.5z"/>
					
						<linearGradient id="SVGID_00000088091804451279853700000006970509979891034529_" gradientUnits="userSpaceOnUse" x1="-3157.1289" y1="1038.8751" x2="-3058.7805" y2="1350.1315" gradientTransform="matrix(1 0 0 -1 5641.0796 3710)">
						<stop  offset="0" style="stop-color:#AB316D"/>
						<stop  offset="1" style="stop-color:#792D3D"/>
					</linearGradient>
					<path style="fill:url(#SVGID_00000088091804451279853700000006970509979891034529_);" d="M2354.6,2635.6
						c-21.3-83.3-15.9-151.3-9.7-190.5c9.3-59.2,28.2-179.6,108.6-224.5c17.6-9.8,42.7-18.6,73.2-45.8
						c25.5-22.8,41.8-46.7,51.6-63.6c107.5-31.5,206.7-18.8,250.5,38.9c5.1,6.7,17.7,21.1,20.2,42.4c5.5,48.1-41.7,106-94.7,118.1
						c-67.4,15.4-106.5-53.8-166.2-30.8c-16.7,6.4-30.9,22.4-59.2,54.3c-36,40.6-56.3,78.1-63.9,93c-22.8,44.6-40.1,77.6-42.6,120.3
						c-0.6,9.9-0.9,30-12.6,51.7c-8.9,16.6-21.1,27.7-30.1,34.6C2371.3,2634.3,2362.9,2635,2354.6,2635.6z"/>
					
						<linearGradient id="SVGID_00000001650388795699295120000009334547394400448911_" gradientUnits="userSpaceOnUse" x1="-3157.1199" y1="1038.8713" x2="-3058.7712" y2="1350.1282" gradientTransform="matrix(1 0 0 -1 5641.0796 3710)">
						<stop  offset="0" style="stop-color:#AB316D"/>
						<stop  offset="1" style="stop-color:#792D3D"/>
					</linearGradient>
					
						<path style="opacity:0.3;fill:url(#SVGID_00000001650388795699295120000009334547394400448911_);enable-background:new    ;" d="
						M2848.9,2192.5c-2.4-21.3-15.1-35.8-20.2-42.4c-43.8-57.7-142.9-70.4-250.5-38.9c-9.8,16.9-26,40.8-51.6,63.6
						c-30.6,27.3-55.7,36-73.2,45.8c-49.1,27.4-75.2,83-90.3,135.6c22.3-34.6,41.5-43.8,56.3-44c21.2-0.2,30.6,17.9,55.9,15.4
						c27-2.6,33.2-25,55.1-27.6c6.6-0.8,14.6,0.2,24.3,5.4c12.9-13.5,22.6-21.6,33.2-25.7c59.7-23,98.8,46.2,166.2,30.8
						C2807.2,2298.5,2854.4,2240.6,2848.9,2192.5z"/>
					
						<linearGradient id="SVGID_00000052106282176754707140000006694736542568762769_" gradientUnits="userSpaceOnUse" x1="-3018.73" y1="1553.146" x2="-2949.7217" y2="1154.1909" gradientTransform="matrix(1 0 0 -1 5641.0796 3710)">
						<stop  offset="0" style="stop-color:#AB316D"/>
						<stop  offset="1" style="stop-color:#792D3D"/>
					</linearGradient>
					<path style="fill:url(#SVGID_00000052106282176754707140000006694736542568762769_);" d="M2410.3,2257.8
						c12.2-0.6,30.9-1,53.5,1.2c107.3,10.6,136.9,63.7,225.5,76.6c21,3.1,114.4,16.7,154.8-37.3c29-38.8,24.6-105.6-7.1-131.8
						c-13.4-11.1-26.8-10.8-112.8-10c-32.4,0.3-64.8,0.4-97.3,0.8c-137.2,1.7-163.5-7.8-188.5,14.9
						C2426.8,2182.9,2409.8,2205.6,2410.3,2257.8z"/>
					<g>
						<g>
							
								<linearGradient id="SVGID_00000029030566625791242670000007747856796948661664_" gradientUnits="userSpaceOnUse" x1="-3118.5017" y1="1800.8367" x2="-2505.488" y2="1576.3525" gradientTransform="matrix(1 0 0 -1 5641.0796 3710)">
								<stop  offset="0" style="stop-color:#FF9085"/>
								<stop  offset="1" style="stop-color:#FB6FBB"/>
							</linearGradient>
							<path style="fill:url(#SVGID_00000029030566625791242670000007747856796948661664_);" d="M2700,1817.5
								c0,0,160.1-46.7,176.8,70.5c15.9,112.4-65.7,163.9-28.5,277.8c4.3,13.2-304.9-47.2-304.9-47.2c41.3-51.5,50.9-94,51.8-123.5
								c1.1-32.4-8.3-47.1,0-85.4c0,0,9.2-42.7,42.4-79.4C2642.4,1825.1,2648.1,1819.6,2700,1817.5z"/>
						</g>
						<g>
							<path class="st0" d="M2802.9,2141.8c-0.2,0-0.3,0-0.5-0.1c-1.5-0.4-151.1-40.2-239.4-45.2c-1-0.1-1.8-0.9-1.7-1.9
								c0.1-1,0.8-1.8,1.9-1.7c88.7,5,238.7,44.9,240.2,45.3c1,0.3,1.6,1.3,1.3,2.3C2804.4,2141.2,2803.7,2141.8,2802.9,2141.8z"/>
						</g>
					</g>
					<g>
						
							<linearGradient id="SVGID_00000129174483185775231650000017795474739684623253_" gradientUnits="userSpaceOnUse" x1="6505.3154" y1="2573.1738" x2="6512.3623" y2="2760.8896" gradientTransform="matrix(-0.984 0.1784 -0.1784 -0.984 9592.4639 3267.7725)">
							<stop  offset="0" style="stop-color:#FFC444"/>
							<stop  offset="0.9964" style="stop-color:#F36F56"/>
						</linearGradient>
						<path style="fill:url(#SVGID_00000129174483185775231650000017795474739684623253_);" d="M2734.8,1747.2
							c-1.5,6.9-8.9,43.6,6.1,53.1c3.3,2.1,9.5,3.2,22.1,5.6c8.2,1.5,15.1,2.5,20,3.1c-0.7,6.2-2.8,16.2-9.9,25.3
							c-20,25.6-60,19-65.7,17.9c-20.1-3.7-39.9-9.9-44.7-13.7c-7.3-5.8-13-10.1-16.4-14.5c7.8-3.8,23.5-13.7,34.1-16.9
							c7.9-2.4,15.3-4.2,22-5.4c1.1-7.1,2.2-14.2,3.3-21.3C2715.4,1769.3,2725.1,1758.3,2734.8,1747.2z"/>
						
							<linearGradient id="SVGID_00000157997226007049787750000013505125453303355533_" gradientUnits="userSpaceOnUse" x1="6501.8682" y1="2735.4219" x2="6499.0586" y2="2509.0593" gradientTransform="matrix(-0.984 0.1784 -0.1784 -0.984 9592.4639 3267.7725)">
							<stop  offset="0" style="stop-color:#FFC444"/>
							<stop  offset="0.9964" style="stop-color:#F36F56"/>
						</linearGradient>
						<path style="fill:url(#SVGID_00000157997226007049787750000013505125453303355533_);" d="M2735.2,1766.5
							c0,0-2.5,25.1-26.9,29.5c-21.9,4-38.3-48.8-27.1-62.5c3.7-4.6,12.9-8.9,20.9-8.7c5.6,0.2,24.6,7.4,27.2,26.4
							c3.8-4,8.5-5.1,10.8-3.5c2.9,2.1,1.4,8.3,1,9.7C2739.9,1762.3,2736.8,1765.3,2735.2,1766.5z"/>
					</g>
				</g>
			</g>
			<g>
				
					<linearGradient id="SVGID_00000059302977191068118810000007649416315081022110_" gradientUnits="userSpaceOnUse" x1="-1626.9114" y1="1558.3574" x2="-1358.9976" y2="1558.3574" gradientTransform="matrix(1 0 0 -1 4131.0864 3710)">
					<stop  offset="0" style="stop-color:#40447E"/>
					<stop  offset="0.9964" style="stop-color:#3C3B6B"/>
				</linearGradient>
				<path style="fill:url(#SVGID_00000059302977191068118810000007649416315081022110_);" d="M2510.7,2131.7l245.1,11.9
					c3.4,0.2,6.5,2,8.2,4.8l6.8,10.9c3.4,5.4-0.7,12.4-7.1,12.2l-259.6-9.9L2510.7,2131.7z"/>
				
					<linearGradient id="SVGID_00000108279483573187842470000013723984094159653822_" gradientUnits="userSpaceOnUse" x1="-1798.2419" y1="1727.3583" x2="-1622.59" y2="1553.1115" gradientTransform="matrix(1 0 0 -1 4131.0864 3710)">
					<stop  offset="0" style="stop-color:#40447E"/>
					<stop  offset="0.9964" style="stop-color:#3C3B6B"/>
				</linearGradient>
				<path style="fill:url(#SVGID_00000108279483573187842470000013723984094159653822_);" d="M2255.8,1995.2l253.2,4.9
					c7.5,0.1,14.4,4.2,18.1,10.7l87.7,154.3l-267.4-10.7c-7.3-0.3-14-4.3-17.8-10.6l-81.2-135.7
					C2244.8,2002.4,2249.1,1995.1,2255.8,1995.2z"/>
				
					<linearGradient id="SVGID_00000012430924769926046670000007290134689328467333_" gradientUnits="userSpaceOnUse" x1="-1798.241" y1="1727.3588" x2="-1622.5887" y2="1553.1122" gradientTransform="matrix(1 0 0 -1 4131.0864 3710)">
					<stop  offset="0" style="stop-color:#40447E"/>
					<stop  offset="0.9964" style="stop-color:#3C3B6B"/>
				</linearGradient>
				
					<path style="opacity:0.3;fill:url(#SVGID_00000012430924769926046670000007290134689328467333_);enable-background:new    ;" d="
					M2527.1,2010.9c-3.7-6.5-10.6-10.6-18.1-10.7l-5.6-0.1c-0.8,8.2-3.3,15.7-8.3,21.7c-15.6,18.8-41.6,7.2-60.9,27.2
					c-21.2,21.9-1.6,48-20.6,68.4c-20,21.5-52.3,4-89.5,17.7l5.4,8.9c3.8,6.3,10.5,10.3,17.8,10.6l267.4,10.7L2527.1,2010.9z"/>
			</g>
			<g>
				
					<linearGradient id="SVGID_00000021820036140502130000000017238431932370857902_" gradientUnits="userSpaceOnUse" x1="4899.8818" y1="1430.2395" x2="4916.2793" y2="1166.7108" gradientTransform="matrix(-0.9933 -0.1159 0.1159 -0.9933 7595.2222 3887.6287)">
					<stop  offset="0" style="stop-color:#FF9085"/>
					<stop  offset="1" style="stop-color:#FB6FBB"/>
				</linearGradient>
				<path style="fill:url(#SVGID_00000021820036140502130000000017238431932370857902_);" d="M2735.9,2123.5
					c-3.2-8.4-6.4-16.8-9.6-25.3c35.3-9.7,84-24,134-41.8c7.8-2.8,17.1-6.3,20.2-14.5c8.6-23.1-45.8-47.1-67-97.6
					c-19.5-46.7-8.8-111.5,13.9-119.2c47.2-15.9,214.6,192.5,154.8,280.3C2948.5,2155.2,2844.3,2163.1,2735.9,2123.5z"/>
			</g>
			
				<linearGradient id="SVGID_00000117675408260433203600000018307343990004271749_" gradientUnits="userSpaceOnUse" x1="4989.4087" y1="1611.1874" x2="4900.3481" y2="1527.2594" gradientTransform="matrix(-1 0 0 -1 7661.3652 3710)">
				<stop  offset="0" style="stop-color:#FFC444"/>
				<stop  offset="0.9964" style="stop-color:#F36F56"/>
			</linearGradient>
			<path style="fill:url(#SVGID_00000117675408260433203600000018307343990004271749_);" d="M2726.3,2098.3
				c-22.1-11.8-48.6,0.3-50.3,1.1c-4.9,2.3-11.9,6.4-19.1,13.7c-0.8,1.1-10.4,14.4-6.9,18.7c2.8,3.4,13.7,0.6,26.7-7.5
				c5.5-0.8,13.6-1.5,23.4-0.6c17.9,1.7,26.1,7.3,32.6,2.4c4.8-3.6,6.4-11.1,4.7-16.8C2735.5,2103.3,2730.1,2100.3,2726.3,2098.3z"
				/>
		</g>
	</g>
</g>
</svg>
