<?xml version="1.0" encoding="utf-8"?>
<!-- Generator: Adobe Illustrator 26.0.1, SVG Export Plug-In . SVG Version: 6.00 Build 0)  -->
<svg version="1.1" id="Layer_1" xmlns="http://www.w3.org/2000/svg" xmlns:xlink="http://www.w3.org/1999/xlink" x="0px" y="0px"
	 viewBox="0 0 500 500" style="enable-background:new 0 0 500 500;" xml:space="preserve">
<style type="text/css">
	.st0{fill:none;stroke:#0148A2;stroke-width:2.5;stroke-linecap:round;stroke-linejoin:round;stroke-miterlimit:10;}
	.st1{fill:#0148A2;}
	.st2{fill:#A9CCFF;}
	.st3{fill:#75A1F9;}
	.st4{fill:#29354A;}
	.st5{fill:#FC2863;}
	.st6{fill:#FBD131;}
	.st7{fill:#FFFFFF;}
	.st8{fill:#D7EFF5;}
	.st9{fill:#6981F7;}
	.st10{fill:#92A9FC;}
	.st11{font-family:'ArialMT';}
	.st12{font-size:24.1436px;}
	.st13{fill:none;stroke:#FFFFFF;stroke-width:2.5974;stroke-miterlimit:10;}
	.st14{fill:#EBEDEF;}
	.st15{fill:#083273;}
	.st16{fill:none;stroke:#FBD131;stroke-width:3;stroke-linejoin:round;stroke-miterlimit:10;}
	.st17{fill:none;stroke:#FBD131;stroke-width:2.705;stroke-linejoin:round;stroke-miterlimit:10;}
</style>
<g id="Objects">
	<g>
		<g>
			<g>
				<g>
					<polygon class="st0" points="412.8,201.7 389.3,215.2 365.8,201.7 365.8,174.6 389.3,161 412.8,174.6 					"/>
					<line class="st0" x1="412.8" y1="174.6" x2="436.2" y2="161"/>
					<line class="st0" x1="436.2" y1="215.2" x2="412.8" y2="201.7"/>
					<line class="st0" x1="366.9" y1="201.7" x2="343.4" y2="215.2"/>
					<line class="st0" x1="389.3" y1="135.7" x2="389.3" y2="159.3"/>
				</g>
				<g>
					<path class="st1" d="M393.4,161c0,2.3-1.8,4.1-4.1,4.1c-2.3,0-4.1-1.9-4.1-4.1c0-2.3,1.9-4.1,4.1-4.1
						C391.6,156.9,393.4,158.7,393.4,161z"/>
					<path class="st1" d="M393.4,215.2c0,2.3-1.8,4.1-4.1,4.1c-2.3,0-4.1-1.8-4.1-4.1s1.9-4.1,4.1-4.1
						C391.6,211.1,393.4,212.9,393.4,215.2z"/>
					<path class="st1" d="M416.9,174.9c0,2.3-1.8,4.1-4.1,4.1c-2.3,0-4.1-1.9-4.1-4.1c0-2.3,1.8-4.1,4.1-4.1
						C415,170.7,416.9,172.6,416.9,174.9z"/>
					<path class="st1" d="M440.4,161c0,2.3-1.9,4.1-4.1,4.1c-2.3,0-4.1-1.9-4.1-4.1c0-2.3,1.9-4.1,4.1-4.1
						C438.5,156.9,440.4,158.7,440.4,161z"/>
					<path class="st1" d="M393.4,135.7c0,2.3-1.9,4.1-4.1,4.1c-2.3,0-4.1-1.9-4.1-4.1c0-2.3,1.9-4.1,4.1-4.1
						C391.6,131.6,393.4,133.4,393.4,135.7z"/>
					<path class="st1" d="M440.4,215.2c0,2.3-1.9,4.1-4.1,4.1c-2.3,0-4.1-1.8-4.1-4.1s1.9-4.1,4.1-4.1
						C438.5,211.1,440.4,212.9,440.4,215.2z"/>
					<path class="st1" d="M347.6,215.2c0,2.3-1.9,4.1-4.1,4.1s-4.1-1.8-4.1-4.1s1.9-4.1,4.1-4.1S347.6,212.9,347.6,215.2z"/>
					<path class="st1" d="M416.9,201.3c0,2.3-1.8,4.1-4.1,4.1c-2.3,0-4.1-1.9-4.1-4.1c0-2.3,1.8-4.1,4.1-4.1
						C415,197.1,416.9,199,416.9,201.3z"/>
					<path class="st1" d="M370,174.9c0,2.3-1.8,4.1-4.1,4.1c-2.3,0-4.1-1.9-4.1-4.1c0-2.3,1.9-4.1,4.1-4.1
						C368.1,170.7,370,172.6,370,174.9z"/>
					<path class="st1" d="M370,201.3c0,2.3-1.8,4.1-4.1,4.1c-2.3,0-4.1-1.9-4.1-4.1c0-2.3,1.9-4.1,4.1-4.1
						C368.1,197.1,370,199,370,201.3z"/>
				</g>
			</g>
			<g>
				<g>
					<polygon class="st0" points="133.1,377.7 109.6,391.3 86.2,377.7 86.2,350.6 109.6,337.1 133.1,350.6 					"/>
					<line class="st0" x1="133.1" y1="350.6" x2="156.6" y2="337.1"/>
					<line class="st0" x1="156.6" y1="391.3" x2="133.1" y2="377.7"/>
					<line class="st0" x1="87.2" y1="377.7" x2="63.8" y2="391.3"/>
					<line class="st0" x1="109.6" y1="311.8" x2="109.6" y2="335.3"/>
				</g>
				<g>
					<path class="st1" d="M113.8,337.1c0,2.3-1.8,4.1-4.1,4.1c-2.3,0-4.1-1.9-4.1-4.1s1.8-4.1,4.1-4.1
						C111.9,333,113.8,334.8,113.8,337.1z"/>
					<path class="st1" d="M113.8,391.3c0,2.3-1.8,4.1-4.1,4.1c-2.3,0-4.1-1.8-4.1-4.1c0-2.3,1.8-4.1,4.1-4.1
						C111.9,387.1,113.8,389,113.8,391.3z"/>
					<path class="st1" d="M137.2,350.9c0,2.3-1.8,4.1-4.1,4.1c-2.3,0-4.1-1.9-4.1-4.1s1.8-4.1,4.1-4.1
						C135.4,346.8,137.2,348.6,137.2,350.9z"/>
					<path class="st1" d="M160.7,337.1c0,2.3-1.9,4.1-4.1,4.1c-2.3,0-4.1-1.9-4.1-4.1s1.9-4.1,4.1-4.1
						C158.9,333,160.7,334.8,160.7,337.1z"/>
					<path class="st1" d="M113.8,311.8c0,2.3-1.8,4.1-4.1,4.1c-2.3,0-4.1-1.9-4.1-4.1c0-2.3,1.8-4.1,4.1-4.1
						C111.9,307.6,113.8,309.5,113.8,311.8z"/>
					<path class="st1" d="M160.7,391.3c0,2.3-1.9,4.1-4.1,4.1c-2.3,0-4.1-1.8-4.1-4.1c0-2.3,1.9-4.1,4.1-4.1
						C158.9,387.1,160.7,389,160.7,391.3z"/>
					<path class="st1" d="M67.9,391.3c0,2.3-1.8,4.1-4.1,4.1c-2.3,0-4.1-1.8-4.1-4.1c0-2.3,1.8-4.1,4.1-4.1
						C66.1,387.1,67.9,389,67.9,391.3z"/>
					<path class="st1" d="M137.2,377.3c0,2.3-1.8,4.1-4.1,4.1c-2.3,0-4.1-1.9-4.1-4.1s1.8-4.1,4.1-4.1
						C135.4,373.2,137.2,375,137.2,377.3z"/>
					<path class="st1" d="M90.3,350.9c0,2.3-1.8,4.1-4.1,4.1c-2.3,0-4.1-1.9-4.1-4.1s1.8-4.1,4.1-4.1
						C88.5,346.8,90.3,348.6,90.3,350.9z"/>
					<path class="st1" d="M90.3,377.3c0,2.3-1.8,4.1-4.1,4.1c-2.3,0-4.1-1.9-4.1-4.1s1.8-4.1,4.1-4.1
						C88.5,373.2,90.3,375,90.3,377.3z"/>
				</g>
			</g>
		</g>
		<g>
			<path class="st2" d="M350.7,171.2c1.3-5.3-1.5-10.4-6.5-11.6c-2.6-0.6-5.3-0.1-7.6,1.3c0.1-1,0.2-1.9,0.2-3
				c0-12.1-7.6-21.9-16.9-21.9c-7.4,0-13.6,6.1-15.9,14.7c-3-3-6.8-4.7-10.5-4c-6.5,1.1-10.2,8.7-8.3,17c-1.3-0.6-2.7-1-4.1-1
				c-4.8,0-8.7,3.6-9.5,8.4H350.7z"/>
			<path class="st2" d="M140.2,280.2c1.3-5.3-1.5-10.4-6.5-11.6c-2.6-0.6-5.3-0.1-7.6,1.3c0.1-1,0.2-1.9,0.2-3
				c0-12.1-7.6-21.9-16.9-21.9c-7.4,0-13.6,6.1-15.9,14.7c-3-3-6.8-4.7-10.5-4c-6.5,1.1-10.2,8.7-8.3,17c-1.3-0.6-2.7-1-4.1-1
				c-4.8,0-8.7,3.6-9.5,8.4H140.2z"/>
			<path class="st2" d="M428.1,395.9c1.3-5.3-1.5-10.4-6.5-11.6c-2.6-0.6-5.3-0.1-7.6,1.3c0.1-1,0.2-1.9,0.2-3
				c0-12.1-7.6-21.9-16.9-21.9c-7.4,0-13.6,6.1-15.9,14.7c-3-3-6.8-4.7-10.5-4c-6.5,1.1-10.2,8.7-8.3,17c-1.3-0.6-2.7-1-4.1-1
				c-4.8,0-8.7,3.6-9.5,8.4L428.1,395.9L428.1,395.9z"/>
			<path class="st2" d="M226.6,117.1c1.3-5.3-1.5-10.4-6.5-11.6c-2.6-0.6-5.3-0.1-7.6,1.3c0.1-1,0.2-1.9,0.2-3
				c0-12.1-7.6-21.9-16.9-21.9c-7.4,0-13.6,6.1-15.9,14.7c-3-3-6.8-4.7-10.5-4c-6.5,1.1-10.2,8.7-8.3,17c-1.3-0.6-2.7-1-4.1-1
				c-4.8,0-8.7,3.6-9.5,8.4H226.6z"/>
		</g>
		<g>
			<path class="st2" d="M363.9,128.2c0,3.5-2.8,6.3-6.3,6.3c-3.5,0-6.3-2.8-6.3-6.3c0-3.5,2.8-6.3,6.3-6.3
				C361.1,122,363.9,124.8,363.9,128.2z"/>
			<path class="st2" d="M432.4,332.2c0,3.5-2.8,6.3-6.3,6.3c-3.5,0-6.3-2.8-6.3-6.3c0-3.5,2.8-6.3,6.3-6.3
				C429.6,326,432.4,328.8,432.4,332.2z"/>
			<path class="st2" d="M80.1,191.2c0,3.5-2.8,6.3-6.3,6.3c-3.5,0-6.3-2.8-6.3-6.3s2.8-6.3,6.3-6.3C77.3,185,80.1,187.8,80.1,191.2z
				"/>
			<path class="st2" d="M80.1,323.7c0,3.5-2.8,6.3-6.3,6.3c-3.5,0-6.3-2.8-6.3-6.3s2.8-6.3,6.3-6.3
				C77.3,317.5,80.1,320.3,80.1,323.7z"/>
			<path class="st2" d="M178.1,147.5c0,2.2-1.8,4-4,4c-2.2,0-4-1.8-4-4c0-2.2,1.8-4,4-4C176.3,143.5,178.1,145.3,178.1,147.5z"/>
			<path class="st2" d="M100.8,228.4c0,2.2-1.8,4-4,4c-2.2,0-4-1.8-4-4c0-2.2,1.8-4,4-4C99,224.4,100.8,226.1,100.8,228.4z"/>
			<path class="st2" d="M187.4,385.8c0,2.2-1.8,4-4,4c-2.2,0-4-1.8-4-4c0-2.2,1.8-4,4-4C185.7,381.8,187.4,383.6,187.4,385.8z"/>
			<path class="st2" d="M331.4,393.3c0,2.2-1.8,4-4,4c-2.2,0-4-1.8-4-4c0-2.2,1.8-4,4-4C329.6,389.4,331.4,391.1,331.4,393.3z"/>
			<path class="st2" d="M414.4,256.7c0,2.2-1.8,4-4,4c-2.2,0-4-1.8-4-4c0-2.2,1.8-4,4-4C412.6,252.7,414.4,254.5,414.4,256.7z"/>
			<path class="st2" d="M289.9,103.6c0,2.2-1.8,4-4,4c-2.2,0-4-1.8-4-4c0-2.2,1.8-4,4-4C288.1,99.6,289.9,101.4,289.9,103.6z"/>
		</g>
		<path class="st3" d="M441.4,418.5c0,4.9-3.4,8.8-7.7,8.8H66.3c-4.3,0-7.7-3.9-7.7-8.8l0,0c0-4.9,3.5-8.8,7.7-8.8h367.4
			C437.9,409.7,441.4,413.7,441.4,418.5L441.4,418.5z"/>
		<g>
			<path class="st4" d="M420.8,310.2V297h-8.4c-0.5-2-1.3-3.8-2.3-5.5l6-6l-9.3-9.3l-6,6c-1.7-1-3.6-1.8-5.5-2.3v-8.5h-13.1v8.5
				c-2,0.5-3.8,1.3-5.5,2.3l-6-6l-9.3,9.3l6,6c-1,1.7-1.8,3.6-2.3,5.5h-8.4v13.1h8.4c0.5,2,1.3,3.8,2.3,5.6l-6,6l9.3,9.3l6-6
				c1.7,1,3.6,1.8,5.6,2.3v8.4h13.1v-8.4c2-0.5,3.8-1.3,5.6-2.3l5.9,6l9.3-9.3l-6-6c1-1.7,1.8-3.6,2.3-5.6L420.8,310.2L420.8,310.2z
				 M388.7,315.3c-6.4,0-11.7-5.2-11.7-11.7c0-6.4,5.2-11.7,11.7-11.7c6.4,0,11.7,5.2,11.7,11.7
				C400.3,310.1,395.1,315.3,388.7,315.3z"/>
			<path class="st4" d="M363.5,117.7v-13.1h-8.4c-0.5-2-1.3-3.8-2.3-5.5l6-6l-9.3-9.3l-6,6c-1.7-1-3.6-1.8-5.5-2.3V79h-13.1v8.5
				c-2,0.5-3.8,1.3-5.5,2.3l-6-6L304,93l6,6c-1,1.7-1.8,3.6-2.3,5.5h-8.4v13.1h8.4c0.5,2,1.3,3.8,2.3,5.6l-6,6l9.3,9.3l6-5.9
				c1.7,1,3.6,1.8,5.6,2.3v8.4H338v-8.4c2-0.5,3.8-1.3,5.6-2.3l5.9,5.9l9.3-9.3l-6-6c1-1.7,1.8-3.6,2.3-5.6H363.5z M331.4,122.8
				c-6.4,0-11.7-5.2-11.7-11.7c0-6.4,5.2-11.7,11.7-11.7c6.4,0,11.7,5.2,11.7,11.7C343,117.6,337.8,122.8,331.4,122.8z"/>
			<path class="st4" d="M143.4,244.1V231H135c-0.5-2-1.3-3.8-2.3-5.5l6-6l-9.3-9.3l-6,6c-1.7-1-3.6-1.8-5.5-2.3v-8.5h-13.1v8.5
				c-2,0.5-3.8,1.3-5.5,2.3l-6-6l-9.3,9.3l6,6c-1,1.7-1.8,3.6-2.3,5.5h-8.4v13.1h8.4c0.5,2,1.3,3.8,2.3,5.6l-6,6l9.3,9.3l6-6
				c1.7,1,3.6,1.8,5.6,2.3v8.4h13.1v-8.4c2-0.5,3.8-1.3,5.6-2.3l5.9,6l9.3-9.3l-6-6c1-1.7,1.8-3.6,2.3-5.6L143.4,244.1L143.4,244.1z
				 M111.3,249.2c-6.4,0-11.7-5.2-11.7-11.7c0-6.4,5.2-11.7,11.7-11.7c6.4,0,11.7,5.2,11.7,11.7C122.9,244,117.7,249.2,111.3,249.2z
				"/>
		</g>
		<g>
			<g>
				<rect x="83.2" y="145.7" class="st5" width="14.8" height="19.9"/>
				<rect x="105.3" y="135.7" class="st5" width="14.8" height="29.9"/>
				<rect x="126.6" y="125.2" class="st5" width="14.8" height="40.3"/>
			</g>
			<g>
				<polygon class="st6" points="140.4,99.9 129,101.5 132.1,104.7 115.3,118.5 106.8,111 83.2,130.4 85.2,132.7 106.7,115 
					115.2,122.6 134.3,106.8 138.1,110.6 				"/>
				<path class="st6" d="M88.5,131.5c0,2.4-1.9,4.3-4.3,4.3c-2.4,0-4.3-1.9-4.3-4.3s1.9-4.3,4.3-4.3
					C86.6,127.2,88.5,129.2,88.5,131.5z"/>
				<path class="st6" d="M110.9,113.6c0,2.4-1.9,4.3-4.3,4.3c-2.4,0-4.3-1.9-4.3-4.3c0-2.4,1.9-4.3,4.3-4.3
					C109,109.3,110.9,111.2,110.9,113.6z"/>
				<path class="st6" d="M119.7,119.9c0,2.4-1.9,4.3-4.3,4.3c-2.4,0-4.3-1.9-4.3-4.3c0-2.4,1.9-4.3,4.3-4.3
					C117.8,115.6,119.7,117.5,119.7,119.9z"/>
			</g>
		</g>
		<g>
			<g>
				<g>
					<g>
						<rect x="202.1" y="376.7" class="st7" width="95.3" height="24.3"/>
						<rect x="202.1" y="376.7" class="st8" width="95.3" height="8.1"/>
						<path class="st8" d="M201.3,401h97c11.4,0,20.6,7.8,20.6,17.5H180.7C180.7,408.8,189.9,401,201.3,401z"/>
					</g>
					<g>
						<path class="st7" d="M116.2,376.7h267.6c2.7,0,4.9-2.2,4.9-4.9V189.9c0-2.7-2.2-4.9-4.9-4.9H116.2c-2.7,0-4.9,2.2-4.9,4.9
							v181.9C111.3,374.5,113.5,376.7,116.2,376.7z"/>
						<path class="st4" d="M119.1,346.3h261.9c2.7,0,4.9-2.2,4.9-4.9V192.3c0-2.7-2.2-4.9-4.9-4.9H119.1c-2.7,0-4.9,2.2-4.9,4.9
							v149.1C114.2,344.1,116.4,346.3,119.1,346.3z"/>
						<path class="st9" d="M130.1,331.9h239.8c2.3,0,4.3-1.9,4.3-4.3V206c0-2.4-1.9-4.3-4.3-4.3H130.1c-2.3,0-4.3,1.9-4.3,4.3v121.7
							C125.8,330,127.7,331.9,130.1,331.9z"/>
						<path class="st8" d="M256.4,361c0,3.7-3,6.7-6.7,6.7c-3.7,0-6.7-3-6.7-6.7s3-6.7,6.7-6.7C253.5,354.3,256.4,357.3,256.4,361z"
							/>
					</g>
				</g>
				<g>
					<text transform="matrix(1 0 0 1 136.7734 323.7144)" class="st10 st11 st12">0101001101100110101</text>
					<text transform="matrix(1 0 0 1 136.7734 228.3823)" class="st10 st11 st12">0101001101100110101</text>
					<text transform="matrix(1 0 0 1 136.7734 291.1528)" class="st10 st11 st12">1101010101001101100</text>
					<text transform="matrix(1 0 0 1 136.7734 259.8169)" class="st10 st11 st12">1010011001010101011</text>
				</g>
			</g>
			<g>
				<path class="st4" d="M324.6,211.4c0,41.2-33.4,74.6-74.6,74.6s-74.6-33.4-74.6-74.6c0-41.2,33.4-74.6,74.6-74.6
					C291.2,136.7,324.6,170.1,324.6,211.4z"/>
				<g>
					<g>
						<path class="st13" d="M268,211.1c0,28.5-8.1,51.5-18,51.5s-18-23.1-18-51.5c0-28.5,8.1-51.5,18-51.5
							C260,159.6,268,182.7,268,211.1z"/>
						<path class="st13" d="M262.8,200.5c24.1,20.1,37.9,41.2,30.9,47.1c-7,5.9-32.3-5.7-56.4-25.8s-37.9-41.2-30.9-47.1
							C213.4,168.8,238.7,180.3,262.8,200.5z"/>
						<path class="st13" d="M237.2,200.5c-24.1,20.1-37.9,41.2-30.9,47.1c7,5.9,32.3-5.7,56.4-25.8c24.1-20.1,37.9-41.2,30.9-47.1
							C286.6,168.8,261.3,180.3,237.2,200.5z"/>
					</g>
					<path class="st6" d="M259,211.1c0,5-4,9-9,9c-5,0-9-4-9-9c0-5,4-9,9-9C255,202.1,259,206.1,259,211.1z"/>
					<g>
						<path class="st5" d="M279.2,176.3c0,2.1-1.7,3.8-3.8,3.8c-2.1,0-3.8-1.7-3.8-3.8c0-2.1,1.7-3.8,3.8-3.8
							C277.5,172.4,279.2,174.2,279.2,176.3z"/>
						<path class="st5" d="M217,197.9c0,2.1-1.7,3.8-3.8,3.8s-3.8-1.7-3.8-3.8s1.7-3.8,3.8-3.8S217,195.8,217,197.9z"/>
						<path class="st5" d="M262.3,256.7c0,2.1-1.7,3.8-3.8,3.8c-2.1,0-3.8-1.7-3.8-3.8c0-2.1,1.7-3.8,3.8-3.8
							C260.6,252.8,262.3,254.5,262.3,256.7z"/>
					</g>
				</g>
			</g>
			<g>
				<path class="st14" d="M438.3,359.4H289.6c-0.6,0-1.1-0.5-1.1-1.1v-53.7c0-0.6,0.5-1.1,1.1-1.1h148.7c0.6,0,1.1,0.5,1.1,1.1v53.7
					C439.3,359,438.9,359.4,438.3,359.4z"/>
				<path class="st1" d="M436.4,357.5h-145c-0.5,0-1-0.4-1-1v-50c0-0.5,0.4-1,1-1h145c0.5,0,1,0.4,1,1v50
					C437.4,357.1,437,357.5,436.4,357.5z"/>
				<path class="st14" d="M288.6,304.7v14.5h150.8v-14.5c0-0.6-0.5-1.1-1.1-1.1H289.6C289,303.6,288.6,304.1,288.6,304.7z"/>
				<g>
					<path class="st6" d="M419,311.4c0,1-0.8,1.9-1.9,1.9c-1,0-1.9-0.8-1.9-1.9c0-1,0.8-1.9,1.9-1.9
						C418.2,309.6,419,310.4,419,311.4z"/>
					<path class="st6" d="M426.4,311.4c0,1-0.8,1.9-1.9,1.9c-1,0-1.9-0.8-1.9-1.9c0-1,0.8-1.9,1.9-1.9
						C425.5,309.6,426.4,310.4,426.4,311.4z"/>
					<path class="st6" d="M433.7,311.4c0,1-0.8,1.9-1.9,1.9c-1,0-1.9-0.8-1.9-1.9c0-1,0.8-1.9,1.9-1.9
						C432.9,309.6,433.7,310.4,433.7,311.4z"/>
				</g>
				<g>
					<rect x="347.4" y="328.9" class="st5" width="22.9" height="3.3"/>
					<rect x="375.8" y="328.9" class="st9" width="25.8" height="3.3"/>
					<rect x="375.8" y="336.3" class="st9" width="36.7" height="3.3"/>
					<rect x="407.2" y="328.9" class="st15" width="13.2" height="3.3"/>
					<rect x="347.4" y="343.6" class="st9" width="22.9" height="3.3"/>
					<rect x="375.8" y="343.6" class="st5" width="21.6" height="3.3"/>
					<rect x="401.6" y="343.6" class="st6" width="27" height="3.3"/>
					<rect x="347.4" y="336.3" class="st15" width="22.9" height="3.3"/>
				</g>
				<g>
					<polyline class="st16" points="329.1,345.8 337,337.9 329.1,330.1 					"/>
					<polyline class="st16" points="306.2,345.8 298.4,337.9 306.2,330.1 					"/>
					<line class="st16" x1="321.6" y1="330.1" x2="313.5" y2="346.5"/>
				</g>
			</g>
			<g>
				<path class="st14" d="M131.6,325.5H59.7c-0.6,0-1.1-0.5-1.1-1.1v-53.7c0-0.6,0.5-1.1,1.1-1.1h71.9c0.6,0,1.1,0.5,1.1,1.1v53.7
					C132.6,325,132.1,325.5,131.6,325.5z"/>
				<path class="st1" d="M129.7,323.6H61.5c-0.5,0-1-0.4-1-1v-50c0-0.5,0.4-1,1-1h68.2c0.5,0,1,0.4,1,1v50
					C130.7,323.1,130.3,323.6,129.7,323.6z"/>
				<path class="st14" d="M58.6,270.7v14.5h74v-14.5c0-0.6-0.5-1.1-1.1-1.1H59.7C59.1,269.7,58.6,270.2,58.6,270.7z"/>
				<g>
					<path class="st6" d="M112.3,277.5c0,1-0.8,1.9-1.9,1.9c-1,0-1.9-0.8-1.9-1.9c0-1,0.8-1.9,1.9-1.9
						C111.4,275.6,112.3,276.5,112.3,277.5z"/>
					<path class="st6" d="M119.6,277.5c0,1-0.8,1.9-1.9,1.9c-1,0-1.9-0.8-1.9-1.9c0-1,0.8-1.9,1.9-1.9
						C118.8,275.6,119.6,276.5,119.6,277.5z"/>
					<path class="st6" d="M127,277.5c0,1-0.8,1.9-1.9,1.9c-1,0-1.9-0.8-1.9-1.9c0-1,0.8-1.9,1.9-1.9
						C126.1,275.6,127,276.5,127,277.5z"/>
				</g>
				<g>
					<rect x="69.1" y="295" class="st9" width="25.8" height="3.3"/>
					<rect x="69.1" y="302.4" class="st9" width="36.7" height="3.3"/>
					<rect x="100.5" y="295" class="st15" width="13.2" height="3.3"/>
					<rect x="69.1" y="309.7" class="st5" width="21.6" height="3.3"/>
					<rect x="94.9" y="309.7" class="st6" width="27" height="3.3"/>
				</g>
			</g>
		</g>
		<g>
			<path class="st14" d="M244.1,126.8H192c-0.6,0-1-0.5-1-1V73.7c0-0.6,0.5-1,1-1h52.1c0.6,0,1,0.5,1,1v52.1
				C245.2,126.4,244.7,126.8,244.1,126.8z"/>
			<path class="st1" d="M242,124.7h-48c-0.5,0-0.9-0.4-0.9-0.9v-48c0-0.5,0.4-0.9,0.9-0.9h48c0.5,0,0.9,0.4,0.9,0.9v48
				C243,124.2,242.6,124.7,242,124.7z"/>
			<path class="st14" d="M191,73.7v14.1h54.2V73.7c0-0.6-0.5-1-1-1H192C191.4,72.7,191,73.1,191,73.7z"/>
			<g>
				<path class="st6" d="M225.4,80.2c0,1-0.8,1.8-1.8,1.8c-1,0-1.8-0.8-1.8-1.8c0-1,0.8-1.8,1.8-1.8
					C224.6,78.4,225.4,79.2,225.4,80.2z"/>
				<path class="st6" d="M232.5,80.2c0,1-0.8,1.8-1.8,1.8c-1,0-1.8-0.8-1.8-1.8c0-1,0.8-1.8,1.8-1.8
					C231.7,78.4,232.5,79.2,232.5,80.2z"/>
				<path class="st6" d="M239.7,80.2c0,1-0.8,1.8-1.8,1.8c-1,0-1.8-0.8-1.8-1.8c0-1,0.8-1.8,1.8-1.8
					C238.9,78.4,239.7,79.2,239.7,80.2z"/>
			</g>
			<g>
				<polyline class="st17" points="227.4,112.6 233.7,106.3 227.4,100.1 				"/>
				<polyline class="st17" points="209.2,112.6 203,106.3 209.2,100.1 				"/>
				<line class="st17" x1="221.4" y1="100.1" x2="215.1" y2="113.2"/>
			</g>
		</g>
	</g>
</g>
</svg>
