<?xml version="1.0" encoding="utf-8"?>
<!-- Generator: Adobe Illustrator 26.0.1, SVG Export Plug-In . SVG Version: 6.00 Build 0)  -->
<svg version="1.1" id="Layer_1" xmlns="http://www.w3.org/2000/svg" xmlns:xlink="http://www.w3.org/1999/xlink" x="0px" y="0px"
	 viewBox="0 0 500 500" style="enable-background:new 0 0 500 500;" xml:space="preserve">
<style type="text/css">
	.st0{fill:#DFE6EE;}
	.st1{fill:#4C5980;}
	.st2{fill:#7991D1;}
	.st3{fill:#D66EC0;}
	.st4{fill:#FFFFFF;}
	.st5{fill:#FFD075;}
	.st6{fill:#EBA7DC;}
	.st7{fill:#BFCAD4;}
	.st8{fill:#A1B0BA;}
	.st9{fill:#313B59;}
	.st10{fill:#B345B5;}
	.st11{fill:#EB9921;}
	.st12{fill:#FFBB39;}
</style>
<g id="OBJECTS">
	<path class="st0" d="M462.6,273.5c-2.6-20.6-9.9-40.6-21.5-57.8c-22.3-33.3-53.6-58-80.2-87.2c-24.5-27-47.4-56.7-82.1-69.5
		c-41.6-15.4-87.9-1.8-117.7,31.7c-28.9,32.4-43.4,75.3-69,110.2c-20.8,28.3-47.5,57.4-48.3,95.2c-0.8,34.8,18.8,65.8,43.9,86.9
		c40.2,33.8,90.7,44.8,140.9,48.8c67.3,5.4,146.5,0.8,198.1-51.1C454,353.2,467.5,312.9,462.6,273.5z"/>
	<g>
		<path class="st1" d="M285.4,263.9c0-3.8-0.4-7.5-0.6-11.3c-0.3-3.6-0.6-7.2-1.1-10.8c-0.5-3.7-0.8-7.5-1.4-11.2
			c-0.6-3.7-1.2-7.5-1.8-11.2c-1.3-7.3-2.7-14.5-4.4-21.6c-1.4-6-3.5-12.5-8.4-16.5c-4.6-3.8-10.8-4.1-16-1.3
			c-5.7,2.9-9.2,8.7-11.5,14.4c-2.7,6.5-4.6,13.4-5.7,20.3c-1.1,6.9-1.7,13.9-2.2,20.9c-0.5,6.9-1.2,13.8-1.3,20.8
			c-0.1,7.1-0.2,14.2,0,21.3c0.1,6.9,0.7,13.8,1.5,20.6c0.7,6.7,1.8,13.5,3.6,20.1c1.8,6.7,3.8,13.3,6.4,19.7c1,2.5,2.1,5.3,3.5,7.9
			c0.7,1.6,1.7,3.1,2.9,4.2c1.1,1.1,2.3,2.1,3.7,2.7c1.6,0.7,3.2,1,4.8,0.7c5.3,0.2,10.3-2.7,13.8-6.4c4.6-4.8,6.6-11,8.1-17.2
			c1.8-7.1,3.1-14.3,4-21.6c0.9-7.4,1.6-14.8,1.9-22.2C285.7,278.6,285.4,271.2,285.4,263.9z M281.6,293.3
			c-0.4,6.9-1.1,13.9-2.1,20.8c-1,6.7-1.7,13.5-3.6,19.9c-1.7,5.7-4.5,11.4-9.3,15.1c-4.4,3.3-10.2,4-15,1.4c-0.5-0.3-1-0.6-1.5-0.9
			c-1.9-2.2-3.1-5-4.2-7.6c-2.4-5.9-4.4-12-5.9-18.2c-3.1-12.4-4.8-25.2-5.5-38c-0.7-13.1-0.4-26.2,0.3-39.3
			c0.3-6.5,0.8-12.9,1.2-19.4c0.4-6.6,1.1-13.2,2.4-19.8c0.6-3.3,1.3-6.4,2.4-9.6c1.1-3,2.3-6,4-8.8c3.2-5.2,8.4-9.7,14.9-9.5
			c6.3,0.2,10.5,5.8,12.4,11.2c1.1,3.1,1.6,6.3,2.3,9.4c0.7,3.4,1.3,6.8,1.9,10.2c2.5,13.8,4.1,27.7,5.2,41.6
			c0.5,6.9,0.8,13.8,0.9,20.6C282.3,279.6,282.1,286.5,281.6,293.3z"/>
		<path class="st1" d="M271.1,241.8c-3.2-2-6.6-3.7-9.9-5.5c-3.2-1.7-6.4-3.3-9.7-4.9c-3.4-1.6-6.8-3.3-10.2-4.8
			c-3.5-1.5-6.9-3-10.4-4.4c-6.8-2.8-13.7-5.4-20.6-7.8c-5.8-2-12.4-3.7-18.5-1.7c-5.7,1.9-9.2,6.9-9.7,12.8
			c-0.6,6.4,2.5,12.4,6,17.5c4,5.8,8.9,11,14.2,15.6c5.3,4.6,10.9,8.9,16.6,13c5.6,4.1,11.1,8.4,16.9,12.2c5.9,3.9,11.9,7.7,18,11.4
			c5.9,3.6,12,6.7,18.2,9.8c6.1,3,12.4,5.7,18.9,7.7c6.6,2,13.2,3.9,20.1,5.1c2.6,0.5,5.6,1.1,8.5,1.3c1.8,0.3,3.5,0.2,5.1-0.2
			c1.5-0.3,3-0.8,4.3-1.7c1.4-0.9,2.5-2.2,3.2-3.7c3-4.3,3.2-10.1,1.9-15.1c-1.6-6.4-5.8-11.4-10.2-16.1c-5.1-5.3-10.4-10.3-16.1-15
			c-5.8-4.7-11.7-9.2-17.8-13.5C283.7,249.4,277.3,245.8,271.1,241.8z M293.9,260.7c5.6,4.1,11.2,8.3,16.4,12.9
			c5.1,4.4,10.5,8.6,14.9,13.7c3.9,4.5,7.3,9.9,7.8,15.9c0.5,5.4-2,10.7-6.8,13.5c-0.5,0.3-1,0.6-1.6,0.8c-2.9,0.5-5.9,0-8.7-0.5
			c-6.3-1.1-12.5-2.7-18.5-4.7c-12.2-4-23.9-9.4-35-15.7c-11.5-6.4-22.3-13.7-33.1-21.2c-5.3-3.7-10.5-7.6-15.8-11.4
			c-5.4-3.9-10.6-8-15.4-12.6c-2.4-2.3-4.7-4.5-6.8-7.1c-2-2.5-3.9-5.2-5.3-8.1c-2.7-5.5-3.7-12.3-0.1-17.7
			c3.6-5.2,10.5-5.8,16.1-4.5c3.2,0.7,6.2,2,9.2,3.1c3.2,1.3,6.4,2.6,9.6,3.8c13,5.2,25.6,11.3,38,17.9c6.1,3.2,12.1,6.7,17.9,10.2
			C282.7,252.8,288.4,256.7,293.9,260.7z"/>
		<path class="st1" d="M226.8,253.6c-6.1,4.2-12,8.7-17.8,13.5c-5.7,4.7-11,9.6-16.1,15c-4.5,4.7-8.6,9.7-10.2,16.1
			c-1.3,5-1,10.8,1.9,15.1c0.6,1.5,1.8,2.8,3.2,3.7c1.3,0.9,2.8,1.4,4.3,1.7c1.6,0.4,3.3,0.5,5.1,0.2c2.9-0.2,5.9-0.8,8.5-1.3
			c6.8-1.2,13.5-3,20.1-5.1c6.5-2,12.8-4.7,18.9-7.7c6.2-3,12.3-6.2,18.2-9.8c6.1-3.7,12-7.5,18-11.4c5.8-3.8,11.3-8.1,16.9-12.2
			c5.7-4.1,11.3-8.4,16.6-13c5.3-4.6,10.1-9.9,14.2-15.6c3.6-5.1,6.6-11.1,6-17.5c-0.5-5.9-4-10.9-9.7-12.8
			c-6.1-2-12.7-0.3-18.5,1.7c-7,2.4-13.8,5-20.6,7.8c-3.5,1.4-7,2.9-10.4,4.4c-3.4,1.5-6.8,3.2-10.2,4.8c-3.3,1.5-6.5,3.2-9.7,4.9
			c-3.3,1.8-6.7,3.5-9.9,5.5C239.3,245.8,232.9,249.4,226.8,253.6z M239.7,249.3c5.9-3.6,11.9-7,17.9-10.2c12.3-6.6,25-12.6,38-17.9
			c3.2-1.3,6.4-2.6,9.6-3.8c3-1.2,6-2.4,9.2-3.1c5.6-1.3,12.6-0.7,16.1,4.5c3.7,5.3,2.6,12.2-0.1,17.7c-1.4,2.9-3.3,5.5-5.3,8.1
			c-2.1,2.6-4.4,4.8-6.8,7.1c-4.8,4.6-10.1,8.7-15.4,12.6c-5.2,3.8-10.5,7.7-15.8,11.4c-10.7,7.5-21.6,14.8-33.1,21.2
			c-11.2,6.2-22.9,11.7-35,15.7c-6.1,2-12.3,3.6-18.5,4.7c-2.8,0.5-5.8,1-8.7,0.5c-0.5-0.2-1.1-0.5-1.6-0.8c-4.8-2.7-7.3-8-6.8-13.5
			c0.5-6.1,3.9-11.5,7.8-15.9c4.5-5.1,9.8-9.3,14.9-13.7c5.3-4.5,10.8-8.8,16.4-12.9C228.2,256.7,233.9,252.8,239.7,249.3z"/>
		<path class="st2" d="M331.9,288c0-0.2,0-0.3,0-0.5c0-0.1,0-0.1,0-0.2c-0.1-0.5-0.1-1-0.2-1.5c-0.1-0.5-0.3-0.9-0.6-1.4
			c-0.3-0.4-0.6-0.8-0.9-1.2c-0.7-0.7-1.6-1.2-2.6-1.5c-0.5-0.1-1.1-0.2-1.6-0.2c0,0,0,0-0.1,0c-0.5,0-1.1,0.1-1.6,0.2
			c0,0,0,0-0.1,0c-0.5,0.2-1,0.4-1.5,0.6c0,0,0,0,0,0c-0.4,0.3-0.8,0.6-1.2,1c0,0,0,0,0,0c-0.3,0.4-0.6,0.8-1,1.2
			c-0.2,0.5-0.4,1-0.6,1.5c-0.1,0.5-0.1,1.1-0.2,1.6c0.1,0.5,0.1,1.1,0.2,1.6l0.6,1.5c0.3,0.4,0.6,0.8,1,1.2c0.4,0.3,0.8,0.6,1.2,1
			c0.7,0.4,1.5,0.7,2.3,0.7c0.5,0.1,1.1,0.1,1.6,0c0.6,0,1.1-0.1,1.5-0.4c0.5-0.1,1-0.4,1.4-0.8c0.5-0.3,0.8-0.6,1.1-1.1
			c0.4-0.4,0.6-0.8,0.8-1.4c0.3-0.5,0.4-1,0.4-1.5c0-0.1,0-0.1,0-0.2C331.9,288.2,331.9,288.1,331.9,288z"/>
		<path class="st2" d="M192.1,240.2c0-0.1,0-0.2,0-0.3c0-0.1,0-0.1,0-0.2c-0.1-0.4-0.1-0.7-0.1-1.1c-0.1-0.3-0.2-0.7-0.4-1
			c-0.2-0.3-0.4-0.6-0.7-0.9c-0.5-0.5-1.1-0.9-1.9-1.1c-0.4-0.1-0.8-0.1-1.2-0.2c0,0,0,0,0,0c-0.4,0-0.8,0.1-1.2,0.2c0,0,0,0,0,0
			c-0.4,0.1-0.7,0.3-1.1,0.5c0,0,0,0,0,0c-0.3,0.2-0.6,0.5-0.9,0.7c0,0,0,0,0,0c-0.2,0.3-0.5,0.6-0.7,0.9c-0.1,0.4-0.3,0.7-0.4,1.1
			c-0.1,0.4-0.1,0.8-0.2,1.2c0.1,0.4,0.1,0.8,0.2,1.2l0.4,1.1c0.2,0.3,0.5,0.6,0.7,0.9c0.3,0.2,0.6,0.5,0.9,0.7
			c0.5,0.3,1.1,0.5,1.6,0.5c0.4,0.1,0.8,0.1,1.2,0c0.4,0,0.8-0.1,1.1-0.3c0.4-0.1,0.7-0.3,1-0.6c0.3-0.2,0.6-0.5,0.8-0.8
			c0.3-0.3,0.5-0.6,0.6-1c0.2-0.3,0.3-0.7,0.3-1.1c0,0,0-0.1,0-0.1C192.1,240.3,192.1,240.2,192.1,240.2z"/>
		<path class="st2" d="M274.4,267.6c0-0.4,0.1-0.8,0.1-1.2c0-0.2,0-0.3,0-0.5c-0.2-1.3-0.4-2.7-0.5-4c-0.4-1.3-0.9-2.5-1.5-3.6
			c-0.8-1-1.6-2.1-2.4-3.1c-1.9-1.9-4.1-3.2-6.7-3.9c-1.4-0.2-2.8-0.5-4.2-0.6c-0.1,0-0.1,0-0.2,0c-1.4,0.1-2.8,0.3-4.3,0.6
			c0,0-0.1,0-0.1,0c-1.3,0.4-2.6,1-3.9,1.6c0,0-0.1,0-0.1,0.1c-1.1,0.8-2.2,1.6-3.3,2.5c0,0,0,0-0.1,0.1c-0.8,1.1-1.7,2.2-2.5,3.2
			c-0.5,1.3-1.1,2.5-1.6,3.8c-0.2,1.4-0.4,2.8-0.6,4.2c0.2,1.4,0.4,2.8,0.6,4.2l1.6,3.8c0.8,1.1,1.7,2.2,2.5,3.2
			c1.1,0.8,2.2,1.7,3.2,2.5c1.8,1.2,3.8,1.8,5.9,1.9c1.4,0.4,2.8,0.4,4.2,0c1.4,0,2.8-0.4,4-1.1c1.4-0.4,2.5-1.1,3.5-2.1
			c1.2-0.7,2.2-1.7,2.9-2.9c1-1,1.7-2.2,2.1-3.5c0.7-1.2,1.1-2.6,1.1-4c0-0.2,0-0.3,0.1-0.5C274.3,268.1,274.3,267.8,274.4,267.6z"
			/>
		<path class="st2" d="M280.3,336.7c0-0.1,0-0.2,0-0.3c0-0.1,0-0.1,0-0.2c-0.1-0.4-0.1-0.8-0.2-1.1c-0.1-0.4-0.3-0.7-0.4-1
			c-0.2-0.3-0.4-0.6-0.7-0.9c-0.5-0.5-1.2-0.9-1.9-1.1c-0.4-0.1-0.8-0.1-1.2-0.2c0,0,0,0,0,0c-0.4,0-0.8,0.1-1.2,0.2c0,0,0,0,0,0
			c-0.4,0.1-0.7,0.3-1.1,0.5c0,0,0,0,0,0c-0.3,0.2-0.6,0.5-0.9,0.7c0,0,0,0,0,0c-0.2,0.3-0.5,0.6-0.7,0.9c-0.2,0.4-0.3,0.7-0.5,1.1
			c-0.1,0.4-0.1,0.8-0.2,1.2c0.1,0.4,0.1,0.8,0.2,1.2l0.5,1.1c0.2,0.3,0.5,0.6,0.7,0.9c0.3,0.2,0.6,0.5,0.9,0.7
			c0.5,0.3,1.1,0.5,1.7,0.5c0.4,0.1,0.8,0.1,1.2,0c0.4,0,0.8-0.1,1.1-0.3c0.4-0.1,0.7-0.3,1-0.6c0.3-0.2,0.6-0.5,0.8-0.8
			c0.3-0.3,0.5-0.6,0.6-1c0.2-0.4,0.3-0.7,0.3-1.1c0,0,0-0.1,0-0.1C280.3,336.9,280.3,336.8,280.3,336.7z"/>
		<path class="st2" d="M248.2,194c0-0.2,0-0.4,0-0.5c0-0.1,0-0.2,0-0.2c-0.1-0.6-0.2-1.2-0.2-1.8c-0.2-0.6-0.4-1.1-0.7-1.6
			c-0.3-0.5-0.7-0.9-1.1-1.4c-0.8-0.8-1.8-1.4-3-1.7c-0.6-0.1-1.2-0.2-1.9-0.3c0,0,0,0-0.1,0c-0.6,0-1.3,0.1-1.9,0.3c0,0,0,0-0.1,0
			c-0.6,0.2-1.2,0.5-1.7,0.7c0,0,0,0-0.1,0c-0.5,0.3-1,0.7-1.5,1.1c0,0,0,0,0,0c-0.4,0.5-0.7,1-1.1,1.4c-0.2,0.6-0.5,1.1-0.7,1.7
			c-0.1,0.6-0.2,1.3-0.3,1.9c0.1,0.6,0.2,1.3,0.3,1.9l0.7,1.7c0.4,0.5,0.7,1,1.1,1.4c0.5,0.4,1,0.7,1.4,1.1c0.8,0.5,1.7,0.8,2.6,0.8
			c0.6,0.2,1.3,0.2,1.9,0c0.6,0,1.2-0.2,1.8-0.5c0.6-0.2,1.1-0.5,1.6-0.9c0.5-0.3,1-0.7,1.3-1.3c0.4-0.4,0.7-1,0.9-1.6
			c0.3-0.6,0.5-1.2,0.5-1.8c0-0.1,0-0.1,0-0.2C248.1,194.3,248.1,194.1,248.2,194z"/>
	</g>
	<g>
		<path class="st3" d="M146.5,124.9c0-1.8-0.1-3.5-0.1-5.3c0-0.2-0.1-0.3-0.2-0.5c-0.1-0.3-0.4-0.5-0.9-0.6
			c-2.3-0.3-4.8-0.2-7.2-0.3c-2.3,0-4.5-0.1-6.8-0.1c-4.8-0.1-9.6-0.2-14.4-0.2c-4.7-0.1-9.4-0.1-14.1-0.1c-4.8,0-9.6-0.2-14.4,0.1
			c-0.2,0-0.3,0-0.4,0.1c0,0,0,0,0,0c0,11.9,0.1,23.9,0,35.9c0.1,0.2,0.4,0.3,0.7,0.3c4.6,0.5,9.4,0.3,14,0.3c4.8,0,9.6,0,14.5,0
			c4.7,0,9.5,0,14.2,0c2.4,0,4.7,0,7.1,0c2.4,0,4.9,0.2,7.2-0.1c0.1,0,0.1,0,0.2,0c0.2,0,0.4-0.1,0.5-0.2c0.1-5.6,0.2-11.1,0.1-16.6
			C146.3,133.3,146.4,129.1,146.5,124.9z"/>
		<g>
			<path class="st4" d="M98.5,137.7c-0.3,0-0.6,0-0.9,0c0,0-0.1,0-0.1,0c0,0-0.1,0.1-0.1,0.2c-0.1,0.5,0,1,0,1.4c0,0.4,0,0.9,0,1.3
				c0,0.9,0,1.9,0,2.8c0,0.9,0,1.9,0,2.8c0,0.9,0,1.9,0,2.8c0,0,0,0.1,0,0.1c0,0,0,0,0,0c1.9,0,3.9,0,5.9,0c0,0,0-0.1,0.1-0.1
				c0.1-0.9,0.1-1.8,0.1-2.8c0-1,0-1.9,0-2.9c0-0.9,0-1.9,0-2.8c0-0.5,0-0.9,0-1.4c0-0.5,0-1,0-1.4c0,0,0,0,0,0c0,0,0-0.1,0-0.1
				c-0.9,0-1.8,0-2.7,0C99.9,137.8,99.2,137.7,98.5,137.7z"/>
		</g>
		<g>
			<path class="st4" d="M109.5,130.8c-0.3,0-0.6,0-0.9,0c0,0-0.1,0-0.1,0.1c0,0-0.1,0.1-0.1,0.3c-0.1,0.7,0,1.5-0.1,2.3
				c0,0.7,0,1.4,0,2.1c0,1.5,0,3,0,4.5c0,1.5,0,3,0,4.5c0,1.5,0,3,0,4.5c0,0,0,0.1,0,0.1c0,0,0,0,0,0c1.9,0,3.9,0,5.9,0
				c0,0,0-0.1,0.1-0.2c0.1-1.5,0.1-3,0.1-4.4c0-1.5,0-3,0-4.6c0-1.5,0-3,0-4.5c0-0.7,0-1.5,0-2.2c0-0.7,0-1.5,0-2.3c0,0,0,0,0-0.1
				c0-0.1,0-0.1,0-0.2c-0.9,0-1.8,0-2.7,0C110.8,130.8,110.2,130.8,109.5,130.8z"/>
		</g>
		<path class="st5" d="M120.4,126.4c-0.3,0-0.6,0-0.9,0c0,0-0.1,0-0.1,0.1c0,0-0.1,0.2-0.1,0.4c-0.1,0.9,0,1.9-0.1,2.8
			c0,0.9,0,1.8,0,2.7c0,1.9,0,3.7-0.1,5.6c0,1.8,0,3.7,0,5.5c0,1.9,0,3.8,0,5.6c0,0.1,0,0.1,0,0.2c0,0,0,0,0,0
			c1.9,0,3.9-0.1,5.9-0.1c0-0.1,0-0.1,0.1-0.3c0.1-1.8,0.1-3.7,0.1-5.5c0-1.9,0-3.8,0-5.6c0-1.8,0-3.7,0-5.5c0-0.9,0-1.8,0-2.8
			c0-0.9,0-1.9,0-2.8c0,0,0,0,0-0.1c0-0.1,0-0.2,0-0.2c-0.9,0-1.8,0-2.7,0C121.8,126.5,121.1,126.4,120.4,126.4z"/>
		<g>
			<path class="st4" d="M131.3,133.4c-0.3,0-0.6,0-0.9,0c0,0-0.1,0-0.1,0.1c0,0-0.1,0.1-0.1,0.3c-0.1,0.6,0,1.3-0.1,1.9
				c0,0.6,0,1.2,0,1.8c0,1.3,0,2.6,0,3.9c0,1.3,0,2.6,0,3.8c0,1.3,0,2.6,0,3.9c0,0,0,0.1,0,0.1c0,0,0,0,0,0c1.9,0,3.9,0,5.9,0
				c0,0,0-0.1,0.1-0.2c0.1-1.2,0.1-2.5,0.1-3.8c0-1.3,0-2.6,0-3.9c0-1.3,0-2.6,0-3.9c0-0.6,0-1.3,0-1.9c0-0.6,0-1.3,0-2
				c0,0,0,0,0-0.1c0-0.1,0-0.1,0-0.1c-0.9,0-1.8,0-2.7,0C132.7,133.4,132,133.4,131.3,133.4z"/>
		</g>
	</g>
	<g>
		<path class="st5" d="M476.8,325.7c0-2.5-0.1-5-0.1-7.6c0-0.3-0.1-0.5-0.2-0.7c-0.1-0.4-0.4-0.8-1-0.8c-2.4-0.4-5-0.2-7.5-0.2
			c-2.4,0-4.7,0-7.1,0c-5,0-10,0-15,0.1c-4.9,0-9.8,0.1-14.7,0.2c-5,0.1-10,0-15,0.5c-0.2,0-0.3,0.1-0.4,0.1c0,0,0,0,0,0
			c0,17,0,34.1,0,51.1c0.1,0.2,0.4,0.4,0.7,0.4c4.8,0.5,9.8,0.2,14.6,0.1c5-0.1,10-0.2,15.1-0.3c4.9-0.1,9.9-0.2,14.8-0.3
			c2.5-0.1,4.9-0.1,7.4-0.2c2.5-0.1,5.1,0.1,7.5-0.3c0.1,0,0.1,0,0.2-0.1c0.2,0,0.4-0.1,0.6-0.2c0.1-7.9,0.2-15.8,0.1-23.7
			C476.6,337.8,476.7,331.7,476.8,325.7z"/>
		<g>
			<path class="st6" d="M221.4,174.9c0-1.8-0.1-3.5-0.1-5.3c0-0.2-0.1-0.3-0.2-0.5c-0.1-0.3-0.4-0.5-0.8-0.6c-1.9-0.3-4-0.2-6-0.3
				c-1.9,0-3.8-0.1-5.7-0.1c-4-0.1-8.1-0.1-12.1-0.2c-4-0.1-7.9-0.1-11.9-0.1c-4,0-8.1-0.2-12.1,0.1c-0.1,0-0.2,0-0.3,0.1
				c0,0,0,0,0,0c0,11.9,0,23.9,0,35.9c0.1,0.2,0.3,0.3,0.6,0.3c3.9,0.5,7.9,0.3,11.8,0.3c4,0,8.1,0,12.1,0c4,0,7.9,0,11.9,0
				c2,0,4,0,6,0c2,0,4.1,0.2,6.1-0.1c0.1,0,0.1,0,0.2,0c0.2,0,0.3-0.1,0.4-0.2c0.1-5.6,0.1-11.1,0.1-16.6
				C221.2,183.3,221.3,179.1,221.4,174.9z"/>
			<path class="st7" d="M161.3,200.2c0-1,0-2,0-3c0-0.1,0-0.2-0.1-0.3c-0.1-0.2-0.2-0.3-0.4-0.3c-1.1-0.2-2.3-0.1-3.4-0.2
				c-1.1,0-2.1,0-3.2-0.1c-2.2,0-4.5-0.1-6.7-0.1c-2.2,0-4.4-0.1-6.6-0.1c-2.2,0-4.5-0.1-6.7,0c-0.1,0-0.1,0-0.2,0c0,0,0,0,0,0
				c0,6.6,0,13.3,0,19.9c0.1,0.1,0.2,0.2,0.3,0.2c2.1,0.3,4.4,0.2,6.5,0.2c2.3,0,4.5,0,6.8,0c2.2,0,4.4,0,6.6,0c1.1,0,2.2,0,3.3,0
				c1.1,0,2.3,0.1,3.4-0.1c0,0,0.1,0,0.1,0c0.1,0,0.2,0,0.2-0.1c0-3.1,0.1-6.2,0.1-9.2C161.2,204.9,161.2,202.5,161.3,200.2z"/>
		</g>
	</g>
	<g>
		<g>
			<path class="st8" d="M95.9,411.6c-0.9,0.4-9.3,2.7-9.6,3.7c-0.3,1,0.7,6.6,3,10.4s4.2,4.6,6.1,6.8s3.9,4.5,4.8,6.3
				c1,1.7,2.2,3.7,3.5,3.5c1.3-0.2,4.7-3.3,4.3-4.9c-0.5-1.6-2.4-5-3.1-7.5c-0.7-2.5-1.5-6-2.3-7.9c-0.8-1.9-2.6-5.9-3.7-7.4
				C97.9,412.9,96.3,411.4,95.9,411.6z"/>
			<path class="st7" d="M105.9,431.4c-1.2,0.6-1.5,0.7-2.2,2.4c-0.6,1.6-1,4.4-1,6.3c0,2-0.1,4.5,0.4,5s0.7,0.5,1.6,0.5
				c0.9,0.1,4.6,0.6,8.3,0.3s9.5-1,12.2-0.8s10.5,1,12.3,1.1c1.8,0.1,4.9,0.2,5.6-0.4c0.7-0.5,0.9-1.3,0.9-1.3s0.7-2.4-0.6-4.4
				s-1.1-3.3-4.5-4.1s-4.6-1.1-7.2-1.5c-2.5-0.5-10.7-4.6-12.5-5.2C117.4,428.8,105.9,431.4,105.9,431.4z"/>
			<path class="st9" d="M100.4,421.7c-2.4-2-3-4.6-4.6-6.4s-1.8-3.2-1.8-4.2c0-1,7.8-8.9,10.5-13.5c2.8-4.6,16.7-32.4,16.7-36.6
				s-7.6-61.6-6.8-62.2c0.8-0.6,6.8-0.6,8.9-0.8c2.2-0.2,10.3-1.6,10.9,0s4.4,29,5.4,33.6c1,4.6,4.4,29,4.4,30.2s-0.2,1.6-1,3.6
				s-3,4-5.6,7.6s-4.6,7.2-7.4,10.1c-2.8,3-6,8.1-10.3,13.9s-16.7,22.7-16.7,22.7S101,422.2,100.4,421.7z"/>
			<path class="st9" d="M105,433.6c-1.1-0.1-0.6-2.4-0.8-3.8c0,0,0.6-4.6,0.6-12.7c0-8.1-0.4-21.5-0.6-27.8s0.6-20.5-0.4-25
				c-1-4.6-7.6-28.6-8.7-34.4c-1.2-5.8-2-14.9-1.8-20.5c0.2-5.6,1.2-10.3,1.6-10.9c0.4-0.6,8.1-0.2,10.9-0.2s15.5-0.2,16.3,0.4
				s1.4,20.1,1.6,23.4c0.2,3.4,1.6,32.2,1.6,34.4s-0.2,5-0.2,7.9c0,3-3.4,34-3.4,37.6s-1,27.4-1.4,28.4
				C119.9,431.5,111.9,434.2,105,433.6z"/>
			<path class="st2" d="M125.9,363.1c0.2-4-0.2-8.2-0.3-12.2c-0.1-4.3-0.2-8.6-0.4-13c-0.2-4.2-0.3-8.5-0.5-12.7
				c-0.2-4.4-0.3-8.8-0.7-13.2c-0.1-0.5-0.8-0.5-0.8,0c0,4.3,0.4,8.6,0.6,12.9c0.2,4.3,0.4,8.6,0.6,13c0.2,4.2,0.3,8.5,0.4,12.7
				c0.1,4.2,0.3,12.6,0.3,12.7c-0.9,8.9-1.9,17.8-2.4,26.8c0,0.2,0.3,0.2,0.3,0C124.2,381.2,126,363.1,125.9,363.1z"/>
			<path class="st2" d="M104.9,407.7c0-1.4,0-2.7,0-4.1c0-1.4,0.2-2.9,0-4.3c0-0.3-0.5-0.4-0.5-0.1c-0.2,1.3-0.1,2.7-0.1,4
				c0,1.4,0,2.8,0,4.3c0,2.8,0,5.7,0.2,8.5c0,0.4,0.6,0.4,0.6,0C105.1,413.2,104.9,410.5,104.9,407.7z"/>
		</g>
		<g>
			<path class="st4" d="M175.4,207.7c0,0,1.4-4.6,2-6.9s0.9-3.4,1.9-3.9s2.2-0.6,4.3-0.6c2.1,0,3.4,0.1,3.4,0.1s7.7-6,8.3-6
				s1.1,0.1,1.1,0.9s-6.8,6.8-6.9,7.5c-0.1,0.7,0.8,6.5,0.1,7.4c-0.7,0.9-4.9,3.1-5.8,3.8c-0.9,0.7-1.9,2.1-2.2,2.1
				s-4.1-1.4-5.1-2.3C175.6,208.9,175.3,208.6,175.4,207.7z"/>
			<path class="st10" d="M120.1,221.8c-0.6-1.1-0.2-1.8,0.4-2.8s1-2,3-1.8s2.6,0.4,5.4,1.6c2.8,1.2,27,12.9,28.2,13.1
				c1.2,0.2,16.9-24,17.7-24.4c0.8-0.4,0.4-0.8,1.8-0.2c1.4,0.6,5.6,3.8,5.6,5s-4.6,10.1-6.4,13.3c-1.8,3.2-11.7,20.9-15.1,21.3
				c-3.4,0.4-25.2-4.4-28-6.6C129.8,238.1,121.3,224,120.1,221.8z"/>
			<path class="st10" d="M94.8,298.5c-1.4-0.3-0.4-1-0.6-2.6c-0.2-1.6-0.4-1.4,0-6.6c0.4-5.2,1-13.5,0.8-16.9
				c-0.2-3.4-1-7.9-1.2-13.1c-0.2-5.2-3.2-18.1-4-21.9c-0.8-3.8-1-12.7-0.4-15.3s4.4-5.6,7.8-7s13.5-1.8,15.9-1.6
				c2.4,0.2,4,0.4,7.4,1.6c3.4,1.2,3.8,1.2,5.6,3.2c1.8,2,4.2,7.6,6,11.7s5.4,14.3,5.8,15.9s0.8,2.4,0.2,4.2
				c-0.6,1.8-4.6,8.7-6.6,14.3s-2.2,6-1.4,11.3s3.4,15.7,4,17.7c0.6,2,1.4,4.2,0.4,4.6c-1,0.4-3.8,0.4-3.8,0.4s-5.6-0.6-11.5,0.4
				C113.1,299.9,98,299.3,94.8,298.5z"/>
			<path class="st3" d="M117.9,258.3c-2,1.1-3.9,2.5-5.9,3.5c-1,0.5-2.1,1-3.2,1.5c-1.1,0.4-2.1,0.7-3.1,1.3
				c-0.1,0.1-0.1,0.3,0.1,0.3c1.2-0.1,2.2-0.5,3.3-0.9c1.1-0.4,2.2-0.9,3.2-1.4c2.1-1,4.2-2.3,5.8-4
				C118.1,258.3,118,258.2,117.9,258.3z"/>
			<path class="st4" d="M94.2,309.9c0,0-1,7.7-0.9,8.8c0.1,1.2,0.1,1.5,0.7,2.9c0.6,1.4,3.5,7.4,4.5,7.9c1,0.6,2.7,0.8,4.1,0.8
				s3.1-0.7,3.3-1.8s-0.7-4.7-1.1-6.5c-0.4-1.8-1.4-5.3-1.1-5.3s1.8,3,1.9,3.5c0.1,0.5,0.4,2.3,0.8,3c0.4,0.7,0.9,0.9,1.4,0.7
				s0.7-3,0.7-4.4s0.3-2.7-0.7-4.1c-1-1.4-4.7-8.1-5.2-8.6c-0.5-0.5-5.3,1.1-6.4,1.7C95.1,309.2,94.2,308.9,94.2,309.9z"/>
			<path class="st10" d="M93.1,218.8c-1.5,0.5-3.2,1-3.4,2.2c-0.2,1.2-5.2,18.1-6.4,23.1s-2.6,26.8-2.4,30.2s11.3,34,12.3,35.2
				c1,1.2,2.6,0.8,4.8,0.2s5.9-1.3,5-3.8c-0.3-0.8-3.4-15.9-3.8-18.1c-0.4-2.2-2.8-13.1-3-15.5c-0.2-2.4,3.4-21.3,4.2-27.8
				s0.4-15.1-0.4-18.9C99.2,221.8,95.2,218,93.1,218.8z"/>
			<path class="st3" d="M99,284.9c-0.8-4.2-1.4-8.5-2.5-12.6c0,0,0.1-0.1,0.1-0.2c0.7-4.3,1.4-8.6,2-12.9c0.7-4.1,1.6-8.3,2-12.5
				c0-0.4-0.7-0.5-0.8-0.1c-1,4.1-1.4,8.5-2.1,12.6c-0.7,4.2-1.4,8.4-2,12.6c0,0.1,0,0.2,0.1,0.3c0,0,0,0,0,0
				c0.5,4.2,1.6,8.3,2.4,12.4c0.8,4.2,1.4,8.7,2.7,12.8c0,0.1,0.3,0.1,0.3,0C100.9,293.2,99.8,289,99,284.9z"/>
			<path class="st3" d="M101.2,234.1c0-0.5-0.1-1.1-0.2-1.6c0-0.3-0.1-0.7-0.5-0.7c-0.8,0-0.3,1.7-0.3,2.1c0.1,1.2,0.2,2.3,0.2,3.5
				s0,2.3,0,3.5c0,0.5,0,1.1-0.1,1.6c0,0.5-0.2,1,0.1,1.5c0,0.1,0.1,0.1,0.2,0c0.3-0.3,0.3-0.8,0.4-1.3c0.1-0.5,0.1-1.1,0.2-1.6
				c0.1-1.2,0.1-2.3,0.1-3.5C101.3,236.4,101.3,235.3,101.2,234.1z"/>
			<path class="st3" d="M132.6,230.3c-0.7-1.6-1.4-3.2-2.2-4.7c-0.8-1.6-1.5-3.4-2.5-4.8c-0.2-0.3-0.7-0.1-0.6,0.2
				c0.6,1.6,1.6,3.1,2.3,4.6c0.7,1.5,1.4,3,2.1,4.6c1.4,3.3,2.7,6.6,4,9.9c0.1,0.3,0.6,0.2,0.5-0.1
				C135.3,236.7,134,233.5,132.6,230.3z"/>
		</g>
		<g>
			<path class="st4" d="M113.9,211c0,0-0.6,2-0.5,3.2c0.1,1.2,1.2,3.3,1.3,4.5c0.1,1.2,0.2,3.1-2.4,4.6c-2.6,1.5-8.7,1.6-11.5-1.2
				s-0.1-11.1-0.1-11.1s4.4-4.7,7.8-4.3C111.8,207,113.9,211,113.9,211z"/>
			<path class="st4" d="M124,183.6c0.4,1.1,1.3,3.9,1.1,5.1s-1.3,3.7-0.9,4.9c0.4,1.2,2.7,4.1,2.5,5.5c-0.2,1.4-1.6,5-3.3,8.4
				s-4.5,6.7-6,6.5c-1.5-0.2-6.5-2.4-6.5-2.4c-2.1-0.8-5-2-5.8-3.9s-0.3-14.4-0.3-14.4s3.2-7.9,5.4-9.4c2.2-1.6,2.2-2.8,6.1-2.4
				C120.2,181.9,124,183.6,124,183.6z"/>
			<path class="st1" d="M111.1,184.6c0.7,0.5,1.6,2.6,1.9,3.2c0.3,0.5,0.3,0.7,0.9,0.7s5.2-1.2,6.9-1.7s5-0.4,5.2-1.1
				c0.1-0.7,0.4-0.5,0.1-1.5s-0.5-6.6-2.4-9.4c-1.9-2.8-1.7-3.6-6-4.9c-4.2-1.3-7.3-0.8-7.3-0.8s-6.6-1.6-10.6-0.8
				s-9.8,4.8-12.3,9.8c-2.5,5-3.8,9.9-3.8,12.3s-0.9,4.9-0.9,4.9s-6.6,11.8-8.3,16.6s-3,22.5-2.4,26.9c0.7,4.4,2.1,14,4,17.5
				c1.9,3.4,4.4,9.9,4.9,9.4s0.7-0.4,0.7-1.3c0-0.9,2.1-12.1,5.7-17c3.6-4.9,8.7-9,9.9-10.3c1.2-1.3,2.4-1.8,3.1-3.2
				s1.5-2.5,1.8-7.3c0.3-4.8,1.3-10.2,2.3-12.3s2.3-7.2,2.5-9.8s1.1-9.5,1.1-9.5s0.5-4.5,1.2-6.5
				C109.7,186.4,111.1,184.6,111.1,184.6z"/>
			<path class="st1" d="M109.9,184.7c0.5,2.1-0.9,6-1.1,7.9s1.2,11.1,1.6,12.9c0.4,1.7,0.5,2.1,0,1.6s-1.6-2.9-2.4-5.4
				c-0.8-2.5-1.3-4.4-1.6-6.9c-0.3-2.5-1.5-2.8,0.1-6.4C108.2,184.8,109.6,183.6,109.9,184.7z"/>
			<path class="st9" d="M75.4,234.2c0-2.8,0.2-5.6,0.6-8.4c0.2-1.4,0.4-2.8,0.8-4.2c0.3-1.3,0.7-2.5,0.8-3.8c0-0.2-0.3-0.3-0.4-0.1
				c-1.2,2.4-1.5,5.5-1.9,8.1c-0.4,2.8-0.6,5.6-0.6,8.4c0,5.7,0.7,11.5,2.6,16.9c0.1,0.2,0.4,0.1,0.3-0.1
				C76.3,245.5,75.4,239.9,75.4,234.2z"/>
			<path class="st9" d="M79.7,226.3c-0.4,0.6-0.4,1.4-0.5,2c-0.1,0.7-0.2,1.4-0.3,2.1c-0.1,1.4-0.2,2.9,0.1,4.3c0,0.2,0.2,0.1,0.3,0
				c0.1-1.4,0.1-2.8,0.3-4.1c0.1-0.7,0.2-1.4,0.3-2.1c0.1-0.6,0.4-1.3,0.3-2C80.1,226.2,79.9,226.1,79.7,226.3z"/>
			<path class="st9" d="M103.5,201.5c-0.8,2.2-1.2,4.6-1.7,6.8c-0.6,2.3-1.1,4.6-1.7,6.9c-1.1,4.6-2.2,9.2-3.2,13.8
				c-0.1,0.3,0.3,0.4,0.4,0.1c1.2-4.6,2.3-9.1,3.4-13.7c0.6-2.3,1.1-4.6,1.7-6.9c0.5-2.3,1.3-4.6,1.6-6.9
				C104,201.4,103.6,201.2,103.5,201.5z"/>
		</g>
	</g>
	<g>
		<g>
			<g>
				<path class="st4" d="M441.7,429.7c0.5-1.2-0.8-4.9-1.6-5c-0.8-0.1-13.6,2.9-13.8,4.2c-0.1,1.3-1.1,1.5,1.6,1.7
					C430.6,430.9,441.4,430.6,441.7,429.7z"/>
			</g>
			<path class="st8" d="M425.6,429.3c-1.1,0.4,0.9,0.5-2.4,2s-9,2.3-12.5,3.4c-3.4,1.2-5.8,3-6.6,5c-0.8,2-1.5,3.3-0.3,4.1
				c1.2,0.8,6.1,1.2,10.3,1.2c4.2,0,9.3-1.2,12.9-1.2s9.9-0.3,11.8-0.1c1.9,0.1,4.1,0.5,4.5-0.4c0.4-0.9,0.3-5.4,0-7.2
				s-0.1-6.9-1.6-7c-1.5-0.1-1.5,0.1-6.1,0.3C431,429.5,426,429.1,425.6,429.3z"/>
			<path class="st8" d="M378.8,427.1c-1.2,1.1,0,1.7-2.3,3.2c-2.3,1.5-11.4,4.1-14.6,5.3c-3.2,1.2-5,3.4-6,5.2
				c-0.9,1.7-1.2,3.2-0.5,3.7s6.6,1.5,11.4,1.3c4.8-0.1,12.6-0.9,15.5-1.1s9.9,0.1,11.4,0s1.7-0.3,2.3-0.8c0.5-0.5,1.3-1.2,0.8-4.1
				s-1.2-9.5-2.4-10.6c-1.2-1.1-11.4-1.6-12.9-1.7C380.1,427.4,378.8,427.1,378.8,427.1z"/>
			<path class="st9" d="M378.3,276.9c-1.3,1.3-2.4,0.8-2.6,2.9c-0.3,2.1,0.5,66.2,0.5,70.5s0.3,76,1.6,77.1c1.3,1.1,6.9,1.1,9,1.3
				s6.6,2.1,7.7,0.5s1.5-8.8,1.6-12.5s0.5-60.9,0.8-64.4c0.3-3.4,2.6-9.5,4-17.2c1.3-7.7,8.2-37.6,9-42.9s-2.6-13-2.6-13
				s-13-3.2-16.2-3.4C387.8,275.6,379.6,275.6,378.3,276.9z"/>
			<path class="st9" d="M396.6,278.8c-1.1,0.5-2.4,2.4-2.4,6.6c0,4.2,7.2,65.2,7.7,69.4c0.5,4.2,19.6,73.9,22.5,74.7
				c2.9,0.8,16.7-2.4,17-4.8c0.3-2.4-5-21.5-5.8-26s-11.4-43.2-11.7-48.5c-0.3-5.3,0.8-45.6,1.1-51.1c0.3-5.6,3.7-16.2-1.3-19.1
				c-5-2.9-13-2.9-18-2.9C400.5,277.2,396.6,278.8,396.6,278.8z"/>
			<path class="st2" d="M395.2,292.8c0-0.3-0.5-0.3-0.5,0c1.4,13.4,2.5,26.9,4,40.3c0,0.4,0.7,0.4,0.7,0
				C398.2,319.6,396.6,306.2,395.2,292.8z"/>
		</g>
		<g>
			<g>
				<path class="st4" d="M369.7,233.1c-1.2,0-1.1-0.5-2.1,0.3s-0.7,0.4-1.5,1.5s-4.9,8.2-6.6,9.5s-11.1,4.5-14.2,5.6
					s-20.3,6.6-21.5,6.8c-1.2,0.1-3-0.5-5.4-0.4c-2.4,0.1-5,0.8-6.9,0.8s-3.3-0.1-3.4,0.9c-0.1,1.1-0.4,1.5,0.8,1.6
					c1.2,0.1,5,0.8,5,0.8s-10.6,0.5-11.3,1.1s-2,2.1-1.9,3.3c0.1,1.2,2.4,3.7,4.1,4.2c1.7,0.5,5.6,0.5,9.5-0.4s10.1-4.6,11.4-4.9
					s41.2-7.7,41.7-7.9s0.8-0.1,1.3-0.7s0.8-0.9,2-2s6.2-7.3,6.6-8.6c0.4-1.3-0.5-3.6-0.5-3.6s-3.7-5.2-5-6
					c-1.3-0.8-1.1-1.2-1.5-1.5L369.7,233.1z"/>
			</g>
			<path class="st11" d="M385.8,201.1c-2,1.2-2.5,2.8-4.2,4.8c-1.7,2-15.9,27.8-16,28.7c-0.1,0.9,7.8,10.9,13.2,11.1
				c5.4,0.3,4.4-21.5,5.3-25.3s2.1-7.8,2.6-11.5s0.3-7,0.1-7.6C386.8,200.9,385.8,201.1,385.8,201.1z"/>
			<path class="st11" d="M391.3,198.3c-3.3,1.5-5.4,1.8-7.5,4.5c-2.1,2.6-4.2,7.2-4.8,10.1S379,239,379,243c0,4-4.5,34.7-3.6,35.6
				c0.9,0.9,3.7,1.5,3.7,1.5s19.6,1.2,23.3,1.1c3.7-0.1,15.1-1.1,18.8-2c3.7-0.9,5.4-0.8,6.4-3.6c0.9-2.8,0.5-9.1,0-13.2
				s-2.9-16-2.8-19.6s0.5-22.4,0.5-26.4c0-4,0.5-14.4-2.5-16.4s-11.5-4.2-17.5-4.4C399.4,195.4,393.7,197.2,391.3,198.3z"/>
			<path class="st1" d="M393.7,255.8c-0.4,0.7-1.4,1.2-1.2,2.4c0.2,1.2,1.8,3.4,3.4,5.8c1.6,2.4,15.7,22.5,17.5,24.2
				c1.8,1.8,9.5,11.3,10.7,12.1s8.7-4.8,11.9-6.6c3.2-1.8,15.5-10.1,16.3-11.1s1.8,0.4,1.2-1.6s-10.5-15.9-12.3-17.7
				s-12.7-17.1-14.9-20.3c-2.2-3.2-4.8-6-6-5.8s-12.7,8.7-15.5,10.5C402.1,249.6,394.3,254.8,393.7,255.8z"/>
			<g>
				<path class="st4" d="M424.7,232.3c0,0,4,8.2,4.9,9.8c0.9,1.6,1.6,2.9,1.7,3.7c0.1,0.8,0.3,1.7-0.3,4.1
					c-0.5,2.4-5.2,18.9-6.1,20.8s-2.6,5.2-3.8,6.2c-1.2,1.1-8.9,4.1-9.7,4c-0.8-0.1-1.1,0.9-0.8,1.5c0.3,0.5,0.9,0.9,2.3,0.8
					c1.3-0.1,4.4-0.4,4.4-0.4s-1.6,1.5-2.6,2.3s-2.4,1.5-2.6,2.3c-0.3,0.8,0.4,2.8,0.9,3.8s1.5,1.9,3.4,3s3.3,1.7,3.7,1.7
					c0.4,0,3.8-4.6,5.4-6.2s1.9-2.1,2.4-4.2c0.5-2.1,0.5-5.7,0.7-6.9c0.1-1.2,7.9-15.2,10.1-18.7s6.1-12.7,6.1-14.7
					c0-2-5.7-18.4-7.2-20.7s-7.8,1.1-9.8,2.3c-2,1.2-2.8,4.4-2.8,4.4S424.4,231.6,424.7,232.3z"/>
			</g>
			<path class="st11" d="M417.2,222.1c1.1,1.9,6.8,11.5,7.7,11.5s12.1-6.1,14.4-7.9c2.4-1.9,3.8-3.3,3.4-4.2
				c-0.4-0.9,0.4-1.1-1.3-2.8c-1.7-1.7-15.1-17.5-19.3-18.7c-4.2-1.2-8.6,6.1-9.3,9.4C412.2,212.7,414.7,217.8,417.2,222.1z"/>
			<path class="st5" d="M423.4,231.2c-5.5-6.3-8.8-13.8-10.5-22c-0.1-0.3-0.5-0.2-0.5,0.1c1.2,8.2,5.1,16,10.5,22.3
				C423.2,231.9,423.7,231.5,423.4,231.2z"/>
			<path class="st5" d="M379.1,228.1c0-2.6,0-5.1,0-7.7c0-1.3,0-2.6,0-3.8c0-1.2,0.1-2.4-0.2-3.6c0-0.2-0.3-0.2-0.4,0
				c-0.3,1.2-0.2,2.4-0.2,3.6c0,1.2,0,2.4,0,3.6c0,2.6,0,5.3,0,7.9c0,5.2,0,10.4,0,15.6c0,0.4,0.7,0.4,0.7,0
				C379.2,238.5,379.1,233.3,379.1,228.1z"/>
			<g>
				<path class="st4" d="M405.3,195.6c-6-0.1-11.6,1.6-14,2.7c-1,0.4-1.8,0.8-2.6,1.1c-0.5,1.5-1.1,4.3,1.1,6.8c3,3.4,8,4,14.2,1.2
					c5.4-2.4,10-8,10.7-10.3C411.6,196.2,408.2,195.6,405.3,195.6z"/>
			</g>
		</g>
		<g>
			<g>
				<path class="st4" d="M391.1,200.6c0.2-1.2,0.4-1.3,0.2-3.1c-0.2-1.8-0.7-3.1-0.8-4.3c-0.1-1.2,2-2.9,2-2.9s6-5.7,7.3-6.3
					c1.3-0.6,1.4-1,1.9-0.3s0.8,0.4,1.4,2.1c0.6,1.7,3,8.7,3,8.7s1.2,2,1.1,2.8s-1,1.3-4.3,3.1c-3.3,1.8-8.8,2.8-8.8,2.8
					S390.4,204.5,391.1,200.6z"/>
			</g>
			<g>
				<path class="st4" d="M379.7,168.8c-1,1.2-1.4,1.5-0.6,4.8c0.8,3.3,1.9,5.2,1.7,7.4c-0.2,2.2-0.2,4.9,0.2,6.5
					c0.4,1.6,5.2,7.9,6.9,8.2c1.7,0.3,9.1-3.2,11.1-5.1s4.5-8.1,4.9-9c0.4-0.9,0.3-8.7-0.7-11.2c-1-2.5-2.4-3.8-5.8-4.7
					s-9.8-0.2-12.7,0.6C381.8,167.1,380.3,168.1,379.7,168.8z"/>
			</g>
			<path class="st1" d="M402.7,172.1c-0.5-1.4-2.1-2.4-4.2-2.4s-13.5,0.9-15.1,1.3c-1.6,0.4-3.6,1.2-4.9,1c-1.3-0.2-7.6-0.9-9.9-5.1
				s-2.6-7.9-0.2-10.3c2.4-2.4,6.1-1.7,9.2-1c3.2,0.7,7.7,0.1,7.7,0.1s7.9-1.7,13-1.1c5.1,0.6,5.9,1,6.8,2.1
				c0.9,1.1,1.7,2.8,1.9,3.2c0.2,0.4,6.3,3.4,6.9,7.9c0.6,4.5-0.3,6.2-2.2,10.2c-1.9,4.1-3,4.9-4.7,6.8c-1.7,1.9-3.1,3.2-3.4,2.7
				s-1.8-3.1-1.4-4.6C402.6,181.4,403,173,402.7,172.1z"/>
			<g>
				<path class="st4" d="M403.9,174.6c0.3-0.2,0.7-0.4,1.1-0.4c0.7,0.1,1.2,0.9,1.3,1.7c0.1,0.8-0.1,1.7-0.4,2.4
					c-0.9,2.3-2.3,4.2-4.1,5.4c0.2-0.2,0.3-2.2,0.3-2.6c0.1-0.9,0.2-1.9,0.2-2.8c0-0.8,0-1.5,0.3-2.2
					C402.8,175.5,403.3,175,403.9,174.6z"/>
			</g>
			<path class="st1" d="M403.9,172c-0.3,0.8-0.3,4-1.4,6.3c-1.2,2.3-1.8,3.1-2.1,2.1s0.1-1.6,0.1-3.6c0-2.1-0.6-5.4-0.4-7.2
				s1.3-3.8,2.5-3s1.6,2.3,1.6,3.1S404.1,171.4,403.9,172z"/>
			<path class="st9" d="M401.2,157.9c-1.6-0.5-3.6-0.2-5.2-0.2c-1.9,0-3.9,0.1-5.8,0.2c-3.7,0.2-7.3,0.5-10.9,1.2
				c-0.2,0-0.1,0.3,0,0.3c3.7-0.2,7.4-0.6,11.1-0.7c1.9-0.1,3.7-0.1,5.6-0.1c1.7,0,3.6,0.3,5.2,0C401.5,158.5,401.5,158,401.2,157.9
				z"/>
			<path class="st9" d="M396.6,160.4c-0.5,0-1.1,0-1.6,0c-0.3,0-0.5,0-0.8,0c-0.3,0-0.5,0.1-0.8,0.1c-0.2,0-0.2,0.3,0,0.4
				c0.3,0,0.5,0.1,0.8,0.1c0.3,0,0.5,0,0.8,0c0.5,0,1.1,0.1,1.6,0c0.2,0,0.3-0.1,0.4-0.3c0-0.1,0-0.1,0-0.2
				C397,160.5,396.8,160.4,396.6,160.4z"/>
		</g>
	</g>
	<g>
		<path class="st2" d="M173.3,396.4c-0.6-0.5,3-5,4.6-7.1c1.6-2.2,2.6-4.4,4-4.5c1.4-0.2,37.8,0,43.3,0.1c5.6,0,72.9-1.1,76.9-1.1
			c4,0,26.2-0.4,27.4-0.4s7.1,11,6.3,11.8c-0.8,0.8-1.2,0.2-4,1c-2.8,0.8-69,1.4-73.7,1.3c-4.8,0-67.4,0.2-71.3,0
			C182.8,397,174.1,397,173.3,396.4z"/>
		<path class="st1" d="M168,439.6c-3.8-0.3-4.2-1.4-4.6-2.8c-0.4-1.4-0.2-7.8-0.2-13.7s0.8-24.2,1.4-25.8c0.6-1.6,0.6-2.4,1.8-2.6
			c1.2-0.2,3.4,0.2,6.6,0.2s66.4,0.8,73.5,0c7.2-0.8,68.8-1,74.9-1.4c6.2-0.4,22.5-1,23.4-0.8c1,0.2,1.2,0.4,1.4,1.2
			c0.2,0.8,0.2,33.4,0.2,35.4c0,2,1,7.6,0.2,8.3c-0.8,0.8-0.2,0.6-3.2,1.2c-3,0.6-57,2.2-61.8,2.2s-63-0.4-75.1-0.2
			C194.4,441,170.8,439.8,168,439.6z"/>
		<path class="st9" d="M302.9,432.6c-18.6,0.5-37.1,0.8-55.7,0.9c-18.7,0-37.3-0.1-56-0.5c-5.2-0.1-10.4-0.3-15.6-0.3
			c-4.2-0.1-8.3-0.2-12.5-0.2c0,0.4,0,0.8,0,1.2c3.6,0.2,7.1,0.3,10.7,0.5c4.6,0.2,9.2,0.3,13.8,0.4c9.3,0.2,18.6,0.4,27.9,0.5
			c18.7,0.2,37.3,0.1,56-0.2c10.5-0.2,21-0.4,31.4-0.7C303.8,434,303.8,432.6,302.9,432.6z M346.6,431.3c-1.2,0.2-2.4,0.4-3.5,0.5
			c-3.1,0.4-6.2,0.6-9.3,0.8c-2.9,0.2-5.9,0.3-8.8,0.3c-1.4,0-2.8,0-4.3,0c-1.4,0-2.9-0.1-4.4,0.2c-0.3,0.1-0.3,0.5,0,0.5
			c2.7,0.8,5.9,0.5,8.6,0.4c3,0,6-0.1,9-0.3c2.8-0.2,5.6-0.4,8.4-0.7c1.5-0.2,2.9-0.3,4.4-0.5C346.7,432.1,346.6,431.7,346.6,431.3z
			"/>
		<path class="st2" d="M208.8,416.5c-0.7-0.7-1.5-1.2-2.4-1.6c-0.4-0.2-0.9-0.3-1.4-0.3c-0.3,0-0.5-0.1-0.8-0.1
			c-0.3,0-0.4,0.1-0.6,0.2c-0.1,0-7.2,3.5-8.8,11.1c-0.6,3-0.7,6.1-0.7,9.2c0.1,3.6,0.1,7.1,0,10.7c0,0.1,0.1,0.2,0.2,0.2
			c0,0.1,0,0.2,0,0.2c0.3,0.4,0.7,0.5,1.2,0.6c0.5,0.2,1,0.3,1.5,0.4c1,0.2,2.1,0.3,3.1,0.2c1-0.1,2-0.2,3-0.5
			c0.9-0.3,2-0.7,2.7-1.4c0,0,0.1-0.1,0.1-0.1c0.1-0.1,0.1-0.2,0.1-0.3c-0.2-4.4-0.7-8.9,0.1-13.3c0.3-1.8,0.9-3.6,1.7-5.2
			c0.4-0.8,0.8-1.5,1.3-2.2c0.5-0.7,1.1-1.3,1.5-2c0.2-0.1,0.3-0.2,0.3-0.4C211,419.8,210.2,417.8,208.8,416.5z"/>
		<path class="st2" d="M228.7,416.5c-0.7-0.7-1.5-1.2-2.4-1.6c-0.4-0.2-0.9-0.3-1.4-0.3c-0.3,0-0.5-0.1-0.8-0.1
			c-0.3,0-0.4,0.1-0.6,0.2c-0.1,0-7.9,4.7-8.8,11.1c-0.4,3-0.7,6.1-0.7,9.2c0.1,3.6,0.1,7.1,0,10.7c0,0.1,0.1,0.2,0.2,0.2
			c0,0.1,0,0.2,0,0.2c0.3,0.4,0.7,0.5,1.2,0.6c0.5,0.2,1,0.3,1.5,0.4c1,0.2,2.1,0.3,3.1,0.2c1-0.1,2-0.2,3-0.5
			c0.9-0.3,2-0.7,2.7-1.4c0,0,0.1-0.1,0.1-0.1c0.1-0.1,0.1-0.2,0.1-0.3c-0.2-4.4-0.7-8.9,0.1-13.3c0.3-1.8,0.9-3.6,1.7-5.2
			c0.4-0.8,0.8-1.5,1.3-2.2c0.5-0.7,1.1-1.3,1.5-2c0.2-0.1,0.3-0.2,0.3-0.4C230.9,419.8,230.1,417.8,228.7,416.5z"/>
		<path class="st4" d="M262,394.1c-21,0.1-42.1,0.3-63.1,0.4c-2.9,0-5.8,0-8.7,0.1s-5.9-0.1-8.8,0.3c-0.2,0-0.1,0.4,0.1,0.4
			c2.6,0.3,5.3,0.2,8,0.2c2.6,0,5.1,0,7.7,0c5.2,0,10.4-0.1,15.6-0.1c10.4-0.1,20.9-0.1,31.3-0.2c6,0,12-0.1,18-0.1
			C262.5,394.9,262.5,394.1,262,394.1z"/>
		<path class="st4" d="M297.5,393.2c-4.8,0.1-9.6,0.2-14.5,0.4l-7.1,0.2c-1.2,0-2.4,0.1-3.6,0.1c-1.1,0-2.3-0.1-3.4,0.3
			c-0.3,0.1-0.3,0.5,0,0.6c1,0.3,2.1,0.2,3.1,0.1c1.2,0,2.4-0.1,3.6-0.1l7.4-0.2c4.8-0.1,9.6-0.3,14.5-0.4
			C298.1,394,298.1,393.1,297.5,393.2z"/>
	</g>
	<g>
		<path class="st2" d="M336.2,142.8c0.6,0.5-3,5-4.6,7.1c-1.6,2.2-2.6,4.4-4,4.5s-37.5-0.3-43.1-0.3c-5.5-0.1-72.5,0.7-76.5,0.7
			c-4,0-26.1,0.3-27.3,0.3s-7-11.1-6.2-11.9c0.8-0.8,1.2-0.2,4-1c2.8-0.8,68.6-1,73.3-0.9c4.7,0.1,67,0.2,70.9,0.5
			C326.7,142.1,335.4,142.2,336.2,142.8z"/>
		<path class="st1" d="M341.8,99.3c3.8,0.3,4.1,1.4,4.5,2.8c0.4,1.4,0.2,7.8,0.1,13.8c0,6-0.9,24.4-1.5,26c-0.6,1.6-0.6,2.4-1.8,2.6
			s-3.4-0.2-6.5-0.2c-3.2,0-66-1.2-73.1-0.4c-7.1,0.8-68.4,0.6-74.5,1c-6.1,0.4-22.3,0.9-23.3,0.7c-1-0.2-1.2-0.4-1.4-1.2
			c-0.2-0.8,0-33.6,0-35.6c0-2-0.9-7.6-0.1-8.4s0.2-0.6,3.2-1.2c3-0.6,56.7-1.9,61.5-1.8c4.7,0,62.6,0.8,74.7,0.6
			C315.5,97.8,339,99.1,341.8,99.3z"/>
		<path class="st3" d="M329.7,120.1c0-0.4,0-3.8-0.1-3.6c-0.1,0.2,0-4.8-0.1-5.3c0-0.2,0.1-0.4,0-0.7c0-1.4-1.2-2.8-2.7-2.8
			c-1.5,0.1-2.7,1.2-2.7,2.7c0,0.2,0,6.1-0.1,5.9c0-0.2-0.1,2.8-0.1,3.1c0,0.1,0,2.7,0,2.8c0,0.1,0,0.3,0,0.4
			c-0.1,1.5,1.4,3,2.9,2.9c1.5-0.1,3-1.3,2.9-2.9c0-0.2,0-0.3,0-0.5C329.7,122.3,329.7,120.4,329.7,120.1z"/>
		<path class="st5" d="M317.1,120c0-0.4,0-3.8-0.1-3.6c-0.1,0.2,0-4.8-0.1-5.3c0-0.2,0.1-0.4,0-0.7c0-1.4-1.2-2.8-2.7-2.8
			c-1.5,0.1-2.7,1.2-2.7,2.7c0,0.2,0,6.1-0.1,5.9c0-0.2-0.1,2.8-0.1,3.1c0,0.1,0,2.7,0,2.8c0,0.1,0,0.3,0,0.4
			c-0.1,1.5,1.4,3,2.9,2.9c1.5-0.1,3-1.3,2.9-2.9c0-0.2,0-0.3,0-0.5C317.1,122.2,317.1,120.3,317.1,120z"/>
		<path class="st5" d="M304.4,120c0-0.4,0-3.8-0.1-3.6c-0.1,0.2,0-4.8-0.1-5.3c0-0.2,0.1-0.4,0-0.7c0-1.4-1.2-2.8-2.7-2.8
			c-1.5,0.1-2.7,1.2-2.7,2.7c0,0.2,0,6.1-0.1,5.9c0-0.2-0.1,2.8-0.1,3.1c0,0.1,0,2.7,0,2.8c0,0.1,0,0.3,0,0.4
			c-0.1,1.5,1.4,3,2.9,2.9c1.5-0.1,3-1.3,2.9-2.9c0-0.2,0-0.3,0-0.5C304.4,122.1,304.4,120.2,304.4,120z"/>
		<path class="st9" d="M301.9,142.8c-30.5,0.2-61,0.6-91.6,0.9c-8.7,0.1-17.3,0.2-25.9,0.5c-0.4,0-0.4,0.6,0,0.6
			c15.3,0.2,30.5-0.1,45.8-0.3c15.3-0.2,30.5-0.3,45.8-0.5c8.6-0.1,17.3-0.2,25.9-0.4C302.4,143.6,302.4,142.8,301.9,142.8z"/>
		<path class="st9" d="M325.6,143.4c-3,0.1-6,0.2-9,0.1c-1.5,0-3-0.1-4.5-0.1c-1.3-0.1-2.9-0.4-4.2-0.1c-0.2,0.1-0.2,0.3,0,0.4
			c1.2,0.5,2.9,0.4,4.2,0.5c1.5,0.1,3,0.2,4.5,0.2c3,0.1,6,0,9-0.1C326.1,144.3,326.1,143.4,325.6,143.4z"/>
		<path class="st4" d="M164.4,117.2c0-0.9,0-1.9,0-2.8c0-0.5,0-0.9,0-1.4c0-0.5,0.1-1-0.1-1.4c-0.1-0.3-0.5-0.3-0.6,0
			c-0.1,0.4-0.1,0.9-0.1,1.4c0,0.4,0,0.9,0,1.3c0,1,0,1.9,0,2.9c0,1.8-0.1,3.8,0.2,5.6c0,0.2,0.4,0.2,0.4,0
			C164.6,120.9,164.4,119,164.4,117.2z"/>
		<path class="st4" d="M265.3,97.2c-6.6-0.3-13.2-0.1-19.8-0.2c-6.6,0-13.2,0-19.8,0.1c-13,0.1-26,0.4-39.1,0.7
			c-7.4,0.2-14.9,0.4-22.3,0.8c-0.2,0-0.4,0.2-0.4,0.4c-0.3,0.2-0.2,0.9-0.2,1.2c0,0.6,0,1.2,0.1,1.8c0,0.6,0,1.1,0.1,1.7
			c0,0.6,0,1.2,0.1,1.8c0.1,0.3,0.6,0.4,0.7,0c0.1-0.6,0-1.2,0-1.8c0-0.6,0-1.1,0-1.7c0-0.6,0-1.2,0-1.8c0-0.2,0-0.4,0-0.7
			c26.1-0.7,52.2-1.4,78.4-1.5c7.4,0,14.9,0.2,22.3,0C265.8,98.1,265.8,97.3,265.3,97.2z"/>
	</g>
	<g>
		<path class="st7" d="M208.9,339.3c-0.1-1.8-0.1-3.5-0.2-5.3c0-0.2-0.1-0.3-0.2-0.5c-0.1-0.3-0.4-0.5-0.9-0.6
			c-2.2-0.3-4.5-0.2-6.7-0.2c-2.1,0-4.3,0-6.4,0c-4.5,0-9,0-13.5,0c-4.4,0-8.8,0-13.2,0.1c-4.5,0-9,0-13.5,0.3c-0.1,0-0.3,0-0.4,0.1
			c0,0,0,0,0,0c0.2,11.9,0.4,23.9,0.6,35.9c0.1,0.2,0.3,0.3,0.6,0.3c4.3,0.4,8.8,0.2,13.1,0.1c4.5,0,9-0.1,13.5-0.2
			c4.4-0.1,8.9-0.1,13.3-0.2c2.2,0,4.4-0.1,6.6-0.1c2.2,0,4.6,0.1,6.8-0.2c0.1,0,0.1,0,0.2,0c0.2,0,0.4-0.1,0.5-0.2
			c0-5.6,0-11.1-0.2-16.6C208.8,347.7,208.8,343.5,208.9,339.3z"/>
		<path class="st4" d="M203.4,341.5c-1.7,1.6-3.5,3.1-5.2,4.6c-1.3-1.1-2.5-2.3-3.8-3.4c-0.3-0.3-0.8-0.3-1.1,0
			c-4.7,4.3-9.2,8.7-13.9,13c-1.9-2.1-3.8-4.2-5.6-6.3c-0.3-0.4-0.8-0.2-1.1,0c-2.6,2.1-5,4.5-7.4,6.8c-2.4,2.3-4.9,4.6-7.2,7.1
			c-0.3,0.3,0.1,0.8,0.4,0.6c2.7-2,5.1-4.2,7.6-6.4c2.4-2.1,4.8-4.2,7.1-6.4c1.9,2,3.8,4.1,5.7,6.1c0.3,0.3,0.7,0.2,1,0
			c4.6-4.3,9.4-8.6,14-12.9c1.3,1.1,2.5,2.2,3.8,3.4c0.3,0.3,0.8,0.3,1.1,0c1.9-1.7,3.9-3.4,5.8-5
			C205.4,342,204.2,340.8,203.4,341.5z"/>
	</g>
	<g>
		<path class="st8" d="M68.1,348.6c-0.4-0.9-1-1.7-1.5-2.4c0.5-1.9,1.2-4.5,1.3-4.8c0.1-0.4,1.3-2.6,1.1-3c-0.2-0.4-7.1-5-7.6-5
			c-0.4,0-4.5,3.8-6.2,5.5c-2.3-0.5-4.7-0.5-7.1-0.1c-1.4-1.6-5.3-6.3-5.7-6.4c-0.5-0.2-7.7,3.6-8.1,4.1c-0.5,0.5,0.9,3.9,1.1,5.2
			c0.1,0.7,0.4,2.1,0.7,3.4c-0.4,0.4-0.7,0.8-1,1.2c-1,1.3-1.9,2.7-2.5,4.3c-2.5,0.5-8.5,1.7-8.7,1.9c-0.3,0.2-0.1,0.5,0,0.9
			s-0.3,5.5-0.4,6.1c-0.1,0.7-0.1,1.6-0.1,2.1c0,0.3,5.5,2,8.4,2.9c0.5,1.7,1.2,3.4,2.1,5c0.2,0.4,0.5,0.8,0.8,1.2
			c-0.9,2.6-2.6,7.6-2.5,7.9c0.2,0.4,1,0.7,1,0.7s6.1,4.2,6.3,4.2c0.3-0.1,0.3,0.1,0.6-0.2c0.3-0.2,4.5-3.9,5.5-5
			c2.5,0.7,5,1,7.5,0.6c1.8,2,5.3,6,5.5,5.9c0.3-0.1,1-0.5,1-0.5s7.1-3.3,7.1-3.6c0-0.3-0.1-1.1-0.1-1.1l-1.7-6.9
			c1.7-1.8,2.8-3.9,3.6-6.1c1.5-0.3,3.3-0.7,4-0.8c1-0.1,4.4-0.6,4.6-1s0.2-0.8,0.2-0.8l0.3-8.3l-0.2-0.4c0,0-5.6-1.7-7.8-2.4
			C69.2,351.3,68.7,350,68.1,348.6z M57.8,364.2c-1.7,2.1-4.5,3.5-7.2,3.5c-1.8,0.3-4-0.6-5.4-1.6c-2-1.4-3.3-3.5-3.7-5.9
			c-0.8-4.2,1.5-8.4,5.3-10.1c3.8-1.8,8.5-0.5,11.1,2.8C60.4,356.1,60.3,360.9,57.8,364.2z"/>
		<path class="st8" d="M74,306.7c-0.3-0.6-0.7-1.1-1.1-1.7c0.3-1.3,0.7-3.2,0.8-3.4c0.1-0.3,0.8-1.9,0.7-2.1
			c-0.1-0.2-5.2-3.3-5.5-3.3c-0.3,0-3,2.8-4.2,4c-1.7-0.3-3.4-0.2-5,0.1c-1-1.1-3.9-4.2-4.2-4.3c-0.3-0.1-5.3,2.8-5.6,3.1
			c-0.3,0.3,0.7,2.7,1,3.6c0.1,0.5,0.4,1.5,0.6,2.4c-0.2,0.3-0.5,0.6-0.7,0.9c-0.7,0.9-1.2,2-1.6,3.1c-1.7,0.4-5.9,1.5-6.1,1.6
			c-0.2,0.2,0,0.4,0,0.6s0,3.9-0.1,4.3c0,0.5,0,1.1,0,1.5c0,0.2,3.9,1.2,6,1.8c0.4,1.2,0.9,2.4,1.6,3.4c0.2,0.3,0.4,0.6,0.6,0.8
			c-0.6,1.9-1.6,5.4-1.5,5.6c0.1,0.3,0.7,0.5,0.7,0.5s4.4,2.8,4.6,2.7c0.2-0.1,0.2,0,0.4-0.1c0.2-0.1,3-2.9,3.7-3.7
			c1.8,0.4,3.6,0.5,5.3,0.2c1.3,1.4,3.9,4,4.1,4c0.2-0.1,0.7-0.4,0.7-0.4s4.9-2.5,4.9-2.8s-0.1-0.8-0.1-0.8l-1.4-4.8
			c1.1-1.3,1.9-2.8,2.4-4.4c1-0.3,2.3-0.6,2.8-0.7c0.7-0.1,3.1-0.6,3.2-0.8c0.1-0.3,0.1-0.6,0.1-0.6l-0.1-5.8l-0.1-0.3
			c0,0-4-1-5.6-1.4C74.9,308.5,74.6,307.6,74,306.7z M67.3,317.9c-1.1,1.5-3,2.6-5,2.7c-1.3,0.2-2.8-0.3-3.8-0.9
			c-1.4-0.9-2.4-2.4-2.8-4c-0.7-2.9,0.8-5.9,3.4-7.3c2.6-1.4,5.9-0.6,7.9,1.6C68.9,312.2,69,315.6,67.3,317.9z"/>
	</g>
	<g>
		<g>
			<path class="st8" d="M355.8,336.7c0-0.3-0.1-0.6-0.1-0.9c0,0-0.1-0.1-0.2-0.1c-0.1,0-0.3-0.1-0.7-0.1c-1.7-0.1-3.6-0.1-5.4-0.1
				c-1.7,0-3.4,0-5.1,0c-3.6,0-7.2-0.1-10.8-0.1c-3.5,0-7,0-10.6-0.1c-3.6,0-7.2-0.1-10.8,0c-0.1,0-0.2,0-0.3,0c0,0,0,0,0,0
				c0.1,2,0.1,4.1,0.1,6.1c0.1,0,0.3,0,0.5,0.1c3.4,0.1,7,0.1,10.5,0.1c3.6,0,7.2,0,10.8,0c3.5,0,7.1,0,10.6,0c1.8,0,3.5,0,5.3,0
				c1.8,0,3.7,0,5.4,0c0.1,0,0.1,0,0.1,0c0.1,0,0.3,0,0.4,0c0.1-0.9,0.1-1.9,0-2.8C355.7,338.1,355.7,337.4,355.8,336.7z"/>
			<path class="st8" d="M336.2,348.5c0-0.3,0-0.6,0-0.9c0,0,0-0.1-0.1-0.1c0,0-0.2-0.1-0.4-0.1c-1-0.1-2,0-3-0.1c-0.9,0-1.9,0-2.8,0
				c-2,0-4,0-6-0.1c-1.9,0-3.9,0-5.8,0c-2,0-4,0-6,0c-0.1,0-0.1,0-0.2,0c0,0,0,0,0,0c0,2,0.1,4.1,0.1,6.1c0.1,0,0.1,0,0.3,0.1
				c1.9,0.1,3.9,0.1,5.8,0.1c2,0,4,0,6,0c2,0,3.9,0,5.9,0c1,0,2,0,2.9,0c1,0,2,0,3,0c0,0,0,0,0.1,0c0.1,0,0.2,0,0.2,0
				c0-0.9,0-1.9,0-2.8C336.1,349.9,336.1,349.2,336.2,348.5z"/>
			<path class="st8" d="M347.8,360.5c0-0.3,0-0.6-0.1-0.9c0,0-0.1-0.1-0.1-0.1c-0.1,0-0.3-0.1-0.6-0.1c-1.4-0.1-3-0.1-4.4-0.1
				c-1.4,0-2.8,0-4.2,0c-2.9,0-5.9,0-8.8-0.1c-2.9,0-5.8,0-8.7-0.1c-2.9,0-5.9-0.1-8.8,0c-0.1,0-0.2,0-0.3,0c0,0,0,0,0,0
				c0.1,2,0.1,4.1,0.1,6.1c0.1,0,0.2,0,0.4,0.1c2.8,0.1,5.7,0.1,8.6,0.1c2.9,0,5.9,0,8.8,0c2.9,0,5.8,0,8.7,0c1.4,0,2.9,0,4.3,0
				c1.5,0,3,0,4.4,0c0,0,0.1,0,0.1,0c0.1,0,0.2,0,0.3,0c0-0.9,0.1-1.9,0-2.8C347.7,361.9,347.8,361.2,347.8,360.5z"/>
		</g>
		<g>
			<path class="st8" d="M178.9,274.7c0-0.3,0-0.6-0.1-0.9c0,0-0.1-0.1-0.1-0.1c-0.1,0-0.3-0.1-0.6-0.1c-1.4-0.1-2.8,0-4.2-0.1
				c-1.3,0-2.7,0-4,0c-2.8,0-5.7,0-8.5-0.1c-2.8,0-5.6,0-8.3-0.1c-2.8,0-5.7-0.1-8.5,0c-0.1,0-0.2,0-0.2,0c0,0,0,0,0,0
				c0.1,2,0.1,4.1,0.1,6.1c0.1,0,0.2,0,0.4,0.1c2.7,0.1,5.5,0.1,8.2,0.1c2.8,0,5.7,0,8.5,0c2.8,0,5.6,0,8.4,0c1.4,0,2.8,0,4.2,0
				c1.4,0,2.9,0,4.3,0c0,0,0.1,0,0.1,0c0.1,0,0.2,0,0.3,0c0-0.9,0.1-1.9,0-2.8C178.8,276.2,178.9,275.4,178.9,274.7z"/>
			<path class="st8" d="M168.6,286.6c0-0.3,0-0.6,0-0.9c0,0,0-0.1-0.1-0.1c0,0-0.2-0.1-0.4-0.1c-1-0.1-2,0-3-0.1c-0.9,0-1.9,0-2.8,0
				c-2,0-4,0-6-0.1c-1.9,0-3.9,0-5.8,0c-2,0-4,0-6,0c-0.1,0-0.1,0-0.2,0c0,0,0,0,0,0c0,2,0.1,4.1,0.1,6.1c0.1,0,0.1,0,0.3,0.1
				c1.9,0.1,3.9,0.1,5.8,0.1c2,0,4,0,6,0c2,0,3.9,0,5.9,0c1,0,2,0,2.9,0c1,0,2,0,3,0c0,0,0.1,0,0.1,0c0.1,0,0.2,0,0.2,0
				c0-0.9,0.1-1.9,0-2.8C168.6,288,168.6,287.3,168.6,286.6z"/>
		</g>
	</g>
	<path class="st8" d="M427.9,101.5c-5-10.7-16.9-16.9-28.6-15.3c-9,1.2-16.6,7.4-20.4,15.4c-0.1,0.1-0.1,0.2-0.1,0.3
		c-1.1,2.2-1.8,4.6-2.3,7c-1.4,8.2,1.5,17.3,7.2,23.5c-0.1,0.2,2.9,3,4.5,3.9c2,1.3,7.1,3,7.2,2.8c8.4,1.9,17.7,0,24.6-5.2
		C429.6,126.5,433.1,112.7,427.9,101.5z M423.3,99c0.3,0.5,0.6,0.9,0.9,1.4c-0.9-0.2-1.9-0.3-2.7-0.5c-1.4-0.3-2.9-0.6-4.4-0.8
		c-0.5-2.6-1.3-5.1-2.2-7.5C418.2,93.3,421.2,95.8,423.3,99z M402.4,125.8c-3.7,0-7.3-0.2-11-0.5c-1-3.3-1.6-6.7-1.8-10.3
		c4.4,0.1,8.8,0,13.2,0c0,3.6-0.1,7.2-0.2,10.8C402.4,125.8,402.4,125.8,402.4,125.8z M404.6,113c0.1-4.3,0.1-8.6,0-12.9
		c3.5,0,6.9,0.2,10.3,0.7c0.2,0,0.4,0.1,0.7,0.1c0.8,4,1.1,8,0.9,12.1C412.5,113,408.5,113,404.6,113z M416.3,114.9
		c0,0.1,0,0.2,0,0.4c-0.3,3.4-0.9,6.8-1.9,10.1c-3.4,0.2-6.8,0.4-10.2,0.4c0.1-3.6,0.2-7.2,0.3-10.8
		C408.4,115,412.4,114.9,416.3,114.9z M412.4,90.5c1.1,2.7,2,5.5,2.7,8.4c-3.5-0.4-7.1-0.7-10.6-0.8c0-1.7-0.1-3.3-0.1-5
		c-0.1-1.3,0.1-3-0.1-4.4C407,88.8,409.8,89.4,412.4,90.5z M402.7,113c-4.4,0-8.8-0.1-13.2-0.2c0,0,0,0,0-0.1c0-4.1,0.7-8.1,1.8-12
		c3.8-0.5,7.5-0.7,11.3-0.7C402.6,104.4,402.7,108.7,402.7,113z M402,88.7c-0.1,1.4,0.2,2.9,0.2,4.2c0.1,1.8,0.1,3.5,0.2,5.3
		c-3.5,0-7,0.2-10.5,0.6c1.1-3.1,2.6-6.1,4-9.1C397.9,89.1,400,88.7,402,88.7z M393.9,90.4c-1.8,2.6-3.2,5.5-4.2,8.6
		c-2.5,0.3-5,0.7-7.4,1.4C385,96,389,92.4,393.9,90.4z M381,102.5c2.7-0.4,5.3-0.9,8-1.4c-1,3.8-1.5,7.7-1.6,11.4c0,0.1,0,0.2,0,0.3
		c-3,0-6.1-0.1-9.1,0C378.4,109.2,379.4,105.7,381,102.5z M387.4,115c0.1,3.4,0.6,6.8,1.5,10.1c-1.3-0.1-2.5-0.2-3.8-0.4
		c-1.4-0.1-2.9-0.5-4.3-0.4c-1.5-3-2.4-6.3-2.5-9.8C381.3,114.8,384.4,114.9,387.4,115z M389.5,134.5c-3.1-2.4-5.8-5.2-7.7-8.5
		c0.9,0.2,1.8,0.3,2.6,0.4c1.7,0.2,3.4,0.4,5.1,0.6c1,3.1,2.3,6.1,4,8.9C392.1,135.4,390.8,135,389.5,134.5z M402,137.1
		c-2,0-3.9-0.2-5.9-0.6c0,0,0,0,0,0c-1.7-3-3.1-6.1-4.2-9.3c3.5,0.3,6.9,0.4,10.4,0.4c0,0,0,0,0.1,0c-0.1,1.8-0.2,3.6-0.2,5.4
		C402.1,134.3,401.9,135.8,402,137.1z M410.1,135.9c-1.7,0.5-3.5,0.9-5.4,1.1c-0.4,0-0.8,0-1.1,0.1c0.2-1.2,0.2-2.6,0.3-3.7
		c0.1-1.9,0.2-3.9,0.3-5.8c3.2,0,6.5-0.1,9.7-0.3c-0.1,0.2-0.1,0.5-0.2,0.7c-0.7,2-1.5,4-2.4,5.9
		C410.9,134.4,410.4,135.1,410.1,135.9z M421.4,129c-2.6,2.7-5.6,4.7-9,6.1c0.1-0.3,0.2-0.5,0.3-0.7c1-2,1.8-4,2.5-6
		c0.1-0.4,0.3-0.9,0.4-1.3c2.7-0.2,5.3-0.5,7.9-0.9C423,127.2,422.2,128.1,421.4,129z M424.7,124.3c-2.8,0.4-5.6,0.6-8.5,0.9
		c0.9-3.2,1.5-6.6,1.8-9.9c0-0.1,0-0.3,0-0.4c1.6,0,3.2-0.1,4.8-0.1c1.3,0,3.1,0.2,4.5-0.1C427.2,118.1,426.3,121.4,424.7,124.3z
		 M423.2,112.9c-1.7,0-3.3,0-5,0.1c0.2-3.9-0.1-7.9-0.8-11.8c1.2,0.2,2.3,0.4,3.5,0.6c1.4,0.3,2.9,0.8,4.4,1
		c1.4,3.2,2.1,6.6,2.1,10.1C426.1,112.5,424.5,112.8,423.2,112.9z"/>
	<g>
		<path class="st12" d="M365.3,191.6c0-1.7,0-3.3-0.1-5c0-0.2-0.1-0.3-0.2-0.4c-0.1-0.3-0.3-0.5-0.7-0.6c-1.8-0.3-3.8-0.2-5.7-0.3
			c-1.8,0-3.6-0.1-5.4-0.1c-3.8-0.1-7.6-0.1-11.4-0.2c-3.7-0.1-7.5-0.1-11.2-0.1c-3.8,0-7.6-0.2-11.4,0.1c-0.1,0-0.2,0-0.3,0.1
			c0,0,0,0,0,0c0,11.3,0,22.6,0,33.9c0.1,0.1,0.3,0.3,0.5,0.3c3.6,0.4,7.4,0.3,11.1,0.3c3.8,0,7.6,0,11.5,0c3.8,0,7.5,0,11.3,0
			c1.9,0,3.8,0,5.6,0c1.9,0,3.9,0.1,5.7-0.1c0.1,0,0.1,0,0.1,0c0.2,0,0.3-0.1,0.4-0.2c0.1-5.2,0.1-10.5,0.1-15.7
			C365.1,199.6,365.2,195.6,365.3,191.6z"/>
		<path class="st4" d="M355.2,192c0-0.2,0-0.5-0.1-0.7c0,0-0.1,0-0.1-0.1c-0.1,0-0.2-0.1-0.5-0.1c-1.2,0-2.6,0-3.8-0.1
			c-1.2,0-2.4,0-3.6,0c-2.6,0-5.1,0-7.7-0.1c-2.5,0-5,0-7.6,0c-2.6,0-5.2,0-7.7,0c-0.1,0-0.2,0-0.2,0c0,0,0,0,0,0
			c0,1.5,0.1,3.1,0.1,4.6c0.1,0,0.2,0,0.4,0c2.5,0.1,5,0.1,7.5,0.1c2.6,0,5.2,0,7.7,0c2.5,0,5.1,0,7.6,0c1.3,0,2.5,0,3.8,0
			c1.3,0,2.6,0,3.9,0c0,0,0.1,0,0.1,0c0.1,0,0.2,0,0.3,0c0-0.7,0.1-1.4,0-2.1C355.2,193.1,355.2,192.5,355.2,192z"/>
		<path class="st4" d="M359.6,200.9c0-0.2,0-0.5-0.1-0.7c0,0-0.1,0-0.1-0.1c-0.1,0-0.3-0.1-0.6-0.1c-1.4,0-2.9,0-4.4-0.1
			c-1.4,0-2.8,0-4.2,0c-2.9,0-5.9,0-8.8-0.1c-2.9,0-5.7,0-8.6-0.1c-2.9,0-5.9,0-8.8,0c-0.1,0-0.2,0-0.2,0c0,0,0,0,0,0
			c0.1,1.5,0.1,3.1,0.1,4.6c0.1,0,0.2,0,0.4,0c2.8,0.1,5.7,0.1,8.5,0.1c2.9,0,5.9,0,8.8,0c2.9,0,5.8,0,8.7,0c1.4,0,2.9,0,4.3,0
			c1.4,0,3,0,4.4,0c0,0,0.1,0,0.1,0c0.1,0,0.2,0,0.3,0c0-0.7,0.1-1.4,0-2.1C359.5,202,359.6,201.4,359.6,200.9z"/>
		<path class="st4" d="M351,209.7c0-0.2,0-0.5-0.1-0.7c0,0,0,0-0.1-0.1c-0.1,0-0.2-0.1-0.4-0.1c-1.1,0-2.2,0-3.3,0
			c-1.1,0-2.1,0-3.2,0c-2.2,0-4.4,0-6.7-0.1c-2.2,0-4.4,0-6.5,0c-2.2,0-4.5,0-6.7,0c-0.1,0-0.1,0-0.2,0c0,0,0,0,0,0
			c0,1.5,0.1,3.1,0.1,4.6c0.1,0,0.2,0,0.3,0c2.1,0.1,4.3,0.1,6.5,0.1c2.2,0,4.5,0,6.7,0c2.2,0,4.4,0,6.6,0c1.1,0,2.2,0,3.3,0
			c1.1,0,2.3,0,3.4,0c0,0,0.1,0,0.1,0c0.1,0,0.2,0,0.2,0c0-0.7,0.1-1.4,0-2.1C350.9,210.8,351,210.3,351,209.7z"/>
	</g>
</g>
</svg>
