<svg width="5958" height="1001" viewBox="0 0 5958 1001" fill="none" xmlns="http://www.w3.org/2000/svg">
<path d="M0 175C0 78.3502 78.3502 0 175 0H1005V826C1005 922.65 926.65 1001 830 1001H0V175Z" fill="#111111"/>
<path d="M584.028 43.7335C601.434 45.8105 618.947 47.2424 636.225 50.0957C675 56.4989 712.303 67.969 748.001 84.5328C781.05 99.8677 811.542 119.161 839.076 143.065C869.98 169.894 895.4 201.162 915.354 236.909C934.255 270.769 946.992 306.881 954.632 344.789C958.405 363.512 960.843 382.413 961.458 401.61C962.891 446.326 954.268 488.918 935.747 529.504C923.71 555.881 907.824 579.772 888.134 601.155C866.536 624.611 841.67 643.705 813.568 658.712C783.804 674.606 752.208 684.963 719.009 690.673C701.339 693.712 683.593 695.806 665.636 695.863C662.897 695.872 660.163 696.44 657.421 696.499C639.774 696.88 622.398 694.679 605.146 691.094C581.783 686.241 558.975 679.554 537.368 669.411C525.845 664.002 514.913 657.335 503.718 651.23C502.428 650.526 501.156 649.789 499.161 648.664C499.161 650.76 499.166 652.075 499.161 653.391C499.046 684.123 498.986 714.855 498.796 745.587C498.663 767.149 498.362 788.71 498.118 810.272C498.032 817.863 498.129 825.467 497.714 833.042C497.273 841.106 496.491 849.162 495.559 857.187C494.131 869.479 492.607 881.764 490.836 894.011C488.349 911.205 485.613 928.363 482.952 945.531C482.347 949.43 481.613 953.309 480.951 957.123C477.122 958.195 366.208 958.437 360.492 957.425C360.492 957.098 360.376 956.708 360.508 956.44C366.641 944.016 367.57 930.28 370.595 917.059C375.754 894.505 377.858 871.569 380.032 848.62C381.118 837.158 382.506 825.725 383.703 814.273C383.882 812.563 383.784 810.823 383.784 809.097C383.787 728.449 383.787 647.801 383.787 567.153C383.787 564.931 383.787 562.709 383.787 560.118C425.804 560.118 467.49 560.118 509.24 560.118C512.052 566.759 514.706 573.475 517.71 580.03C523.137 591.872 530.436 602.467 539.355 611.988C560.815 634.901 588.012 647.091 617.962 654.012C631.044 657.035 644.27 659.073 657.769 659.68C680.008 660.681 701.246 656.75 721.747 648.383C741.294 640.405 758.457 628.808 773.851 614.373C799.432 590.385 816.972 561.254 829.128 528.689C837.719 505.671 842.853 481.839 845.365 457.374C847.076 440.705 847.758 424.019 846.896 407.333C845.59 382.043 842.672 356.923 835.947 332.407C827.532 301.733 811.909 275.003 791.007 251.239C785.204 244.642 779.332 238.084 773.158 231.838C758.363 216.874 741.188 205.12 722.689 195.222C695.645 180.752 667.117 170.159 637.406 162.7C618.355 157.917 599.058 154.595 579.516 152.399C558.358 150.021 537.154 149.624 516.003 150.925C478.368 153.239 442.046 161.399 408.163 178.569C373.746 196.011 346.145 220.929 327.348 254.8C316.049 275.161 305.851 296.164 301.762 319.425C300.336 327.536 299.491 335.778 298.897 343.998C298.316 352.062 298.205 360.175 298.236 368.265C298.262 375.135 298.786 382.002 299.082 388.716C295.028 390.02 191.074 390.495 181.72 389.407C181.535 389.01 181.145 388.56 181.143 388.109C181.087 373.792 180.395 359.438 181.177 345.165C183.037 311.212 190.392 278.408 203.432 246.913C216.548 215.232 234.483 186.576 257.002 160.772C278.139 136.551 302.458 116.072 330.026 99.5305C350.202 87.4244 371.679 78.05 393.763 70.0397C414.203 62.6253 435.107 56.7269 456.429 52.5833C471.105 49.7313 485.982 47.8737 500.806 45.8411C507.781 44.8849 514.842 44.563 522.763 43.8958C526.479 43.4108 529.53 44.9853 532.146 42.8418C545.984 42.8418 559.822 42.8418 574.385 43.2019C578.083 43.6192 581.056 43.6763 584.028 43.7335Z" fill="white"/>
<path d="M168.362 737.94C171.118 728.039 172.738 718.417 172.754 708.507C172.769 699.033 173.271 689.561 173.35 680.086C173.388 675.623 172.721 671.156 172.741 666.692C172.913 626.995 173.167 587.299 173.395 547.603C173.404 546.065 173.396 544.528 173.396 542.252C164.6 541.907 156.05 542.138 147.513 542.096C138.878 542.053 130.243 542.086 121.608 542.086C112.8 542.086 103.992 542.086 95.1843 542.086C86.5491 542.086 77.914 542.086 69.2789 542.086C60.6823 542.086 52.0857 542.086 43 542.086C43.5256 536.773 43.5331 531.923 44.5636 527.3C46.5462 518.407 48.7012 509.512 51.5131 500.854C57.6219 482.045 67.718 465.291 81.0487 450.881C98.8329 431.656 120.213 417.821 146.147 411.818C155.421 409.672 164.77 408.426 174.278 408.425C305.705 408.417 437.132 408.419 568.558 408.419C570.769 408.419 572.979 408.419 575.488 408.419C575.488 453 575.488 497.135 575.488 541.951C568.695 542.25 561.855 542.041 555.026 542.078C548.118 542.116 541.21 542.086 534.302 542.086C527.394 542.086 520.486 542.086 513.578 542.086C506.67 542.086 499.762 542.086 492.853 542.086C485.945 542.086 479.037 542.086 472.129 542.086C465.221 542.086 458.313 542.086 451.405 542.086C444.669 542.086 437.934 542.086 431.199 542.086C424.291 542.086 417.382 542.086 410.474 542.086C403.566 542.086 396.658 542.086 389.75 542.086C382.842 542.086 375.934 542.086 369.026 542.086C362.118 542.086 355.21 542.086 348.301 542.086C341.393 542.086 334.485 542.086 327.577 542.086C320.71 542.086 313.842 542.086 306.384 542.086C306.384 544.625 306.384 546.645 306.384 548.665C306.384 600.994 306.484 653.323 306.337 705.651C306.272 728.695 302.534 751.246 295.794 773.283C285.048 808.421 267.525 839.834 243.317 867.433C222.773 890.854 198.772 910.05 171.426 925.065C145.039 939.554 116.975 949.237 87.3686 954.338C73.2951 956.763 59.0724 958.229 44.7822 957.914C43.5586 953.859 45.1846 836.589 46.5965 828.846C48.9695 828.61 51.4768 828.29 53.9942 828.122C82.4574 826.222 107.543 815.929 129.314 797.599C148.157 781.735 160.968 761.836 168.362 737.94Z" fill="white"/>
<path d="M5383.6 772.938C5356.3 790.056 5326.23 792.166 5294.84 791.825C5210.94 790.911 5127 792.055 5043.1 791.295C4998.07 790.886 4955.91 779.568 4919.92 750.765C4914.84 746.706 4910.3 741.97 4904.64 736.723C4893.58 754.447 4881.24 770.348 4862.06 779.577C4846.56 787.028 4830.74 791.643 4813.35 791.604C4722.1 791.403 4630.82 792.476 4539.56 790.895C4513.54 790.445 4486.79 785.402 4461.92 777.62C4376.68 750.969 4349.64 660.396 4404.58 589.291C4433.93 551.317 4474.81 532.133 4520.16 521.648C4535.73 518.049 4552.12 516.97 4568.17 516.612C4601.28 515.871 4634.43 515.903 4667.54 516.529C4700.46 517.148 4731.08 525.851 4759.37 543.473C4793.54 564.768 4801.24 612.413 4773.08 647.331C4761.41 661.789 4748.09 669.798 4727.79 668.463C4697.01 666.435 4666.01 667.933 4635.1 667.933C4628.61 667.933 4622.12 667.933 4611.83 667.933C4626.31 637.757 4639.35 610.513 4653.51 580.962C4624.74 580.962 4599.36 580.962 4571.94 580.962C4564.78 601.657 4557.33 622.984 4550.08 644.374C4546.05 656.19 4542.15 668.048 4538.51 679.986C4531.22 703.934 4541.42 720.672 4566.03 724.475C4578.33 726.372 4590.8 728.036 4603.17 728.075C4696.66 728.368 4790.12 728.247 4883.61 728.193C4887.79 728.19 4891.98 727.589 4894.92 727.366C4892.65 707.588 4887.86 688.714 4888.91 670.169C4892.05 614.865 4922.12 575.572 4968.85 548.644C5006.41 527.004 5047.13 515.842 5090.92 516.293C5133.59 516.733 5176.29 516.015 5218.99 516.497C5270.55 517.081 5313.57 574.119 5282.34 629.489C5269.01 653.093 5247.34 667.167 5219.31 667.665C5205.54 667.911 5190.93 667.895 5178.11 663.73C5150.5 654.788 5131.93 635.911 5126.49 606.189C5125.05 598.307 5123.71 590.406 5122.08 581.087C5108.69 581.087 5095.01 581.087 5079.06 581.087C5075.58 589.818 5071.26 599.737 5067.65 609.903C5060.49 629.952 5053.39 650.033 5046.9 670.296C5035.85 704.761 5048.09 723.83 5084.01 725.031C5142.03 726.963 5200.07 727.56 5258.11 728.145C5305.19 728.618 5352.28 728.241 5401.31 728.241C5445.54 586.574 5489.65 445.267 5534.08 303C5582.66 303 5630.16 303 5680.85 303C5646.24 414.823 5611.84 525.851 5576.65 638.983C5577.32 641.72 5578.83 642.353 5580.33 642.982C5617.66 611.206 5654.96 579.363 5692.39 547.676C5726.59 518.707 5765.3 502.056 5811.1 504.524C5836.99 505.92 5848.59 516.634 5848.02 542.85C5847.73 556.538 5845.84 570.663 5841.82 583.715C5829.13 624.98 5815.06 665.813 5801.67 706.856C5799.69 712.899 5798.47 719.193 5796.17 728.381C5850.22 728.381 5902.07 728.381 5955.95 728.681C5958 732.29 5958 735.602 5958 740.568C5936.07 778.242 5903.47 792.47 5861.98 791.758C5804.61 790.777 5747.24 791.528 5689.87 791.493C5684.02 791.489 5678.04 791.809 5672.25 790.95C5653.36 788.143 5642.91 776.984 5644.03 757.986C5644.77 745.007 5648.31 732.031 5651.83 719.404C5658.09 696.976 5665.32 674.812 5668.71 650.001C5653.84 662.118 5638.85 674.078 5624.15 686.376C5590.94 714.138 5557.99 742.19 5524.71 769.875C5506.66 784.904 5486.52 793.265 5462.04 791.844C5436.47 790.362 5410.77 791.512 5384.08 791.512C5384.65 786.166 5385.01 782.634 5386.28 776.381C5386.76 772.411 5386.35 771.159 5385.96 769.907C5385.17 770.916 5384.4 771.929 5383.6 772.938Z" fill="black"/>
<path d="M2712.21 775.318C2693.01 787.398 2672.44 792.394 2649.41 791.927C2596.39 790.85 2543.32 791.035 2490.29 791.812C2462.96 792.211 2443.25 781.695 2431.7 757.092C2412.67 716.555 2393.95 675.875 2375.39 635.123C2362.62 607.104 2350.35 578.857 2337.31 549.469C2364.36 539.701 2390.77 531.029 2416.48 520.624C2441.62 510.45 2466.63 499.64 2490.58 486.995C2511.56 475.919 2529 459.765 2541.22 438.921C2550.73 422.705 2555.81 404.936 2553.61 386.285C2550.16 357.166 2533.68 338.716 2505.24 329.897C2480.87 322.344 2455.96 322.091 2431.09 322.021C2309.52 321.676 2187.96 321.865 2066.4 321.865C2058.34 321.865 2050.28 321.865 2042 321.865C2046.06 304.53 2076.3 253.301 2101.91 220.241C2107.34 220.241 2113.89 220.241 2120.43 220.241C2261.15 220.241 2401.87 220.174 2542.58 220.289C2578.15 220.321 2612.7 226.49 2646.25 238.496C2745.05 273.842 2751.7 382.063 2701.39 444.457C2678.87 472.39 2651.56 494.666 2620.72 511.984C2588.74 529.945 2555.14 545.048 2522.22 561.328C2517.04 563.888 2511.67 566.052 2504.25 569.351C2514.28 592.103 2523.82 614.139 2533.68 636.028C2545.46 662.149 2557.59 688.107 2569.39 714.212C2573.24 722.725 2577.44 728.667 2588.77 728.51C2635.88 727.861 2683.01 728.238 2732 728.238C2776.28 586.416 2820.45 444.984 2864.89 302.616C2913.56 302.616 2961.13 302.616 3011.85 302.616C2977.16 414.561 2942.77 525.688 2907.54 638.921C2908.21 641.66 2909.72 642.29 2911.19 642.919C2948.14 611.515 2985.13 580.187 3021.99 548.686C3056.86 518.895 3096.18 501.721 3142.99 504.367C3167.82 505.771 3179.69 516.597 3179.15 541.44C3178.83 555.897 3176.78 570.799 3172.56 584.594C3159.86 626.017 3145.68 666.985 3132.15 708.158C3130.39 713.564 3129.11 719.132 3127.03 726.64C3180.27 726.64 3231.43 726.64 3283.52 726.64C3283.17 724.326 3283.36 721.353 3282.3 718.94C3254.18 655.107 3287.23 568.091 3364.56 535.622C3395.28 522.712 3427.43 515.951 3461.12 516.076C3563.51 516.456 3665.93 516.213 3768.34 516.213C3776.34 516.213 3784.34 516.213 3794.07 516.213C3792.95 511.141 3792.88 507.503 3791.41 504.578C3759.8 442.242 3767 345.409 3849.58 279.448C3898.5 240.343 3955.36 221.072 4017.14 220.666C4197.66 219.477 4378.14 220.234 4558.66 220.276C4563.75 220.276 4568.87 220.781 4576 221.155C4573.34 227.407 4571.55 232.758 4568.93 237.664C4556.48 260.992 4543.24 283.936 4531.43 307.577C4526.12 318.189 4519.75 322.44 4507.56 322.162C4470.77 321.331 4433.91 321.865 4397.08 321.865C4389.76 321.865 4382.43 321.865 4373.44 321.865C4369.89 330.847 4366.27 339.448 4363.1 348.229C4323.81 458.195 4284.81 568.27 4245.2 678.131C4231.67 715.657 4210.1 747.513 4175.16 768.887C4152.73 782.603 4128.51 791.262 4102.28 791.384C4004.31 791.844 3906.31 791.572 3808.34 791.502C3804.82 791.499 3801.33 790.7 3794.93 789.917C3807.6 757.029 3818.13 724.828 3846.73 703.77C3854.99 697.68 3867.05 692.902 3876.97 693.57C3908.35 695.692 3939.65 700.234 3970.87 704.668C4002.8 709.204 4034.64 714.785 4066.54 719.704C4070.76 720.356 4075.21 719.793 4081.67 719.793C4128.29 588.312 4175.07 456.418 4222.45 322.82C4213.62 322.433 4207.13 321.909 4200.63 321.903C4136.54 321.842 4072.43 322.12 4008.34 321.778C3965.31 321.548 3925.02 329.45 3890.79 357.636C3864.2 379.515 3849.35 406.806 3851.66 441.999C3852.62 456.891 3856.11 462.696 3870.95 473.538C3873.48 468.36 3875.88 463.482 3878.28 458.601C3899.2 415.721 3932.73 393.468 3981.3 392.167C4018.51 391.169 4049.55 401.145 4071.91 431.981C4106.02 479.055 4092.97 541.737 4043.05 571.47C4021.78 584.15 3998.55 590.37 3973.91 591.281C3944.38 592.374 3915.1 591.262 3886.69 581.762C3881.93 580.171 3876.61 579.653 3871.53 579.646C3797.87 579.518 3724.19 579.554 3650.54 579.598C3647.88 579.602 3645.22 580.097 3643.4 580.276C3649.67 599.279 3658.37 616.709 3660.87 634.989C3667.21 681.062 3650.57 720.084 3616.49 751.074C3582.45 782.05 3540.5 795.935 3495.58 798.317C3464.23 799.985 3432.23 798.576 3401.1 794.337C3359.41 788.66 3321.88 771.937 3292.92 737.534C3286.27 746.583 3281.41 755.44 3274.49 762.191C3255.39 780.819 3232.45 791.54 3205.29 791.566C3141.94 791.62 3078.56 791.761 3015.2 791.508C2982.25 791.38 2968.91 775.871 2976.27 743.658C2982.51 716.523 2991.85 690.115 2999.69 663.341C3000.84 659.41 3001.16 655.235 3002.57 647.081C2970.83 673.519 2942.16 697.38 2913.52 721.305C2894.36 737.323 2875.35 753.541 2856.09 769.463C2837.98 784.444 2818.08 793.474 2793.45 791.895C2770.72 790.431 2747.8 791.479 2724.97 791.591C2718.15 791.627 2713.18 790.364 2715.91 779.461C2715.24 776.492 2713.73 775.906 2712.21 775.318ZM3496.45 704.141C3510.59 663.642 3524.76 623.14 3539.64 580.586C3507.77 580.586 3479.49 580.586 3449.7 580.586C3436.97 617.271 3423.91 653.691 3411.82 690.415C3406.86 705.406 3412.81 717.86 3427.08 724.7C3446.15 733.832 3466.18 734.813 3486.5 730.856C3487.97 727.295 3489.15 724.636 3490.14 721.893C3491.9 717.076 3493.5 712.208 3496.45 704.141Z" fill="black"/>
<path d="M1595.28 421.321C1600.92 401.052 1604.24 382.547 1598.25 363.31C1593.31 347.45 1584.39 335.443 1568.25 330.887C1555.67 327.331 1542.56 323.989 1529.6 323.676C1477.37 322.423 1425.1 322.093 1372.85 321.953C1285.95 321.716 1199.06 321.889 1112.17 321.889C1105.02 321.889 1097.87 321.889 1088 321.889C1091.17 315.071 1092.79 310.489 1095.27 306.441C1110.27 281.995 1125.76 257.844 1140.45 233.222C1145.88 224.122 1152.16 219.975 1163.28 220C1312.76 220.349 1462.25 219.735 1611.73 220.755C1635.63 220.918 1659.92 226.184 1683.26 232.116C1724.57 242.614 1755.99 266.375 1772.34 310.109C1778.47 302.77 1783.49 296.992 1788.27 291.022C1829.51 239.461 1926.72 234.45 1970.44 298.991C2003.13 347.243 1986.65 409.139 1927.8 437.297C1884.27 458.126 1819.59 452.373 1784.25 404.972C1781.68 401.525 1779.04 398.123 1776.03 394.164C1769.15 409.666 1763.72 424.752 1756.07 438.617C1734.17 478.28 1700.83 507.136 1663.64 531.626C1599.85 573.639 1529.9 602.303 1456.8 623.318C1419.44 634.058 1381.51 642.813 1340.53 653.317C1326.66 697.56 1312.04 744.216 1297.37 791C1247.8 791 1200.11 791 1148.95 791C1192.36 651.639 1235.24 513.966 1278.27 375.81C1327.17 375.81 1374.82 375.81 1425.73 375.81C1405.91 439.951 1386.55 502.637 1366.9 566.243C1369.83 566.637 1371.83 567.449 1373.55 567.052C1435.91 552.733 1493.81 528.796 1544.55 488.845C1567.08 471.105 1583.85 449.422 1595.28 421.321Z" fill="black"/>
<path d="M2375 375.74C2371.37 396.201 2366.65 416.119 2360.57 435.608C2324.46 551.265 2288.03 666.823 2251.69 782.407C2250.84 785.099 2249.68 787.689 2248.41 791C2200.39 791 2152.87 791 2102 791C2145.15 652.047 2187.77 514.824 2231.19 375C2278.28 375 2325.78 375 2375 375.74Z" fill="black"/>
<path d="M1910.75 557.416C1893.07 614.308 1875.83 669.489 1857.63 727.765C1914.57 727.765 1968.52 727.765 2023 727.765C2014.7 763.528 1982.75 790.616 1945.92 791.268C1881.21 792.413 1816.46 792.02 1751.74 791.403C1724.44 791.14 1708.38 774.46 1707.1 746.988C1706.73 739.066 1707.39 730.657 1709.7 723.121C1729.74 657.792 1750.26 592.603 1770.71 527.395C1771.78 523.992 1773.59 520.819 1775.3 517C1824.13 517 1872.48 517 1922.98 517C1918.77 530.824 1914.98 543.266 1910.75 557.416Z" fill="black"/>
<path d="M2492.8 750.088C2492.53 750.1 2492.06 749.903 2491.89 749.587C2492.18 749.47 2492.59 749.878 2492.8 750.088Z" fill="#4C6971"/>
<path d="M2431.66 791.223C2431.7 790.698 2431.94 790.382 2432.19 790.065C2432.31 790.457 2432.44 790.849 2432.43 791.534C2432.29 791.827 2431.86 791.432 2431.66 791.223Z" fill="#4C6971"/>
<path d="M1658.06 750.088C1657.79 750.1 1657.33 749.903 1657.15 749.588C1657.44 749.471 1657.86 749.878 1658.06 750.088Z" fill="#4C6971"/>
<path d="M1596.28 706.935C1596.55 706.909 1597.02 707.093 1597.19 707.414C1596.9 707.551 1596.48 707.144 1596.28 706.935Z" fill="#4C6971"/>
</svg>
