<svg width="919" height="916" viewBox="0 0 919 916" fill="none" xmlns="http://www.w3.org/2000/svg">
<path d="M541.028 0.89169C558.434 2.96872 575.946 4.40065 593.224 7.25392C631.999 13.6571 669.303 25.1272 705 41.691C738.05 57.0259 768.541 76.3197 796.076 100.223C826.979 127.052 852.399 158.32 872.354 194.068C891.255 227.928 903.992 264.039 911.631 301.947C915.405 320.67 917.842 339.571 918.458 358.768C919.891 403.484 911.268 446.076 892.747 486.662C880.71 513.039 864.824 536.93 845.134 558.314C823.536 581.769 798.669 600.864 770.568 615.87C740.803 631.764 709.207 642.121 676.008 647.831C658.338 650.87 640.593 652.965 622.635 653.022C619.897 653.03 617.163 653.598 614.421 653.657C596.774 654.038 579.398 651.837 562.145 648.253C538.783 643.399 515.975 636.713 494.367 626.569C482.845 621.16 471.913 614.493 460.718 608.388C459.427 607.684 458.155 606.947 456.161 605.822C456.161 607.918 456.165 609.234 456.16 610.549C456.046 641.281 455.985 672.013 455.796 702.745C455.662 724.307 455.361 745.868 455.117 767.43C455.032 775.021 455.128 782.625 454.714 790.2C454.272 798.264 453.49 806.32 452.558 814.345C451.131 826.637 449.606 838.922 447.835 851.169C445.349 868.363 442.612 885.521 439.951 902.689C439.347 906.588 438.612 910.467 437.951 914.282C434.121 915.353 323.208 915.595 317.491 914.583C317.491 914.257 317.376 913.866 317.508 913.598C323.641 901.174 324.569 887.438 327.594 874.217C332.754 851.663 334.858 828.727 337.032 805.778C338.118 794.316 339.505 782.883 340.703 771.431C340.882 769.721 340.784 767.981 340.784 766.255C340.787 685.607 340.786 604.959 340.786 524.312C340.786 522.09 340.786 519.867 340.786 517.276C382.804 517.276 424.49 517.276 466.24 517.276C469.051 523.917 471.706 530.633 474.71 537.188C480.136 549.031 487.436 559.625 496.354 569.147C517.814 592.059 545.012 604.249 574.962 611.17C588.043 614.193 601.27 616.231 614.769 616.839C637.008 617.839 658.246 613.908 678.747 605.541C698.294 597.563 715.456 585.967 730.85 571.531C756.431 547.544 773.971 518.412 786.127 485.847C794.719 462.829 799.853 438.997 802.364 414.533C804.075 397.863 804.758 381.178 803.896 364.491C802.59 339.201 799.671 314.082 792.946 289.565C784.532 258.891 768.909 232.162 748.006 208.398C742.203 201.8 736.332 195.242 730.157 188.997C715.363 174.032 698.187 162.279 679.688 152.381C652.644 137.911 624.117 127.318 594.406 119.858C575.354 115.075 556.057 111.753 536.515 109.557C515.358 107.179 494.154 106.782 473.003 108.083C435.367 110.398 399.046 118.557 365.162 135.728C330.745 153.169 303.144 178.087 284.348 211.958C273.048 232.319 262.85 253.322 258.761 276.583C257.336 284.694 256.49 292.936 255.897 301.156C255.315 309.22 255.204 317.333 255.235 325.423C255.262 332.293 255.785 339.161 256.082 345.874C252.028 347.179 148.073 347.653 138.719 346.565C138.535 346.168 138.145 345.718 138.143 345.267C138.086 330.95 137.395 316.596 138.177 302.323C140.036 268.37 147.392 235.566 160.431 204.071C173.548 172.39 191.482 143.734 214.002 117.93C235.139 93.7093 259.458 73.2301 287.026 56.6887C307.202 44.5826 328.679 35.2082 350.762 27.1979C371.203 19.7835 392.107 13.8851 413.429 9.74152C428.105 6.88948 442.982 5.03191 457.806 2.99934C464.78 2.04309 471.841 1.72118 479.762 1.05398C483.478 0.568996 486.53 2.14346 489.145 0C502.983 0 516.822 -6.17636e-08 531.385 0.360125C535.083 0.777396 538.055 0.834544 541.028 0.89169Z" fill="white"/>
<path d="M125.362 695.098C128.118 685.197 129.738 675.575 129.754 665.665C129.769 656.191 130.271 646.719 130.35 637.244C130.388 632.782 129.721 628.314 129.741 623.85C129.913 584.153 130.167 544.457 130.395 504.761C130.404 503.223 130.396 501.686 130.396 499.41C121.6 499.065 113.05 499.296 104.513 499.254C95.8782 499.211 87.2429 499.245 78.6078 499.245C69.7999 499.245 60.9921 499.245 52.1843 499.245C43.5491 499.245 34.914 499.245 26.2789 499.245C17.6823 499.245 9.08569 499.245 0 499.245C0.525578 493.932 0.533065 489.081 1.56363 484.458C3.54619 475.566 5.70119 466.67 8.51311 458.012C14.6219 439.203 24.718 422.449 38.0487 408.039C55.8329 388.814 77.2133 374.979 103.147 368.976C112.421 366.83 121.77 365.584 131.278 365.583C262.705 365.575 394.132 365.577 525.558 365.577C527.769 365.577 529.979 365.577 532.488 365.577C532.488 410.158 532.488 454.293 532.488 499.109C525.695 499.408 518.855 499.199 512.026 499.236C505.118 499.274 498.21 499.245 491.302 499.245C484.394 499.245 477.486 499.245 470.578 499.245C463.67 499.245 456.762 499.245 449.853 499.245C442.945 499.245 436.037 499.245 429.129 499.245C422.221 499.245 415.313 499.245 408.405 499.245C401.669 499.245 394.934 499.245 388.199 499.245C381.291 499.245 374.382 499.245 367.474 499.245C360.566 499.245 353.658 499.245 346.75 499.245C339.842 499.245 332.934 499.245 326.026 499.245C319.118 499.245 312.21 499.245 305.301 499.245C298.393 499.245 291.485 499.245 284.577 499.245C277.71 499.245 270.842 499.245 263.384 499.245C263.384 501.783 263.384 503.803 263.384 505.824C263.384 558.152 263.484 610.481 263.337 662.809C263.272 685.853 259.534 708.404 252.794 730.441C242.048 765.579 224.525 796.992 200.317 824.591C179.773 848.012 155.772 867.208 128.426 882.223C102.039 896.712 73.9751 906.395 44.3686 911.497C30.2951 913.921 16.0724 915.387 1.7822 915.072C0.5586 911.017 2.18465 793.747 3.59646 786.004C5.9695 785.768 8.4768 785.448 10.9942 785.28C39.4574 783.38 64.5425 773.087 86.3142 754.757C105.157 738.893 117.968 718.995 125.362 695.098Z" fill="white"/>
</svg>
